<svg width="375" height="86" viewBox="0 0 375 86" fill="none" xmlns="http://www.w3.org/2000/svg">
<path d="M375 81.2502L366.042 82.4169C357.083 83.6252 339.167 85.9585 321.333 85.0002C303.458 84.0419 285.708 79.7085 267.833 75.0835C250 70.4169 232.083 65.4169 214.25 65.1252C196.375 64.8752 178.625 69.2919 160.75 73.1252C142.917 76.9585 125 80.1252 107.167 78.8335C89.2917 77.5002 71.5417 71.6669 53.6667 71.5419C35.8333 71.3752 17.9167 76.9585 8.95834 79.7085L8.9407e-06 82.5002V0.000196844H8.95834C17.9167 0.000196844 35.8333 0.000196844 53.6667 0.000196844C71.5417 0.000196844 89.2917 0.000196844 107.167 0.000196844C125 0.000196844 142.917 0.000196844 160.75 0.000196844C178.625 0.000196844 196.375 0.000196844 214.25 0.000196844C232.083 0.000196844 250 0.000196844 267.833 0.000196844C285.708 0.000196844 303.458 0.000196844 321.333 0.000196844C339.167 0.000196844 357.083 0.000196844 366.042 0.000196844H375V81.2502Z" fill="#808080"/>
<path d="M375 72.5002L366.042 68.0002C357.083 63.4586 339.167 54.4586 321.333 54.5836C303.458 54.7086 285.708 64.0419 267.833 65.4169C250 66.7919 232.083 60.2919 214.25 60.0002C196.375 59.7086 178.625 65.7086 160.75 65.8336C142.917 65.9586 125 60.2919 107.167 60.2086C89.2917 60.1252 71.5417 65.7086 53.6667 68.1252C35.8333 70.5419 17.9167 69.8752 8.95834 69.5002L8.9407e-06 69.1669V0.000251055H8.95834C17.9167 0.000251055 35.8333 0.000251055 53.6667 0.000251055C71.5417 0.000251055 89.2917 0.000251055 107.167 0.000251055C125 0.000251055 142.917 0.000251055 160.75 0.000251055C178.625 0.000251055 196.375 0.000251055 214.25 0.000251055C232.083 0.000251055 250 0.000251055 267.833 0.000251055C285.708 0.000251055 303.458 0.000251055 321.333 0.000251055C339.167 0.000251055 357.083 0.000251055 366.042 0.000251055H375V72.5002Z" fill="#646464"/>
<path d="M375 40.8336L366.042 42.167C357.083 43.4586 339.167 46.1253 321.333 45.417C303.458 44.7086 285.708 40.7086 267.833 39.5836C250 38.4586 232.083 40.292 214.25 40.7503C196.375 41.2503 178.625 40.417 160.75 43.1253C142.917 45.8336 125 52.0836 107.167 54.5836C89.2917 57.0836 71.5417 55.8336 53.6667 52.7086C35.8333 49.5836 17.9167 44.5836 8.95834 42.0836L8.9407e-06 39.5836V0.000311595H8.95834C17.9167 0.000311595 35.8333 0.000311595 53.6667 0.000311595C71.5417 0.000311595 89.2917 0.000311595 107.167 0.000311595C125 0.000311595 142.917 0.000311595 160.75 0.000311595C178.625 0.000311595 196.375 0.000311595 214.25 0.000311595C232.083 0.000311595 250 0.000311595 267.833 0.000311595C285.708 0.000311595 303.458 0.000311595 321.333 0.000311595C339.167 0.000311595 357.083 0.000311595 366.042 0.000311595H375V40.8336Z" fill="#494949"/>
<path d="M375 37.9167L366.042 37.0001C357.083 36.1251 339.167 34.2917 321.333 32.4167C303.458 30.5417 285.708 28.6251 267.833 29.1667C250 29.7084 232.083 32.7917 214.25 32.7084C196.375 32.6251 178.625 29.4584 160.75 27.4167C142.917 25.4167 125 24.5834 107.167 25.9584C89.2917 27.3751 71.5417 30.9584 53.6667 30.9168C35.8333 30.8334 17.9167 27.0834 8.95834 25.2084L8.9407e-06 23.3334V8.49962e-05H8.95834C17.9167 8.49962e-05 35.8333 8.49962e-05 53.6667 8.49962e-05C71.5417 8.49962e-05 89.2917 8.49962e-05 107.167 8.49962e-05C125 8.49962e-05 142.917 8.49962e-05 160.75 8.49962e-05C178.625 8.49962e-05 196.375 8.49962e-05 214.25 8.49962e-05C232.083 8.49962e-05 250 8.49962e-05 267.833 8.49962e-05C285.708 8.49962e-05 303.458 8.49962e-05 321.333 8.49962e-05C339.167 8.49962e-05 357.083 8.49962e-05 366.042 8.49962e-05H375V37.9167Z" fill="#303030"/>
<path d="M375 21.667L366.042 21.3753C357.083 21.1253 339.167 20.542 321.333 19.792C303.458 19.042 285.708 18.042 267.833 18.9586C250 19.8753 232.083 22.6253 214.25 21.4586C196.375 20.292 178.625 15.1253 160.75 12.6253C142.917 10.1253 125 10.292 107.167 11.7503C89.2917 13.2086 71.5417 15.9586 53.6667 16.9586C35.8333 17.917 17.9167 17.0836 8.95834 16.667L8.9407e-06 16.2503V0.000301562H8.95834C17.9167 0.000301562 35.8333 0.000301562 53.6667 0.000301562C71.5417 0.000301562 89.2917 0.000301562 107.167 0.000301562C125 0.000301562 142.917 0.000301562 160.75 0.000301562C178.625 0.000301562 196.375 0.000301562 214.25 0.000301562C232.083 0.000301562 250 0.000301562 267.833 0.000301562C285.708 0.000301562 303.458 0.000301562 321.333 0.000301562C339.167 0.000301562 357.083 0.000301562 366.042 0.000301562H375V21.667Z" fill="#191919"/>
</svg>
