<svg width="375" height="84" viewBox="0 0 375 84" fill="none" xmlns="http://www.w3.org/2000/svg">
<path d="M0 80L8.95833 81.1667C17.9167 82.375 35.8333 84.7083 53.6667 83.75C71.5417 82.7917 89.2917 78.4583 107.167 73.8333C125 69.1667 142.917 64.1667 160.75 63.875C178.625 63.625 196.375 68.0417 214.25 71.875C232.083 75.7083 250 78.875 267.833 77.5833C285.708 76.25 303.458 70.4167 321.333 70.2917C339.167 70.125 357.083 75.7083 366.042 78.4583L375 81.25V0H366.042C357.083 0 339.167 0 321.333 0C303.458 0 285.708 0 267.833 0C250 0 232.083 0 214.25 0C196.375 0 178.625 0 160.75 0C142.917 0 125 0 107.167 0C89.2917 0 71.5417 0 53.6667 0C35.8333 0 17.9167 0 8.95833 0H0V80Z" fill="#060606"/>
<path d="M0 71.25L8.95833 66.75C17.9167 62.2083 35.8333 53.2083 53.6667 53.3333C71.5417 53.4583 89.2917 62.7917 107.167 64.1667C125 65.5417 142.917 59.0417 160.75 58.75C178.625 58.4583 196.375 64.4583 214.25 64.5833C232.083 64.7083 250 59.0417 267.833 58.9583C285.708 58.875 303.458 64.4583 321.333 66.875C339.167 69.2917 357.083 68.625 366.042 68.25L375 67.9167V0H366.042C357.083 0 339.167 0 321.333 0C303.458 0 285.708 0 267.833 0C250 0 232.083 0 214.25 0C196.375 0 178.625 0 160.75 0C142.917 0 125 0 107.167 0C89.2917 0 71.5417 0 53.6667 0C35.8333 0 17.9167 0 8.95833 0H0V71.25Z" fill="#0C0C0C"/>
<path d="M0 39.5833L8.95833 40.9167C17.9167 42.2083 35.8333 44.875 53.6667 44.1667C71.5417 43.4583 89.2917 39.4583 107.167 38.3333C125 37.2083 142.917 39.0417 160.75 39.5C178.625 40 196.375 39.1667 214.25 41.875C232.083 44.5833 250 50.8333 267.833 53.3333C285.708 55.8333 303.458 54.5833 321.333 51.4583C339.167 48.3333 357.083 43.3333 366.042 40.8333L375 38.3333V0H366.042C357.083 0 339.167 0 321.333 0C303.458 0 285.708 0 267.833 0C250 0 232.083 0 214.25 0C196.375 0 178.625 0 160.75 0C142.917 0 125 0 107.167 0C89.2917 0 71.5417 0 53.6667 0C35.8333 0 17.9167 0 8.95833 0H0V39.5833Z" fill="#111111"/>
<path d="M0 36.6667L8.95833 35.75C17.9167 34.875 35.8333 33.0417 53.6667 31.1667C71.5417 29.2917 89.2917 27.375 107.167 27.9167C125 28.4583 142.917 31.5417 160.75 31.4583C178.625 31.375 196.375 28.2083 214.25 26.1667C232.083 24.1667 250 23.3333 267.833 24.7083C285.708 26.125 303.458 29.7083 321.333 29.6667C339.167 29.5833 357.083 25.8333 366.042 23.9583L375 22.0833V0H366.042C357.083 0 339.167 0 321.333 0C303.458 0 285.708 0 267.833 0C250 0 232.083 0 214.25 0C196.375 0 178.625 0 160.75 0C142.917 0 125 0 107.167 0C89.2917 0 71.5417 0 53.6667 0C35.8333 0 17.9167 0 8.95833 0H0V36.6667Z" fill="#151515"/>
<path d="M0 20.4167L8.95833 20.125C17.9167 19.875 35.8333 19.2917 53.6667 18.5417C71.5417 17.7917 89.2917 16.7917 107.167 17.7083C125 18.625 142.917 21.375 160.75 20.2083C178.625 19.0417 196.375 13.875 214.25 11.375C232.083 8.875 250 9.04167 267.833 10.5C285.708 11.9583 303.458 14.7083 321.333 15.7083C339.167 16.6667 357.083 15.8333 366.042 15.4167L375 15V0H366.042C357.083 0 339.167 0 321.333 0C303.458 0 285.708 0 267.833 0C250 0 232.083 0 214.25 0C196.375 0 178.625 0 160.75 0C142.917 0 125 0 107.167 0C89.2917 0 71.5417 0 53.6667 0C35.8333 0 17.9167 0 8.95833 0H0V20.4167Z" fill="#191919"/>
</svg>
