<svg width="375" height="77" viewBox="0 0 375 77" fill="none" xmlns="http://www.w3.org/2000/svg">
<path d="M0 68.75L8.90625 68.5547C17.8516 68.3594 35.6641 67.9688 53.5156 65.5469C71.3672 63.1641 89.1797 58.7109 107.031 61.0547C124.883 63.3984 142.695 72.5391 160.625 73.3203C178.516 74.1016 196.484 66.5234 214.375 66.6016C232.305 66.6797 250.117 74.3359 267.969 76.1719C285.82 78.0078 303.633 73.9453 321.484 71.9922C339.336 70.0391 357.148 70.1953 366.094 70.2344L375 70.3125V0H366.094C357.148 0 339.336 0 321.484 0C303.633 0 285.82 0 267.969 0C250.117 0 232.305 0 214.375 0C196.484 0 178.516 0 160.625 0C142.695 0 124.883 0 107.031 0C89.1797 0 71.3672 0 53.5156 0C35.6641 0 17.8516 0 8.90625 0H0V68.75Z" fill="#808080"/>
<path d="M0 60.1562L8.90625 57.9297C17.8516 55.7422 35.6641 51.2891 53.5156 50.8984C71.3672 50.5078 89.1797 54.1797 107.031 58.3984C124.883 62.6172 142.695 67.4609 160.625 69.6094C178.516 71.7578 196.484 71.2109 214.375 68.8281C232.305 66.4062 250.117 62.1094 267.969 59.1016C285.82 56.1328 303.633 54.4141 321.484 54.4141C339.336 54.4141 357.148 56.1328 366.094 56.9531L375 57.8125V0H366.094C357.148 0 339.336 0 321.484 0C303.633 0 285.82 0 267.969 0C250.117 0 232.305 0 214.375 0C196.484 0 178.516 0 160.625 0C142.695 0 124.883 0 107.031 0C89.1797 0 71.3672 0 53.5156 0C35.6641 0 17.8516 0 8.90625 0H0V60.1562Z" fill="#646464"/>
<path d="M0 53.9062L8.90625 51.1719C17.8516 48.4375 35.6641 42.9688 53.5156 39.5703C71.3672 36.2109 89.1797 34.8828 107.031 35.4688C124.883 36.0547 142.695 38.5547 160.625 41.1328C178.516 43.75 196.484 46.4844 214.375 47.1484C232.305 47.7734 250.117 46.3672 267.969 43.6328C285.82 40.8984 303.633 36.8359 321.484 38.2812C339.336 39.7266 357.148 46.6016 366.094 50.0781L375 53.5156V0H366.094C357.148 0 339.336 0 321.484 0C303.633 0 285.82 0 267.969 0C250.117 0 232.305 0 214.375 0C196.484 0 178.516 0 160.625 0C142.695 0 124.883 0 107.031 0C89.1797 0 71.3672 0 53.5156 0C35.6641 0 17.8516 0 8.90625 0H0V53.9062Z" fill="#494949"/>
<path d="M0 31.6406L8.90625 30.5859C17.8516 29.5703 35.6641 27.4609 53.5156 26.6406C71.3672 25.7812 89.1797 26.1719 107.031 26.6406C124.883 27.0703 142.695 27.6172 160.625 28.9062C178.516 30.1953 196.484 32.3047 214.375 32.1484C232.305 32.0312 250.117 29.6875 267.969 27.9297C285.82 26.1719 303.633 25 321.484 23.9062C339.336 22.7734 357.148 21.7578 366.094 21.2109L375 20.7031V0H366.094C357.148 0 339.336 0 321.484 0C303.633 0 285.82 0 267.969 0C250.117 0 232.305 0 214.375 0C196.484 0 178.516 0 160.625 0C142.695 0 124.883 0 107.031 0C89.1797 0 71.3672 0 53.5156 0C35.6641 0 17.8516 0 8.90625 0H0V31.6406Z" fill="#303030"/>
<path d="M0 21.875L8.90625 22.1875C17.8516 22.5391 35.6641 23.1641 53.5156 22.7734C71.3672 22.3828 89.1797 20.9766 107.031 19.7266C124.883 18.4766 142.695 17.4609 160.625 17.6563C178.516 17.8516 196.484 19.2578 214.375 20.5859C232.305 21.875 250.117 23.0469 267.969 23.5547C285.82 24.1016 303.633 23.9453 321.484 21.4062C339.336 18.8672 357.148 13.9453 366.094 11.4453L375 8.98438V0H366.094C357.148 0 339.336 0 321.484 0C303.633 0 285.82 0 267.969 0C250.117 0 232.305 0 214.375 0C196.484 0 178.516 0 160.625 0C142.695 0 124.883 0 107.031 0C89.1797 0 71.3672 0 53.5156 0C35.6641 0 17.8516 0 8.90625 0H0V21.875Z" fill="#191919"/>
</svg>
