<svg width="960" height="29" viewBox="0 0 960 29" fill="none" xmlns="http://www.w3.org/2000/svg">
<path d="M0 29L32 28.7C64 28.3 128 27.7 192 27.3C256 27 320 27 384 26.3C448 25.7 512 24.3 576 24.3C640 24.3 704 25.7 768 26C832 26.3 896 25.7 928 25.3L960 25V0H928C896 0 832 0 768 0C704 0 640 0 576 0C512 0 448 0 384 0C320 0 256 0 192 0C128 0 64 0 32 0H0V29Z" fill="#808080"/>
<path d="M0 20L32 20.3C64 20.7 128 21.3 192 21.7C256 22 320 22 384 21.8C448 21.7 512 21.3 576 21.7C640 22 704 23 768 22.7C832 22.3 896 20.7 928 19.8L960 19V0H928C896 0 832 0 768 0C704 0 640 0 576 0C512 0 448 0 384 0C320 0 256 0 192 0C128 0 64 0 32 0H0V20Z" fill="#646464"/>
<path d="M0 18L32 17.8C64 17.7 128 17.3 192 17C256 16.7 320 16.3 384 16.3C448 16.3 512 16.7 576 17C640 17.3 704 17.7 768 17.5C832 17.3 896 16.7 928 16.3L960 16V0H928C896 0 832 0 768 0C704 0 640 0 576 0C512 0 448 0 384 0C320 0 256 0 192 0C128 0 64 0 32 0H0V18Z" fill="#494949"/>
<path d="M0 11L32 11.5C64 12 128 13 192 13.2C256 13.3 320 12.7 384 12.3C448 12 512 12 576 12.2C640 12.3 704 12.7 768 12.8C832 13 896 13 928 13H960V0H928C896 0 832 0 768 0C704 0 640 0 576 0C512 0 448 0 384 0C320 0 256 0 192 0C128 0 64 0 32 0H0V11Z" fill="#303030"/>
<path d="M0 8H32C64 8 128 8 192 7.8C256 7.7 320 7.3 384 7.3C448 7.3 512 7.7 576 7.8C640 8 704 8 768 8.2C832 8.3 896 8.7 928 8.8L960 9V0H928C896 0 832 0 768 0C704 0 640 0 576 0C512 0 448 0 384 0C320 0 256 0 192 0C128 0 64 0 32 0H0V8Z" fill="#191919"/>
</svg>
