<svg width="960" height="32" viewBox="0 0 960 32" fill="none" xmlns="http://www.w3.org/2000/svg">
<path d="M0 0L32 0.299988C64 0.699988 128 1.30001 192 1.70001C256 2.00001 320 2.00001 384 2.70001C448 3.30001 512 4.70001 576 4.70001C640 4.70001 704 3.3 768 3C832 2.7 896 3.30001 928 3.70001L960 4V32H928C896 32 832 32 768 32C704 32 640 32 576 32C512 32 448 32 384 32C320 32 256 32 192 32C128 32 64 32 32 32H0V0Z" fill="#060606"/>
<path d="M0 9.00002L32 8.70003C64 8.30003 128 7.7 192 7.3C256 7 320 7.00003 384 7.20003C448 7.30003 512 7.7 576 7.3C640 7 704 6 768 6.3C832 6.7 896 8.30003 928 9.20003L960 10V32H928C896 32 832 32 768 32C704 32 640 32 576 32C512 32 448 32 384 32C320 32 256 32 192 32C128 32 64 32 32 32H0V9.00002Z" fill="#0C0C0C"/>
<path d="M0 11L32 11.2C64 11.3 128 11.7 192 12C256 12.3 320 12.7 384 12.7C448 12.7 512 12.3 576 12C640 11.7 704 11.3 768 11.5C832 11.7 896 12.3 928 12.7L960 13V32H928C896 32 832 32 768 32C704 32 640 32 576 32C512 32 448 32 384 32C320 32 256 32 192 32C128 32 64 32 32 32H0V11Z" fill="#111111"/>
<path d="M0 18L32 17.5C64 17 128 16 192 15.8C256 15.7 320 16.3 384 16.7C448 17 512 17 576 16.8C640 16.7 704 16.3 768 16.2C832 16 896 16 928 16H960V32H928C896 32 832 32 768 32C704 32 640 32 576 32C512 32 448 32 384 32C320 32 256 32 192 32C128 32 64 32 32 32H0V18Z" fill="#151515"/>
<path d="M0 21H32C64 21 128 21 192 21.2C256 21.3 320 21.7 384 21.7C448 21.7 512 21.3 576 21.2C640 21 704 21 768 20.8C832 20.7 896 20.3 928 20.2L960 20V32H928C896 32 832 32 768 32C704 32 640 32 576 32C512 32 448 32 384 32C320 32 256 32 192 32C128 32 64 32 32 32H0V21Z" fill="#191919"/>
</svg>
