<svg width="834" height="70" viewBox="0 0 834 70" fill="none" xmlns="http://www.w3.org/2000/svg">
<path d="M834 60.8127L814.193 62.1159C794.298 63.419 754.683 66.0252 714.981 64.7221C675.279 63.419 635.664 58.2065 595.963 56.0346C556.261 53.8627 516.646 54.7315 476.77 56.7296C436.981 58.8146 397.019 61.9421 357.23 63.419C317.354 64.8959 277.739 64.5484 238.038 64.114C198.336 63.6796 158.721 63.1584 119.019 64.0271C79.3169 64.8959 39.7019 67.1546 19.8075 68.3709L2.28882e-05 69.5002V0.000250816H19.8075C39.7019 0.000250816 79.3169 0.000250816 119.019 0.000250816C158.721 0.000250816 198.336 0.000250816 238.038 0.000250816C277.739 0.000250816 317.354 0.000250816 357.23 0.000250816C397.019 0.000250816 436.981 0.000250816 476.77 0.000250816C516.646 0.000250816 556.261 0.000250816 595.963 0.000250816C635.664 0.000250816 675.279 0.000250816 714.981 0.000250816C754.683 0.000250816 794.298 0.000250816 814.193 0.000250816H834V60.8127Z" fill="#808080"/>
<path d="M834 52.9938L814.193 51.4301C794.298 49.7794 754.683 46.6519 714.981 45.6094C675.279 44.5669 635.664 45.7832 595.963 46.9125C556.261 48.0419 516.646 49.2582 476.77 48.9107C436.981 48.65 397.019 46.9126 357.23 47.5207C317.354 48.0419 277.739 50.9957 238.038 51.0825C198.336 51.2563 158.721 48.65 119.019 49.345C79.3169 50.1269 39.7019 54.1232 19.8075 56.2082L2.28882e-05 58.2063V5.04255e-05H19.8075C39.7019 5.04255e-05 79.3169 5.04255e-05 119.019 5.04255e-05C158.721 5.04255e-05 198.336 5.04255e-05 238.038 5.04255e-05C277.739 5.04255e-05 317.354 5.04255e-05 357.23 5.04255e-05C397.019 5.04255e-05 436.981 5.04255e-05 476.77 5.04255e-05C516.646 5.04255e-05 556.261 5.04255e-05 595.963 5.04255e-05C635.664 5.04255e-05 675.279 5.04255e-05 714.981 5.04255e-05C754.683 5.04255e-05 794.298 5.04255e-05 814.193 5.04255e-05H834V52.9938Z" fill="#646464"/>
<path d="M834 45.1752L814.193 44.0458C794.298 42.8296 754.683 40.5708 714.981 38.4858C675.279 36.4877 635.664 34.7502 595.963 36.2271C556.261 37.6171 516.646 42.3083 476.77 44.4802C436.981 46.6521 397.019 46.3046 357.23 46.2177C317.354 46.0439 277.739 46.0439 238.038 44.7408C198.336 43.4377 158.721 40.8314 119.019 40.6577C79.3169 40.5708 39.7019 42.8296 19.8075 44.0458L2.28882e-05 45.1752V0.000189168H19.8075C39.7019 0.000189168 79.3169 0.000189168 119.019 0.000189168C158.721 0.000189168 198.336 0.000189168 238.038 0.000189168C277.739 0.000189168 317.354 0.000189168 357.23 0.000189168C397.019 0.000189168 436.981 0.000189168 476.77 0.000189168C516.646 0.000189168 556.261 0.000189168 595.963 0.000189168C635.664 0.000189168 675.279 0.000189168 714.981 0.000189168C754.683 0.000189168 794.298 0.000189168 814.193 0.000189168H834V45.1752Z" fill="#494949"/>
<path d="M834 31.2753L814.193 31.4491C794.298 31.5359 754.683 31.8834 714.981 31.1015C675.279 30.4065 635.664 28.669 595.963 27.6265C556.261 26.6709 516.646 26.3234 476.77 26.4972C436.981 26.6709 397.019 27.1922 357.23 27.8003C317.354 28.4084 277.739 28.9297 238.038 29.9722C198.336 31.0147 158.721 32.4047 119.019 30.6672C79.3169 28.9297 39.7019 24.0647 19.8075 21.5453L2.28882e-05 19.1128V0.000293836L19.8075 0.000293836C39.7019 0.000293836 79.3169 0.000293836 119.019 0.000293836C158.721 0.000293836 198.336 0.000293836 238.038 0.000293836C277.739 0.000293836 317.354 0.000293836 357.23 0.000293836C397.019 0.000293836 436.981 0.000293836 476.77 0.000293836C516.646 0.000293836 556.261 0.000293836 595.963 0.000293836C635.664 0.000293836 675.279 0.000293836 714.981 0.000293836C754.683 0.000293836 794.298 0.000293836 814.193 0.000293836L834 0.000293836V31.2753Z" fill="#303030"/>
<path d="M834 15.6375L814.193 16.5063C794.298 17.375 754.683 19.1125 714.981 17.9832C675.279 16.7669 635.664 12.7707 595.963 11.0332C556.261 9.29567 516.646 9.81691 476.77 10.8594C436.981 11.9019 397.019 13.2919 357.23 15.2032C317.354 17.1144 277.739 19.3732 238.038 19.7207C198.336 19.9813 158.721 18.2438 119.019 16.7669C79.3169 15.3769 39.7019 14.1607 19.8075 13.6394L2.28882e-05 13.0313V3.19059e-05L19.8075 3.19059e-05C39.7019 3.19059e-05 79.3169 3.19059e-05 119.019 3.19059e-05C158.721 3.19059e-05 198.336 3.19059e-05 238.038 3.19059e-05C277.739 3.19059e-05 317.354 3.19059e-05 357.23 3.19059e-05C397.019 3.19059e-05 436.981 3.19059e-05 476.77 3.19059e-05C516.646 3.19059e-05 556.261 3.19059e-05 595.963 3.19059e-05C635.664 3.19059e-05 675.279 3.19059e-05 714.981 3.19059e-05C754.683 3.19059e-05 794.298 3.19059e-05 814.193 3.19059e-05L834 3.19059e-05V15.6375Z" fill="#191919"/>
</svg>
