<svg width="834" height="70" viewBox="0 0 834 70" fill="none" xmlns="http://www.w3.org/2000/svg">
<path d="M0 9.02075L19.8075 7.71763C39.7019 6.4145 79.3169 3.80825 119.019 5.11138C158.721 6.4145 198.336 11.627 238.037 13.7989C277.739 15.9708 317.354 15.102 357.23 13.1039C397.019 11.0189 436.981 7.89138 476.77 6.4145C516.646 4.93763 556.261 5.28514 595.962 5.71951C635.664 6.15389 675.279 6.67512 714.981 5.80637C754.683 4.93762 794.298 2.67887 814.192 1.46262L834 0.333252V69.8332H814.192C794.298 69.8332 754.683 69.8332 714.981 69.8332C675.279 69.8332 635.664 69.8332 595.962 69.8332C556.261 69.8332 516.646 69.8332 476.77 69.8332C436.981 69.8332 397.019 69.8332 357.23 69.8332C317.354 69.8332 277.739 69.8332 238.037 69.8332C198.336 69.8332 158.721 69.8332 119.019 69.8332C79.3169 69.8332 39.7019 69.8332 19.8075 69.8332H0V9.02075Z" fill="#808080"/>
<path d="M0 16.8397L19.8075 18.4034C39.7019 20.0541 79.3169 23.1816 119.019 24.2241C158.721 25.2666 198.336 24.0503 238.037 22.9209C277.739 21.7916 317.354 20.5753 357.23 20.9228C397.019 21.1835 436.981 22.9209 476.77 22.3128C516.646 21.7916 556.261 18.8378 595.962 18.751C635.664 18.5772 675.279 21.1835 714.981 20.4885C754.683 19.7066 794.298 15.7103 814.192 13.6253L834 11.6272V69.8334H814.192C794.298 69.8334 754.683 69.8334 714.981 69.8334C675.279 69.8334 635.664 69.8334 595.962 69.8334C556.261 69.8334 516.646 69.8334 476.77 69.8334C436.981 69.8334 397.019 69.8334 357.23 69.8334C317.354 69.8334 277.739 69.8334 238.037 69.8334C198.336 69.8334 158.721 69.8334 119.019 69.8334C79.3169 69.8334 39.7019 69.8334 19.8075 69.8334H0V16.8397Z" fill="#646464"/>
<path d="M0 24.6583L19.8075 25.7877C39.7019 27.0039 79.3169 29.2627 119.019 31.3477C158.721 33.3458 198.336 35.0833 238.037 33.6064C277.739 32.2164 317.354 27.5252 357.23 25.3533C397.019 23.1814 436.981 23.5289 476.77 23.6158C516.646 23.7895 556.261 23.7896 595.962 25.0927C635.664 26.3958 675.279 29.0021 714.981 29.1758C754.683 29.2627 794.298 27.0039 814.192 25.7877L834 24.6583V69.8333H814.192C794.298 69.8333 754.683 69.8333 714.981 69.8333C675.279 69.8333 635.664 69.8333 595.962 69.8333C556.261 69.8333 516.646 69.8333 476.77 69.8333C436.981 69.8333 397.019 69.8333 357.23 69.8333C317.354 69.8333 277.739 69.8333 238.037 69.8333C198.336 69.8333 158.721 69.8333 119.019 69.8333C79.3169 69.8333 39.7019 69.8333 19.8075 69.8333H0V24.6583Z" fill="#494949"/>
<path d="M0 38.5582L19.8075 38.3844C39.7019 38.2976 79.3169 37.9501 119.019 38.732C158.721 39.427 198.336 41.1645 238.037 42.207C277.739 43.1626 317.354 43.5101 357.23 43.3363C397.019 43.1626 436.981 42.6413 476.77 42.0332C516.646 41.4251 556.261 40.9038 595.962 39.8613C635.664 38.8188 675.279 37.4288 714.981 39.1663C754.683 40.9038 794.298 45.7688 814.192 48.2882L834 50.7207V69.8332H814.192C794.298 69.8332 754.683 69.8332 714.981 69.8332C675.279 69.8332 635.664 69.8332 595.962 69.8332C556.261 69.8332 516.646 69.8332 476.77 69.8332C436.981 69.8332 397.019 69.8332 357.23 69.8332C317.354 69.8332 277.739 69.8332 238.037 69.8332C198.336 69.8332 158.721 69.8332 119.019 69.8332C79.3169 69.8332 39.7019 69.8332 19.8075 69.8332H0V38.5582Z" fill="#303030"/>
<path d="M0 54.196L19.8075 53.3272C39.7019 52.4585 79.3169 50.721 119.019 51.8503C158.721 53.0666 198.336 57.0628 238.037 58.8003C277.739 60.5378 317.354 60.0166 357.23 58.9741C397.019 57.9316 436.981 56.5416 476.77 54.6303C516.646 52.7191 556.261 50.4603 595.962 50.1128C635.664 49.8522 675.279 51.5897 714.981 53.0666C754.683 54.4566 794.298 55.6728 814.192 56.1941L834 56.8022V69.8335H814.192C794.298 69.8335 754.683 69.8335 714.981 69.8335C675.279 69.8335 635.664 69.8335 595.962 69.8335C556.261 69.8335 516.646 69.8335 476.77 69.8335C436.981 69.8335 397.019 69.8335 357.23 69.8335C317.354 69.8335 277.739 69.8335 238.037 69.8335C198.336 69.8335 158.721 69.8335 119.019 69.8335C79.3169 69.8335 39.7019 69.8335 19.8075 69.8335H0V54.196Z" fill="#191919"/>
</svg>
