<svg width="834" height="70" viewBox="0 0 834 70" fill="none" xmlns="http://www.w3.org/2000/svg">
<path d="M0 8.6875L19.8075 7.38437C39.7019 6.08125 79.3169 3.475 119.019 4.77812C158.721 6.08125 198.336 11.2937 238.037 13.4656C277.739 15.6375 317.354 14.7688 357.23 12.7706C397.019 10.6856 436.981 7.55812 476.77 6.08125C516.646 4.60437 556.261 4.95189 595.962 5.38626C635.664 5.82064 675.279 6.34186 714.981 5.47311C754.683 4.60436 794.298 2.34561 814.192 1.12936L834 0V69.5H814.192C794.298 69.5 754.683 69.5 714.981 69.5C675.279 69.5 635.664 69.5 595.962 69.5C556.261 69.5 516.646 69.5 476.77 69.5C436.981 69.5 397.019 69.5 357.23 69.5C317.354 69.5 277.739 69.5 238.037 69.5C198.336 69.5 158.721 69.5 119.019 69.5C79.3169 69.5 39.7019 69.5 19.8075 69.5H0V8.6875Z" fill="#060606"/>
<path d="M0 16.5064L19.8075 18.0702C39.7019 19.7208 79.3169 22.8483 119.019 23.8908C158.721 24.9333 198.336 23.7171 238.037 22.5877C277.739 21.4583 317.354 20.2421 357.23 20.5896C397.019 20.8502 436.981 22.5877 476.77 21.9796C516.646 21.4583 556.261 18.5046 595.962 18.4177C635.664 18.244 675.279 20.8502 714.981 20.1552C754.683 19.3733 794.298 15.3771 814.192 13.2921L834 11.2939V69.5002H814.192C794.298 69.5002 754.683 69.5002 714.981 69.5002C675.279 69.5002 635.664 69.5002 595.962 69.5002C556.261 69.5002 516.646 69.5002 476.77 69.5002C436.981 69.5002 397.019 69.5002 357.23 69.5002C317.354 69.5002 277.739 69.5002 238.037 69.5002C198.336 69.5002 158.721 69.5002 119.019 69.5002C79.3169 69.5002 39.7019 69.5002 19.8075 69.5002H0V16.5064Z" fill="#0C0C0C"/>
<path d="M0 24.3252L19.8075 25.4545C39.7019 26.6708 79.3169 28.9296 119.019 31.0146C158.721 33.0127 198.336 34.7502 238.037 33.2733C277.739 31.8833 317.354 27.192 357.23 25.0202C397.019 22.8483 436.981 23.1958 476.77 23.2827C516.646 23.4564 556.261 23.4564 595.962 24.7596C635.664 26.0627 675.279 28.6689 714.981 28.8427C754.683 28.9296 794.298 26.6708 814.192 25.4545L834 24.3252V69.5002H814.192C794.298 69.5002 754.683 69.5002 714.981 69.5002C675.279 69.5002 635.664 69.5002 595.962 69.5002C556.261 69.5002 516.646 69.5002 476.77 69.5002C436.981 69.5002 397.019 69.5002 357.23 69.5002C317.354 69.5002 277.739 69.5002 238.037 69.5002C198.336 69.5002 158.721 69.5002 119.019 69.5002C79.3169 69.5002 39.7019 69.5002 19.8075 69.5002H0V24.3252Z" fill="#111111"/>
<path d="M0 38.2251L19.8075 38.0513C39.7019 37.9644 79.3169 37.617 119.019 38.3988C158.721 39.0938 198.336 40.8313 238.037 41.8738C277.739 42.8295 317.354 43.1769 357.23 43.0032C397.019 42.8294 436.981 42.3082 476.77 41.7001C516.646 41.0919 556.261 40.5707 595.962 39.5282C635.664 38.4857 675.279 37.0957 714.981 38.8332C754.683 40.5707 794.298 45.4357 814.192 47.9551L834 50.3876V69.5001H814.192C794.298 69.5001 754.683 69.5001 714.981 69.5001C675.279 69.5001 635.664 69.5001 595.962 69.5001C556.261 69.5001 516.646 69.5001 476.77 69.5001C436.981 69.5001 397.019 69.5001 357.23 69.5001C317.354 69.5001 277.739 69.5001 238.037 69.5001C198.336 69.5001 158.721 69.5001 119.019 69.5001C79.3169 69.5001 39.7019 69.5001 19.8075 69.5001H0V38.2251Z" fill="#151515"/>
<path d="M0 53.8626L19.8075 52.9938C39.7019 52.1251 79.3169 50.3876 119.019 51.517C158.721 52.7332 198.336 56.7295 238.037 58.467C277.739 60.2045 317.354 59.6832 357.23 58.6407C397.019 57.5982 436.981 56.2082 476.77 54.297C516.646 52.3857 556.261 50.127 595.962 49.7795C635.664 49.5188 675.279 51.2564 714.981 52.7332C754.683 54.1232 794.298 55.3395 814.192 55.8607L834 56.4688V69.5001H814.192C794.298 69.5001 754.683 69.5001 714.981 69.5001C675.279 69.5001 635.664 69.5001 595.962 69.5001C556.261 69.5001 516.646 69.5001 476.77 69.5001C436.981 69.5001 397.019 69.5001 357.23 69.5001C317.354 69.5001 277.739 69.5001 238.037 69.5001C198.336 69.5001 158.721 69.5001 119.019 69.5001C79.3169 69.5001 39.7019 69.5001 19.8075 69.5001H0V53.8626Z" fill="#191919"/>
</svg>
