<svg width="834" height="67" viewBox="0 0 834 67" fill="none" xmlns="http://www.w3.org/2000/svg">
<path d="M0 58.2062L19.8075 59.5094C39.7019 60.8125 79.3169 63.4187 119.019 62.1156C158.721 60.8125 198.336 55.6 238.037 53.4281C277.739 51.2562 317.354 52.125 357.23 54.1231C397.019 56.2081 436.981 59.3356 476.77 60.8125C516.646 62.2894 556.261 61.9419 595.962 61.5075C635.664 61.0731 675.279 60.5519 714.981 61.4206C754.683 62.2894 794.298 64.5481 814.192 65.7644L834 66.8937V0H814.192C794.298 0 754.683 0 714.981 0C675.279 0 635.664 0 595.962 0C556.261 0 516.646 0 476.77 0C436.981 0 397.019 0 357.23 0C317.354 0 277.739 0 238.037 0C198.336 0 158.721 0 119.019 0C79.3169 0 39.7019 0 19.8075 0H0V58.2062Z" fill="#060606"/>
<path d="M0 50.3875L19.8075 48.8238C39.7019 47.1731 79.3169 44.0456 119.019 43.0031C158.721 41.9606 198.336 43.1769 238.037 44.3063C277.739 45.4356 317.354 46.6519 357.23 46.3044C397.019 46.0438 436.981 44.3063 476.77 44.9144C516.646 45.4356 556.261 48.3894 595.962 48.4763C635.664 48.65 675.279 46.0438 714.981 46.7388C754.683 47.5206 794.298 51.5169 814.192 53.6019L834 55.6V0H814.192C794.298 0 754.683 0 714.981 0C675.279 0 635.664 0 595.962 0C556.261 0 516.646 0 476.77 0C436.981 0 397.019 0 357.23 0C317.354 0 277.739 0 238.037 0C198.336 0 158.721 0 119.019 0C79.3169 0 39.7019 0 19.8075 0H0V50.3875Z" fill="#0C0C0C"/>
<path d="M0 42.5687L19.8075 41.4394C39.7019 40.2231 79.3169 37.9644 119.019 35.8794C158.721 33.8812 198.336 32.1437 238.037 33.6206C277.739 35.0106 317.354 39.7019 357.23 41.8737C397.019 44.0456 436.981 43.6981 476.77 43.6112C516.646 43.4375 556.261 43.4375 595.962 42.1344C635.664 40.8312 675.279 38.225 714.981 38.0512C754.683 37.9644 794.298 40.2231 814.192 41.4394L834 42.5687V0H814.192C794.298 0 754.683 0 714.981 0C675.279 0 635.664 0 595.962 0C556.261 0 516.646 0 476.77 0C436.981 0 397.019 0 357.23 0C317.354 0 277.739 0 238.037 0C198.336 0 158.721 0 119.019 0C79.3169 0 39.7019 0 19.8075 0H0V42.5687Z" fill="#111111"/>
<path d="M0 28.6687L19.8075 28.8425C39.7019 28.9294 79.3169 29.2769 119.019 28.495C158.721 27.8 198.336 26.0625 238.037 25.02C277.739 24.0644 317.354 23.7169 357.23 23.8906C397.019 24.0644 436.981 24.5856 476.77 25.1937C516.646 25.8019 556.261 26.3231 595.962 27.3656C635.664 28.4081 675.279 29.7981 714.981 28.0606C754.683 26.3231 794.298 21.4581 814.192 18.9387L834 16.5062V0H814.192C794.298 0 754.683 0 714.981 0C675.279 0 635.664 0 595.962 0C556.261 0 516.646 0 476.77 0C436.981 0 397.019 0 357.23 0C317.354 0 277.739 0 238.037 0C198.336 0 158.721 0 119.019 0C79.3169 0 39.7019 0 19.8075 0H0V28.6687Z" fill="#151515"/>
<path d="M0 13.0312L19.8075 13.9C39.7019 14.7687 79.3169 16.5062 119.019 15.3769C158.721 14.1606 198.336 10.1644 238.037 8.42687C277.739 6.68937 317.354 7.21062 357.23 8.25312C397.019 9.29562 436.981 10.6856 476.77 12.5969C516.646 14.5081 556.261 16.7669 595.962 17.1144C635.664 17.375 675.279 15.6375 714.981 14.1606C754.683 12.7706 794.298 11.5544 814.192 11.0331L834 10.425V0H814.192C794.298 0 754.683 0 714.981 0C675.279 0 635.664 0 595.962 0C556.261 0 516.646 0 476.77 0C436.981 0 397.019 0 357.23 0C317.354 0 277.739 0 238.037 0C198.336 0 158.721 0 119.019 0C79.3169 0 39.7019 0 19.8075 0H0V13.0312Z" fill="#191919"/>
</svg>
