<svg width="375" height="86" viewBox="0 0 375 86" fill="none" xmlns="http://www.w3.org/2000/svg">
<path d="M0 4.38481L8.95833 3.21815C17.9167 2.00981 35.8333 -0.323524 53.6667 0.634809C71.5417 1.59314 89.2917 5.92647 107.167 10.5515C125 15.2181 142.917 20.2181 160.75 20.5098C178.625 20.7598 196.375 16.3431 214.25 12.5098C232.083 8.67648 250 5.5098 267.833 6.80147C285.708 8.1348 303.458 13.9681 321.333 14.0931C339.167 14.2598 357.083 8.67648 366.042 5.92648L375 3.13481V85.6348H366.042C357.083 85.6348 339.167 85.6348 321.333 85.6348C303.458 85.6348 285.708 85.6348 267.833 85.6348C250 85.6348 232.083 85.6348 214.25 85.6348C196.375 85.6348 178.625 85.6348 160.75 85.6348C142.917 85.6348 125 85.6348 107.167 85.6348C89.2917 85.6348 71.5417 85.6348 53.6667 85.6348C35.8333 85.6348 17.9167 85.6348 8.95833 85.6348H0V4.38481Z" fill="#060606"/>
<path d="M0 13.1349L8.95833 17.6349C17.9167 22.1765 35.8333 31.1766 53.6667 31.0516C71.5417 30.9266 89.2917 21.5932 107.167 20.2182C125 18.8432 142.917 25.3432 160.75 25.6349C178.625 25.9266 196.375 19.9266 214.25 19.8016C232.083 19.6766 250 25.3432 267.833 25.4266C285.708 25.5099 303.458 19.9266 321.333 17.5099C339.167 15.0932 357.083 15.7599 366.042 16.1349L375 16.4682V85.6349H366.042C357.083 85.6349 339.167 85.6349 321.333 85.6349C303.458 85.6349 285.708 85.6349 267.833 85.6349C250 85.6349 232.083 85.6349 214.25 85.6349C196.375 85.6349 178.625 85.6349 160.75 85.6349C142.917 85.6349 125 85.6349 107.167 85.6349C89.2917 85.6349 71.5417 85.6349 53.6667 85.6349C35.8333 85.6349 17.9167 85.6349 8.95833 85.6349H0V13.1349Z" fill="#0C0C0C"/>
<path d="M0 44.8015L8.95833 43.4682C17.9167 42.1765 35.8333 39.5098 53.6667 40.2182C71.5417 40.9265 89.2917 44.9265 107.167 46.0515C125 47.1765 142.917 45.3432 160.75 44.8848C178.625 44.3848 196.375 45.2182 214.25 42.5098C232.083 39.8015 250 33.5515 267.833 31.0515C285.708 28.5515 303.458 29.8015 321.333 32.9265C339.167 36.0515 357.083 41.0515 366.042 43.5515L375 46.0515V85.6348H366.042C357.083 85.6348 339.167 85.6348 321.333 85.6348C303.458 85.6348 285.708 85.6348 267.833 85.6348C250 85.6348 232.083 85.6348 214.25 85.6348C196.375 85.6348 178.625 85.6348 160.75 85.6348C142.917 85.6348 125 85.6348 107.167 85.6348C89.2917 85.6348 71.5417 85.6348 53.6667 85.6348C35.8333 85.6348 17.9167 85.6348 8.95833 85.6348H0V44.8015Z" fill="#111111"/>
<path d="M0 47.7181L8.95833 48.6348C17.9167 49.5098 35.8333 51.3431 53.6667 53.2181C71.5417 55.0931 89.2917 57.0098 107.167 56.4681C125 55.9265 142.917 52.8431 160.75 52.9265C178.625 53.0098 196.375 56.1765 214.25 58.2181C232.083 60.2181 250 61.0515 267.833 59.6765C285.708 58.2598 303.458 54.6765 321.333 54.7181C339.167 54.8015 357.083 58.5515 366.042 60.4265L375 62.3015V85.6348H366.042C357.083 85.6348 339.167 85.6348 321.333 85.6348C303.458 85.6348 285.708 85.6348 267.833 85.6348C250 85.6348 232.083 85.6348 214.25 85.6348C196.375 85.6348 178.625 85.6348 160.75 85.6348C142.917 85.6348 125 85.6348 107.167 85.6348C89.2917 85.6348 71.5417 85.6348 53.6667 85.6348C35.8333 85.6348 17.9167 85.6348 8.95833 85.6348H0V47.7181Z" fill="#151515"/>
<path d="M0 63.968L8.95833 64.2597C17.9167 64.5097 35.8333 65.093 53.6667 65.843C71.5417 66.593 89.2917 67.593 107.167 66.6764C125 65.7597 142.917 63.0097 160.75 64.1764C178.625 65.343 196.375 70.5097 214.25 73.0097C232.083 75.5097 250 75.343 267.833 73.8847C285.708 72.4264 303.458 69.6764 321.333 68.6764C339.167 67.718 357.083 68.5514 366.042 68.968L375 69.3847V85.6347H366.042C357.083 85.6347 339.167 85.6347 321.333 85.6347C303.458 85.6347 285.708 85.6347 267.833 85.6347C250 85.6347 232.083 85.6347 214.25 85.6347C196.375 85.6347 178.625 85.6347 160.75 85.6347C142.917 85.6347 125 85.6347 107.167 85.6347C89.2917 85.6347 71.5417 85.6347 53.6667 85.6347C35.8333 85.6347 17.9167 85.6347 8.95833 85.6347H0V63.968Z" fill="#191919"/>
</svg>
