<svg width="375" height="79" viewBox="0 0 375 79" fill="none" xmlns="http://www.w3.org/2000/svg">
<path d="M0 8.26826L8.90625 8.46357C17.8516 8.65888 35.6641 9.04951 53.5156 11.4714C71.3672 13.8542 89.1797 18.3073 107.031 15.9636C124.883 13.6198 142.695 4.47919 160.625 3.69794C178.516 2.91669 196.484 10.4948 214.375 10.4167C232.305 10.3386 250.117 2.68232 267.969 0.846381C285.82 -0.989556 303.633 3.07295 321.484 5.02607C339.336 6.9792 357.148 6.82295 366.094 6.78389L375 6.70576V78.1901H366.094C357.148 78.1901 339.336 78.1901 321.484 78.1901C303.633 78.1901 285.82 78.1901 267.969 78.1901C250.117 78.1901 232.305 78.1901 214.375 78.1901C196.484 78.1901 178.516 78.1901 160.625 78.1901C142.695 78.1901 124.883 78.1901 107.031 78.1901C89.1797 78.1901 71.3672 78.1901 53.5156 78.1901C35.6641 78.1901 17.8516 78.1901 8.90625 78.1901H0V8.26826Z" fill="#808080"/>
<path d="M0 16.862L8.90625 19.0885C17.8516 21.276 35.6641 25.7292 53.5156 26.1198C71.3672 26.5104 89.1797 22.8385 107.031 18.6198C124.883 14.401 142.695 9.55728 160.625 7.40884C178.516 5.26041 196.484 5.80728 214.375 8.19009C232.305 10.612 250.117 14.9089 267.969 17.9167C285.82 20.8854 303.633 22.6042 321.484 22.6042C339.336 22.6042 357.148 20.8854 366.094 20.0651L375 19.2057V78.1901H366.094C357.148 78.1901 339.336 78.1901 321.484 78.1901C303.633 78.1901 285.82 78.1901 267.969 78.1901C250.117 78.1901 232.305 78.1901 214.375 78.1901C196.484 78.1901 178.516 78.1901 160.625 78.1901C142.695 78.1901 124.883 78.1901 107.031 78.1901C89.1797 78.1901 71.3672 78.1901 53.5156 78.1901C35.6641 78.1901 17.8516 78.1901 8.90625 78.1901H0V16.862Z" fill="#646464"/>
<path d="M0 23.1121L8.90625 25.8464C17.8516 28.5808 35.6641 34.0496 53.5156 37.448C71.3672 40.8074 89.1797 42.1355 107.031 41.5496C124.883 40.9636 142.695 38.4636 160.625 35.8855C178.516 33.2683 196.484 30.5339 214.375 29.8699C232.305 29.2449 250.117 30.6511 267.969 33.3855C285.82 36.1199 303.633 40.1824 321.484 38.7371C339.336 37.2917 357.148 30.4167 366.094 26.9402L375 23.5027V78.1902H366.094C357.148 78.1902 339.336 78.1902 321.484 78.1902C303.633 78.1902 285.82 78.1902 267.969 78.1902C250.117 78.1902 232.305 78.1902 214.375 78.1902C196.484 78.1902 178.516 78.1902 160.625 78.1902C142.695 78.1902 124.883 78.1902 107.031 78.1902C89.1797 78.1902 71.3672 78.1902 53.5156 78.1902C35.6641 78.1902 17.8516 78.1902 8.90625 78.1902H0V23.1121Z" fill="#494949"/>
<path d="M0 45.3776L8.90625 46.4323C17.8516 47.4479 35.6641 49.5573 53.5156 50.3776C71.3672 51.237 89.1797 50.8463 107.031 50.3776C124.883 49.9479 142.695 49.401 160.625 48.112C178.516 46.8229 196.484 44.7135 214.375 44.8698C232.305 44.987 250.117 47.3307 267.969 49.0885C285.82 50.8463 303.633 52.0182 321.484 53.112C339.336 54.2448 357.148 55.2604 366.094 55.8073L375 56.3151V78.1901H366.094C357.148 78.1901 339.336 78.1901 321.484 78.1901C303.633 78.1901 285.82 78.1901 267.969 78.1901C250.117 78.1901 232.305 78.1901 214.375 78.1901C196.484 78.1901 178.516 78.1901 160.625 78.1901C142.695 78.1901 124.883 78.1901 107.031 78.1901C89.1797 78.1901 71.3672 78.1901 53.5156 78.1901C35.6641 78.1901 17.8516 78.1901 8.90625 78.1901H0V45.3776Z" fill="#303030"/>
<path d="M0 55.1433L8.90625 54.8308C17.8516 54.4792 35.6641 53.8542 53.5156 54.2448C71.3672 54.6355 89.1797 56.0417 107.031 57.2917C124.883 58.5417 142.695 59.5573 160.625 59.362C178.516 59.1667 196.484 57.7605 214.375 56.4323C232.305 55.1433 250.117 53.9714 267.969 53.4636C285.82 52.9167 303.633 53.073 321.484 55.612C339.336 58.1511 357.148 63.073 366.094 65.573L375 68.0339V78.1902H366.094C357.148 78.1902 339.336 78.1902 321.484 78.1902C303.633 78.1902 285.82 78.1902 267.969 78.1902C250.117 78.1902 232.305 78.1902 214.375 78.1902C196.484 78.1902 178.516 78.1902 160.625 78.1902C142.695 78.1902 124.883 78.1902 107.031 78.1902C89.1797 78.1902 71.3672 78.1902 53.5156 78.1902C35.6641 78.1902 17.8516 78.1902 8.90625 78.1902H0V55.1433Z" fill="#191919"/>
</svg>
