<svg width="375" height="86" viewBox="0 0 375 86" fill="none" xmlns="http://www.w3.org/2000/svg">
<path d="M0 3.97539L8.95833 2.80872C17.9167 1.60039 35.8333 -0.732948 53.6667 0.225385C71.5417 1.18372 89.2917 5.51705 107.167 10.142C125 14.8087 142.917 19.8087 160.75 20.1004C178.625 20.3504 196.375 15.9337 214.25 12.1004C232.083 8.26705 250 5.10038 267.833 6.39205C285.708 7.72538 303.458 13.5587 321.333 13.6837C339.167 13.8504 357.083 8.26706 366.042 5.51706L375 2.72539V85.2254H366.042C357.083 85.2254 339.167 85.2254 321.333 85.2254C303.458 85.2254 285.708 85.2254 267.833 85.2254C250 85.2254 232.083 85.2254 214.25 85.2254C196.375 85.2254 178.625 85.2254 160.75 85.2254C142.917 85.2254 125 85.2254 107.167 85.2254C89.2917 85.2254 71.5417 85.2254 53.6667 85.2254C35.8333 85.2254 17.9167 85.2254 8.95833 85.2254H0V3.97539Z" fill="#808080"/>
<path d="M0 12.7255L8.95833 17.2255C17.9167 21.7671 35.8333 30.7671 53.6667 30.6421C71.5417 30.5171 89.2917 21.1838 107.167 19.8088C125 18.4338 142.917 24.9338 160.75 25.2255C178.625 25.5171 196.375 19.5171 214.25 19.3921C232.083 19.2671 250 24.9338 267.833 25.0171C285.708 25.1005 303.458 19.5171 321.333 17.1005C339.167 14.6838 357.083 15.3505 366.042 15.7255L375 16.0588V85.2255H366.042C357.083 85.2255 339.167 85.2255 321.333 85.2255C303.458 85.2255 285.708 85.2255 267.833 85.2255C250 85.2255 232.083 85.2255 214.25 85.2255C196.375 85.2255 178.625 85.2255 160.75 85.2255C142.917 85.2255 125 85.2255 107.167 85.2255C89.2917 85.2255 71.5417 85.2255 53.6667 85.2255C35.8333 85.2255 17.9167 85.2255 8.95833 85.2255H0V12.7255Z" fill="#646464"/>
<path d="M0 44.3921L8.95833 43.0587C17.9167 41.7671 35.8333 39.1004 53.6667 39.8087C71.5417 40.5171 89.2917 44.5171 107.167 45.6421C125 46.7671 142.917 44.9337 160.75 44.4754C178.625 43.9754 196.375 44.8087 214.25 42.1004C232.083 39.3921 250 33.1421 267.833 30.6421C285.708 28.1421 303.458 29.3921 321.333 32.5171C339.167 35.6421 357.083 40.6421 366.042 43.1421L375 45.6421V85.2254H366.042C357.083 85.2254 339.167 85.2254 321.333 85.2254C303.458 85.2254 285.708 85.2254 267.833 85.2254C250 85.2254 232.083 85.2254 214.25 85.2254C196.375 85.2254 178.625 85.2254 160.75 85.2254C142.917 85.2254 125 85.2254 107.167 85.2254C89.2917 85.2254 71.5417 85.2254 53.6667 85.2254C35.8333 85.2254 17.9167 85.2254 8.95833 85.2254H0V44.3921Z" fill="#494949"/>
<path d="M0 47.3087L8.95833 48.2254C17.9167 49.1004 35.8333 50.9337 53.6667 52.8087C71.5417 54.6837 89.2917 56.6004 107.167 56.0587C125 55.517 142.917 52.4337 160.75 52.517C178.625 52.6004 196.375 55.7671 214.25 57.8087C232.083 59.8087 250 60.6421 267.833 59.2671C285.708 57.8504 303.458 54.267 321.333 54.3087C339.167 54.392 357.083 58.142 366.042 60.017L375 61.892V85.2254H366.042C357.083 85.2254 339.167 85.2254 321.333 85.2254C303.458 85.2254 285.708 85.2254 267.833 85.2254C250 85.2254 232.083 85.2254 214.25 85.2254C196.375 85.2254 178.625 85.2254 160.75 85.2254C142.917 85.2254 125 85.2254 107.167 85.2254C89.2917 85.2254 71.5417 85.2254 53.6667 85.2254C35.8333 85.2254 17.9167 85.2254 8.95833 85.2254H0V47.3087Z" fill="#303030"/>
<path d="M0 63.5586L8.95833 63.8503C17.9167 64.1003 35.8333 64.6836 53.6667 65.4336C71.5417 66.1836 89.2917 67.1836 107.167 66.267C125 65.3503 142.917 62.6003 160.75 63.767C178.625 64.9336 196.375 70.1003 214.25 72.6003C232.083 75.1003 250 74.9336 267.833 73.4753C285.708 72.0169 303.458 69.2669 321.333 68.2669C339.167 67.3086 357.083 68.142 366.042 68.5586L375 68.9753V85.2253H366.042C357.083 85.2253 339.167 85.2253 321.333 85.2253C303.458 85.2253 285.708 85.2253 267.833 85.2253C250 85.2253 232.083 85.2253 214.25 85.2253C196.375 85.2253 178.625 85.2253 160.75 85.2253C142.917 85.2253 125 85.2253 107.167 85.2253C89.2917 85.2253 71.5417 85.2253 53.6667 85.2253C35.8333 85.2253 17.9167 85.2253 8.95833 85.2253H0V63.5586Z" fill="#191919"/>
</svg>
