<svg width="32" height="32" viewBox="0 0 32 32" fill="none" xmlns="http://www.w3.org/2000/svg">
<path d="M16 0C7.16429 0 0 7.35 0 16.4071C0 23.6571 4.58571 29.8 10.9429 31.9714C11.032 31.9908 11.123 32.0004 11.2143 32C11.8071 32 12.0357 31.5643 12.0357 31.1857C12.0357 30.7928 12.0214 29.7643 12.0143 28.3928C11.485 28.5169 10.9436 28.5816 10.4 28.5857C7.32143 28.5857 6.62143 26.1928 6.62143 26.1928C5.89286 24.3 4.84286 23.7928 4.84286 23.7928C3.45 22.8143 4.83571 22.7857 4.94286 22.7857H4.95C6.55714 22.9286 7.4 24.4857 7.4 24.4857C8.2 25.8857 9.27143 26.2786 10.2286 26.2786C10.8615 26.2659 11.4845 26.1199 12.0571 25.85C12.2 24.7928 12.6143 24.0714 13.0714 23.6571C9.52143 23.2428 5.78571 21.8357 5.78571 15.55C5.78571 13.7571 6.40714 12.2929 7.42857 11.15C7.26429 10.7357 6.71429 9.06428 7.58571 6.80714C7.7026 6.77917 7.82274 6.76716 7.94286 6.77143C8.52143 6.77143 9.82857 6.99285 11.9857 8.49285C14.6068 7.7595 17.3789 7.7595 20 8.49285C22.1571 6.99285 23.4643 6.77143 24.0429 6.77143C24.163 6.76716 24.2831 6.77917 24.4 6.80714C25.2714 9.06428 24.7214 10.7357 24.5571 11.15C25.5786 12.3 26.2 13.7643 26.2 15.55C26.2 21.85 22.4571 23.2357 18.8929 23.6428C19.4643 24.15 19.9786 25.15 19.9786 26.6786C19.9786 28.8714 19.9571 30.6428 19.9571 31.1786C19.9571 31.5643 20.1786 32 20.7714 32C20.8674 32.0004 20.9632 31.9908 21.0571 31.9714C27.4214 29.8 32 23.65 32 16.4071C32 7.35 24.8357 0 16 0Z" fill="#EAEAEA"/>
</svg>
