<svg width="32" height="32" viewBox="0 0 32 32" fill="none" xmlns="http://www.w3.org/2000/svg">
<path d="M28.2816 26.2055C29.9227 24.231 31.0641 21.8902 31.6092 19.3813C32.1544 16.8724 32.0872 14.269 31.4134 11.7915C30.7397 9.31401 29.4791 7.03523 27.7384 5.14795C25.9976 3.26066 23.828 1.82039 21.4129 0.948975C18.9978 0.077559 16.4084 -0.199366 13.8636 0.141626C11.3189 0.482618 8.89371 1.4315 6.79324 2.90799C4.69278 4.38448 2.97882 6.34516 1.79637 8.62414C0.613921 10.9031 -0.00224272 13.4334 6.1338e-06 16.0009C0.000869098 19.7333 1.31615 23.3461 3.71504 26.2055L3.69219 26.2249C3.77218 26.3209 3.8636 26.4032 3.94587 26.498C4.04872 26.6158 4.15956 26.7266 4.26584 26.8409C4.5858 27.1883 4.91491 27.5219 5.26002 27.8351C5.36515 27.931 5.47371 28.0202 5.57998 28.1116C5.94566 28.427 6.32162 28.7264 6.71129 29.0052C6.76157 29.0395 6.80728 29.0841 6.85756 29.1195V29.1058C9.53397 30.9892 12.7268 32 15.9994 32C19.2721 32 22.4649 30.9892 25.1413 29.1058V29.1195C25.1916 29.0841 25.2362 29.0395 25.2876 29.0052C25.6761 28.7252 26.0532 28.427 26.4189 28.1116C26.5252 28.0202 26.6337 27.9299 26.7389 27.8351C27.084 27.5208 27.4131 27.1883 27.7331 26.8409C27.8393 26.7266 27.949 26.6158 28.053 26.498C28.1342 26.4032 28.2267 26.3209 28.3067 26.2238L28.2816 26.2055ZM15.9983 6.85899C17.0154 6.85899 18.0096 7.16058 18.8552 7.72563C19.7009 8.29067 20.36 9.09379 20.7492 10.0334C21.1384 10.9731 21.2402 12.007 21.0418 13.0045C20.8434 14.002 20.3536 14.9183 19.6345 15.6375C18.9153 16.3566 17.999 16.8464 17.0015 17.0448C16.004 17.2432 14.9701 17.1414 14.0304 16.7522C13.0908 16.363 12.2877 15.7039 11.7226 14.8582C11.1576 14.0126 10.856 13.0184 10.856 12.0013C10.856 10.6375 11.3978 9.32951 12.3621 8.36514C13.3265 7.40077 14.6345 6.85899 15.9983 6.85899V6.85899ZM6.86442 26.2055C6.88424 24.7051 7.49401 23.2727 8.56179 22.2184C9.62958 21.1641 11.0695 20.5726 12.5701 20.5718H19.4265C20.9271 20.5726 22.367 21.1641 23.4348 22.2184C24.5026 23.2727 25.1124 24.7051 25.1322 26.2055C22.626 28.4639 19.372 29.7138 15.9983 29.7138C12.6247 29.7138 9.37062 28.4639 6.86442 26.2055V26.2055Z" fill="#FF3D3D"/>
</svg>
