<svg width="158" height="460" viewBox="0 0 158 460" fill="none" xmlns="http://www.w3.org/2000/svg">
<path d="M41.9111 460L39.9689 453.611C37.9756 447.222 34.0911 434.444 30.5644 421.667C27.0889 408.889 24.0222 396.111 25.1978 383.333C26.4244 370.556 31.8422 357.778 30.3089 345C28.7756 332.222 20.2911 319.444 16.4578 306.667C12.6245 293.889 13.4422 281.111 13.4422 268.333C13.4422 255.556 12.6245 242.778 14.1578 230C15.6911 217.222 19.5756 204.444 19.5756 191.667C19.5756 178.889 15.6911 166.111 18.7578 153.333C21.8245 140.556 31.8422 127.778 34.6022 115C37.3111 102.222 32.7111 89.4445 32.7111 76.6667C32.7111 63.8889 37.3111 51.1111 36.1356 38.3333C34.9089 25.5556 27.9578 12.7778 24.4311 6.38889L20.9556 0L3.8147e-06 0V6.38889C3.8147e-06 12.7778 3.8147e-06 25.5556 3.8147e-06 38.3333C3.8147e-06 51.1111 3.8147e-06 63.8889 3.8147e-06 76.6667C3.8147e-06 89.4445 3.8147e-06 102.222 3.8147e-06 115C3.8147e-06 127.778 3.8147e-06 140.556 3.8147e-06 153.333C3.8147e-06 166.111 3.8147e-06 178.889 3.8147e-06 191.667C3.8147e-06 204.444 3.8147e-06 217.222 3.8147e-06 230C3.8147e-06 242.778 3.8147e-06 255.556 3.8147e-06 268.333C3.8147e-06 281.111 3.8147e-06 293.889 3.8147e-06 306.667C3.8147e-06 319.444 3.8147e-06 332.222 3.8147e-06 345C3.8147e-06 357.778 3.8147e-06 370.556 3.8147e-06 383.333C3.8147e-06 396.111 3.8147e-06 408.889 3.8147e-06 421.667C3.8147e-06 434.444 3.8147e-06 447.222 3.8147e-06 453.611V460H41.9111Z" fill="#191919"/>
<path d="M48.5462 460L46.6249 453.611C44.6674 447.222 40.8249 434.444 39.4111 421.667C38.0336 408.889 39.1211 396.111 40.2086 383.333C41.2961 370.556 42.3836 357.778 50.2862 345C58.2251 332.222 72.9427 319.444 72.7252 306.667C72.4715 293.889 57.2463 281.111 50.1775 268.333C43.1087 255.556 44.1962 242.778 51.265 230C58.3338 217.222 71.384 204.444 76.5315 191.667C81.6428 178.889 78.8878 166.111 81.6066 153.333C84.3253 140.556 92.5179 127.778 91.9742 115C91.4304 102.222 82.1503 89.4445 74.7552 76.6667C67.3964 63.8889 61.9589 51.1111 64.6776 38.3333C67.3964 25.5556 78.2715 12.7778 83.7091 6.38889L89.1466 0L10.4833 0L12.9483 6.38889C15.4496 12.7778 20.3797 25.5556 21.2497 38.3333C22.0834 51.1111 18.8209 63.8889 18.8209 76.6667C18.8209 89.4445 22.0834 102.222 20.1622 115C18.2047 127.778 11.0996 140.556 8.92455 153.333C6.74953 166.111 9.50455 178.889 9.50455 191.667C9.50455 204.444 6.74953 217.222 5.66202 230C4.5745 242.778 5.1545 255.556 5.1545 268.333C5.1545 281.111 4.5745 293.889 7.29328 306.667C10.0121 319.444 16.0296 332.222 17.1171 345C18.2046 357.778 14.3621 370.556 13.4921 383.333C12.6583 396.111 14.8334 408.889 17.2984 421.667C19.7997 434.444 22.5547 447.222 23.9685 453.611L25.346 460H48.5462Z" fill="#191919"/>
<path d="M56.948 460L56.1814 453.611C55.4147 447.222 53.8814 434.444 53.1147 421.667C52.348 408.889 52.348 396.111 52.7569 383.333C53.2169 370.556 54.0347 357.778 66.3014 345C78.568 332.222 102.284 319.444 101.057 306.667C99.8814 293.889 73.8147 281.111 60.4236 268.333C47.0836 255.556 46.368 242.778 59.8614 230C73.3036 217.222 100.904 204.444 109.695 191.667C118.435 178.889 108.417 166.111 106.424 153.333C104.481 140.556 110.615 127.778 106.781 115C102.948 102.222 89.148 89.4445 83.4236 76.6667C77.7503 63.8889 80.1014 51.1111 83.9347 38.3333C87.768 25.5556 93.0836 12.7778 95.6903 6.38889L98.348 0L84.0369 0L76.3702 6.38889C68.7036 12.7778 53.3702 25.5556 49.5369 38.3333C45.7036 51.1111 53.3702 63.8889 63.7458 76.6667C74.1725 89.4445 87.2569 102.222 88.0236 115C88.7903 127.778 77.2391 140.556 73.4058 153.333C69.5725 166.111 73.4569 178.889 66.2502 191.667C58.9925 204.444 40.5925 217.222 30.6258 230C20.6591 242.778 19.1258 255.556 29.0925 268.333C39.0591 281.111 60.5258 293.889 60.8836 306.667C61.1902 319.444 40.4391 332.222 29.2458 345C18.1036 357.778 16.5702 370.556 15.0369 383.333C13.5036 396.111 11.9702 408.889 13.9125 421.667C15.9058 434.444 21.3236 447.222 24.0836 453.611L26.7925 460H56.948Z" fill="#1F1F1F"/>
<path d="M98.3404 460L100.232 453.611C102.072 447.222 105.854 434.444 107.694 421.667C109.585 408.889 109.585 396.111 104.32 383.333C99.0049 370.556 88.476 357.778 94.6093 345C100.743 332.222 123.538 319.444 123.896 306.667C124.254 293.889 102.072 281.111 91.3382 268.333C80.6049 255.556 81.3204 242.778 91.5938 230C101.918 217.222 121.852 204.444 130.387 191.667C138.872 178.889 136.009 166.111 134.885 153.333C133.76 140.556 134.476 127.778 129.416 115C124.407 102.222 113.674 89.4445 112.14 76.6667C110.607 63.8889 118.274 51.1111 123.283 38.3333C128.343 25.5556 130.694 12.7778 131.92 6.38889L133.096 0L95.2738 0L92.616 6.38889C90.0093 12.7778 84.6938 25.5556 80.8604 38.3333C77.0271 51.1111 74.676 63.8889 80.3493 76.6667C86.0738 89.4445 99.8738 102.222 103.707 115C107.54 127.778 101.407 140.556 103.349 153.333C105.343 166.111 115.36 178.889 106.62 191.667C97.8293 204.444 70.2293 217.222 56.7871 230C43.2938 242.778 44.0093 255.556 57.3493 268.333C70.7404 281.111 96.8071 293.889 97.9827 306.667C99.2093 319.444 75.4938 332.222 63.2271 345C50.9604 357.778 50.1426 370.556 49.6826 383.333C49.2738 396.111 49.2738 408.889 50.0404 421.667C50.8071 434.444 52.3404 447.222 53.1071 453.611L53.8738 460H98.3404Z" fill="#2A2A2A"/>
<path d="M158 460V453.611C158 447.222 158 434.444 158 421.667C158 408.889 158 396.111 158 383.333C158 370.556 158 357.778 158 345C158 332.222 158 319.444 158 306.667C158 293.889 158 281.111 158 268.333C158 255.556 158 242.778 158 230C158 217.222 158 204.444 158 191.667C158 178.889 158 166.111 158 153.333C158 140.556 158 127.778 158 115C158 102.222 158 89.4445 158 76.6667C158 63.8889 158 51.1111 158 38.3333C158 25.5556 158 12.7778 158 6.38889V0L120.079 0L119.151 6.38889C118.183 12.7778 116.327 25.5556 112.334 38.3333C108.38 51.1111 102.329 63.8889 103.539 76.6667C104.749 89.4445 113.221 102.222 117.174 115C121.168 127.778 120.604 140.556 121.491 153.333C122.379 166.111 124.638 178.889 117.941 191.667C111.204 204.444 95.4708 217.222 87.3218 230C79.2132 242.778 78.6484 255.556 87.1201 268.333C95.5918 281.111 113.1 293.889 112.818 306.667C112.535 319.444 94.5429 332.222 89.702 345C84.861 357.778 93.1713 370.556 97.3668 383.333C101.522 396.111 101.522 408.889 100.029 421.667C98.5771 434.444 95.5918 447.222 94.1395 453.611L92.6469 460H158Z" fill="#3C3C3C"/>
</svg>
