<svg width="62" height="64" viewBox="0 0 62 64" fill="none" xmlns="http://www.w3.org/2000/svg">
<path d="M3.71014 61.5266C3.71014 62.8947 4.81546 64 6.18357 64H28.2899V34.9372H3.71014V61.5266ZM33.5459 64H55.6522C57.0203 64 58.1256 62.8947 58.1256 61.5266V34.9372H33.5459V64ZM59.3623 16.3865H47.9536C49.0048 14.7324 49.6232 12.7691 49.6232 10.6667C49.6232 4.78454 44.8386 0 38.9565 0C35.7565 0 32.8734 1.42222 30.9179 3.66377C28.9623 1.42222 26.0792 0 22.8792 0C16.9971 0 12.2126 4.78454 12.2126 10.6667C12.2126 12.7691 12.8232 14.7324 13.8821 16.3865H2.47343C1.10531 16.3865 0 17.4918 0 18.8599V29.6812H28.2899V16.3865H33.5459V29.6812H61.8357V18.8599C61.8357 17.4918 60.7304 16.3865 59.3623 16.3865ZM28.2899 16.0773H22.8792C19.8957 16.0773 17.4686 13.6502 17.4686 10.6667C17.4686 7.68309 19.8957 5.25604 22.8792 5.25604C25.8628 5.25604 28.2899 7.68309 28.2899 10.6667V16.0773ZM38.9565 16.0773H33.5459V10.6667C33.5459 7.68309 35.9729 5.25604 38.9565 5.25604C41.9401 5.25604 44.3671 7.68309 44.3671 10.6667C44.3671 13.6502 41.9401 16.0773 38.9565 16.0773Z" fill="#EAEAEA"/>
</svg>
