<svg width="375" height="144" viewBox="0 0 375 144" fill="none" xmlns="http://www.w3.org/2000/svg">
<path d="M0 143L5.20833 136.548C10.4167 130.27 20.8333 117.365 31.25 105.855C41.6667 94.1707 52.0833 83.7073 62.5 87.5439C72.9167 91.2061 83.3333 109.343 93.75 104.111C104.167 98.8793 114.583 70.2793 125 57.2C135.417 44.1207 145.833 46.5622 156.25 46.5622C166.667 46.5622 177.083 44.1207 187.5 49.3524C197.917 54.5841 208.333 67.489 218.75 67.489C229.167 67.489 239.583 54.5841 250 65.0476C260.417 75.511 270.833 109.343 281.25 118.237C291.667 127.305 302.083 111.61 312.5 111.61C322.917 111.61 333.333 127.305 343.75 123.468C354.167 119.806 364.583 96.4378 369.792 84.9281L375 73.2439V0H369.792C364.583 0 354.167 0 343.75 0C333.333 0 322.917 0 312.5 0C302.083 0 291.667 0 281.25 0C270.833 0 260.417 0 250 0C239.583 0 229.167 0 218.75 0C208.333 0 197.917 0 187.5 0C177.083 0 166.667 0 156.25 0C145.833 0 135.417 0 125 0C114.583 0 104.167 0 93.75 0C83.3333 0 72.9167 0 62.5 0C52.0833 0 41.6667 0 31.25 0C20.8333 0 10.4167 0 5.20833 0H0V143Z" fill="#191919"/>
<path d="M0 40.7733L5.20833 40.15C10.4167 39.5266 20.8333 38.28 31.25 37.6566C41.6667 37.0333 52.0833 37.0333 62.5 37.3242C72.9167 37.5735 83.3333 38.1553 93.75 48.1286C104.167 58.102 114.583 77.4668 125 76.5942C135.417 75.68 145.833 54.4866 156.25 43.5575C166.667 32.5868 177.083 31.922 187.5 42.768C197.917 53.6555 208.333 76.0955 218.75 83.2846C229.167 90.5153 239.583 82.4535 250 80.9575C260.417 79.42 270.833 84.4066 281.25 81.29C291.667 78.1733 302.083 66.9533 312.5 62.2575C322.917 57.5202 333.333 59.3486 343.75 62.4653C354.167 65.582 364.583 69.9868 369.792 72.2308L375 74.4333V62.3822L369.792 56.1488C364.583 49.9155 354.167 37.4488 343.75 34.3322C333.333 31.2155 322.917 37.4488 312.5 45.8431C302.083 54.1957 291.667 64.7508 281.25 65.3742C270.833 65.9975 260.417 56.6891 250 53.5724C239.583 50.4557 229.167 53.5308 218.75 47.5468C208.333 41.6044 197.917 26.6444 187.5 18.5411C177.083 10.4377 166.667 9.19107 156.25 17.2944C145.833 25.3977 135.417 42.8511 125 43.1835C114.583 43.5575 104.167 26.7691 93.75 17.7931C83.3333 8.77552 72.9167 7.52885 62.5 6.28218C52.0833 5.03552 41.6667 3.78885 31.25 5.3264C20.8333 6.8224 10.4167 11.1442 5.20833 13.2635L0 15.4244V40.7733Z" fill="#1E1E1E"/>
<path d="M0 76.0956L5.20833 77.6747C10.4167 79.2954 20.8333 82.4536 31.25 84.0742C41.6667 85.6534 52.0833 85.6534 62.5 81.29C72.9167 76.9267 83.3333 68.2 93.75 73.1867C104.167 78.1734 114.583 96.8734 125 97.1643C135.417 97.4136 145.833 79.2954 156.25 70.5687C166.667 61.842 177.083 62.5069 187.5 70.9842C197.917 79.42 208.333 95.6267 218.75 102.483C229.167 109.34 239.583 106.847 250 105.891C260.417 104.894 270.833 105.475 281.25 101.361C291.667 97.2889 302.083 88.5622 312.5 87.3156C322.917 86.0689 333.333 92.3022 343.75 96.3747C354.167 100.489 364.583 102.4 369.792 103.398L375 104.353V73.6022L369.792 71.3998C364.583 69.1558 354.167 64.7509 343.75 61.6342C333.333 58.5176 322.917 56.6891 312.5 61.4265C302.083 66.1222 291.667 77.3422 281.25 80.4589C270.833 83.5756 260.417 78.5889 250 80.1265C239.583 81.6225 229.167 89.6842 218.75 82.4536C208.333 75.2645 197.917 52.8245 187.5 41.9369C177.083 31.0909 166.667 31.7558 156.25 42.7265C145.833 53.6556 135.417 74.8489 125 75.7631C114.583 76.6358 104.167 57.2709 93.75 47.2976C83.3333 37.3242 72.9167 36.7425 62.5 36.4931C52.0833 36.2022 41.6667 36.2022 31.25 36.8256C20.8333 37.4489 10.4167 38.6956 5.20833 39.3189L0 39.9422V76.0956Z" fill="#2A2A2A"/>
<path d="M0 143.416H5.20833C10.4167 143.416 20.8333 143.416 31.25 143.416C41.6667 143.416 52.0833 143.416 62.5 143.416C72.9167 143.416 83.3333 143.416 93.75 143.416C104.167 143.416 114.583 143.416 125 143.416C135.417 143.416 145.833 143.416 156.25 143.416C166.667 143.416 177.083 143.416 187.5 143.416C197.917 143.416 208.333 143.416 218.75 143.416C229.167 143.416 239.583 143.416 250 143.416C260.417 143.416 270.833 143.416 281.25 143.416C291.667 143.416 302.083 143.416 312.5 143.416C322.917 143.416 333.333 143.416 343.75 143.416C354.167 143.416 364.583 143.416 369.792 143.416H375V103.522L369.792 102.567C364.583 101.569 354.167 99.6576 343.75 95.5436C333.333 91.4712 322.917 85.2378 312.5 86.4845C302.083 87.7312 291.667 96.4578 281.25 100.53C270.833 104.644 260.417 104.063 250 105.06C239.583 106.016 229.167 108.509 218.75 101.652C208.333 94.7956 197.917 78.589 187.5 70.1532C177.083 61.6758 166.667 61.011 156.25 69.7376C145.833 78.4643 135.417 96.5825 125 96.3332C114.583 96.0423 104.167 77.3423 93.75 72.3556C83.3333 67.369 72.9167 76.0956 62.5 80.459C52.0833 84.8223 41.6667 84.8223 31.25 83.2432C20.8333 81.6225 10.4167 78.4643 5.20833 76.8436L0 75.2645V143.416Z" fill="#3C3C3C"/>
</svg>
