<svg width="42" height="42" viewBox="0 0 42 42" fill="none" xmlns="http://www.w3.org/2000/svg">
<circle cx="21" cy="21" r="21" fill="white"/>
<circle cx="21" cy="20" r="15" fill="#191919"/>
<path d="M21 4C12.1643 4 5 11.35 5 20.4071C5 27.6571 9.58571 33.8 15.9429 35.9714C16.032 35.9908 16.123 36.0004 16.2143 36C16.8071 36 17.0357 35.5643 17.0357 35.1857C17.0357 34.7928 17.0214 33.7643 17.0143 32.3928C16.485 32.5169 15.9436 32.5816 15.4 32.5857C12.3214 32.5857 11.6214 30.1928 11.6214 30.1928C10.8929 28.3 9.84286 27.7928 9.84286 27.7928C8.45 26.8143 9.83571 26.7857 9.94286 26.7857H9.95C11.5571 26.9286 12.4 28.4857 12.4 28.4857C13.2 29.8857 14.2714 30.2786 15.2286 30.2786C15.8615 30.2659 16.4845 30.1199 17.0571 29.85C17.2 28.7928 17.6143 28.0714 18.0714 27.6571C14.5214 27.2428 10.7857 25.8357 10.7857 19.55C10.7857 17.7571 11.4071 16.2929 12.4286 15.15C12.2643 14.7357 11.7143 13.0643 12.5857 10.8071C12.7026 10.7792 12.8227 10.7672 12.9429 10.7714C13.5214 10.7714 14.8286 10.9929 16.9857 12.4929C19.6068 11.7595 22.3789 11.7595 25 12.4929C27.1571 10.9929 28.4643 10.7714 29.0429 10.7714C29.163 10.7672 29.2831 10.7792 29.4 10.8071C30.2714 13.0643 29.7214 14.7357 29.5571 15.15C30.5786 16.3 31.2 17.7643 31.2 19.55C31.2 25.85 27.4571 27.2357 23.8929 27.6428C24.4643 28.15 24.9786 29.15 24.9786 30.6786C24.9786 32.8714 24.9571 34.6428 24.9571 35.1786C24.9571 35.5643 25.1786 36 25.7714 36C25.8674 36.0004 25.9632 35.9908 26.0571 35.9714C32.4214 33.8 37 27.65 37 20.4071C37 11.35 29.8357 4 21 4Z" fill="white"/>
</svg>
