<svg width="41" height="41" viewBox="0 0 41 41" fill="none" xmlns="http://www.w3.org/2000/svg">
<path fill-rule="evenodd" clip-rule="evenodd" d="M20.5 0.61853C9.17375 0.61853 0 9.79491 0 21.1244C0 30.1983 5.86812 37.8623 14.0169 40.5794C15.0419 40.7588 15.4262 40.1436 15.4262 39.6053C15.4262 39.1183 15.4006 37.5035 15.4006 35.7861C10.25 36.7345 8.9175 34.5301 8.5075 33.3767C8.27688 32.7871 7.2775 30.9672 6.40625 30.4802C5.68875 30.0957 4.66375 29.1473 6.38062 29.1217C7.995 29.0961 9.14812 30.6084 9.5325 31.2235C11.3775 34.3251 14.3244 33.4536 15.5031 32.9153C15.6825 31.5824 16.2206 30.6853 16.81 30.1726C12.2488 29.66 7.4825 27.8913 7.4825 20.0478C7.4825 17.8178 8.27688 15.9723 9.58375 14.5369C9.37875 14.0242 8.66125 11.9224 9.78875 9.10284C9.78875 9.10284 11.5056 8.56456 15.4262 11.2047C17.0662 10.7433 18.8088 10.5126 20.5513 10.5126C22.2938 10.5126 24.0363 10.7433 25.6763 11.2047C29.5969 8.53893 31.3138 9.10284 31.3138 9.10284C32.4412 11.9224 31.7238 14.0242 31.5188 14.5369C32.8256 15.9723 33.62 17.7922 33.62 20.0478C33.62 27.917 28.8281 29.66 24.2669 30.1726C25.01 30.8134 25.6506 32.0438 25.6506 33.9662C25.6506 36.7089 25.625 38.9133 25.625 39.6053C25.625 40.1436 26.0094 40.7844 27.0344 40.5794C31.1039 39.205 34.6402 36.5887 37.1454 33.0988C39.6507 29.6088 40.9988 25.4209 41 21.1244C41 9.79491 31.8263 0.61853 20.5 0.61853Z" fill="white"/>
</svg>
