<svg width="41" height="41" viewBox="0 0 41 41" fill="none" xmlns="http://www.w3.org/2000/svg">
<g clip-path="url(#clip0_152_2)">
<path d="M20.6766 0.176514C9.35466 0.176514 0.176636 9.35454 0.176636 20.6765C0.176636 31.9985 9.35466 41.1765 20.6766 41.1765C31.9987 41.1765 41.1766 31.9985 41.1766 20.6765C41.1766 9.35454 31.9987 0.176514 20.6766 0.176514ZM15.6584 29.1734H11.5072V15.8142H15.6584V29.1734ZM13.5572 14.1742C12.246 14.1742 11.3983 13.2453 11.3983 12.0964C11.3983 10.9241 12.2716 10.0229 13.6105 10.0229C14.9494 10.0229 15.7694 10.9241 15.7951 12.0964C15.7951 13.2453 14.9494 14.1742 13.5572 14.1742ZM30.8199 29.1734H26.6687V21.7699C26.6687 20.0466 26.0665 18.8763 24.5652 18.8763C23.4185 18.8763 22.7373 19.6686 22.4362 20.431C22.3252 20.7021 22.2974 21.0865 22.2974 21.4688V29.1712H18.144V20.0743C18.144 18.4066 18.0907 17.0121 18.0351 15.812H21.6419L21.8319 17.6677H21.9152C22.4619 16.7965 23.8008 15.511 26.0408 15.511C28.772 15.511 30.8199 17.341 30.8199 21.2745V29.1734Z" fill="white"/>
</g>
<defs>
<clipPath id="clip0_152_2">
<rect width="41" height="41" fill="white"/>
</clipPath>
</defs>
</svg>
