<svg width="41" height="42" viewBox="0 0 41 42" fill="none" xmlns="http://www.w3.org/2000/svg">
<path d="M34.9339 35.553H28.859V26.0393C28.859 23.7707 28.8185 20.8502 25.6995 20.8502C22.5354 20.8502 22.0513 23.3221 22.0513 25.8741V35.5524H15.9765V15.9883H21.8083V18.662H21.89C22.4736 17.6641 23.317 16.8431 24.3303 16.2866C25.3436 15.73 26.4888 15.4588 27.6441 15.5016C33.8013 15.5016 34.9365 19.5517 34.9365 24.8205L34.9339 35.553ZM9.12186 13.3142C7.17484 13.3145 5.59618 11.7364 5.59586 9.78934C5.59554 7.84232 7.17356 6.26366 9.12058 6.26334C11.0676 6.26286 12.6463 7.84104 12.6466 9.78806C12.6467 10.7231 12.2755 11.6198 11.6145 12.2811C10.9535 12.9424 10.0569 13.314 9.12186 13.3142ZM12.1594 35.5532H6.07809V15.9883H12.1592V35.553L12.1594 35.5532ZM37.9625 0.621514H3.02551C1.3743 0.602936 0.0201797 1.92567 0 3.57688V38.6596C0.0195391 40.3116 1.3735 41.6356 3.02535 41.6183H37.9625C39.6179 41.6388 40.9771 40.3148 41 38.6596V3.57415C40.9765 1.91974 39.6171 0.597171 37.9625 0.618792" fill="white"/>
</svg>
