<svg width="41" height="41" viewBox="0 0 41 41" fill="none" xmlns="http://www.w3.org/2000/svg">
<path d="M20.5 0C9.38695 0 0 9.38695 0 20.5C0 31.6131 9.38695 41 20.5 41C31.6131 41 41 31.6131 41 20.5C41 9.38695 31.6131 0 20.5 0ZM20.5 10.25C24.0404 10.25 26.65 12.8576 26.65 16.4C26.65 19.9424 24.0404 22.55 20.5 22.55C16.9617 22.55 14.35 19.9424 14.35 16.4C14.35 12.8576 16.9617 10.25 20.5 10.25ZM10.0327 30.2826C11.8715 27.5766 14.9383 25.7726 18.45 25.7726H22.55C26.0637 25.7726 29.1284 27.5766 30.9673 30.2826C28.3474 33.087 24.6307 34.85 20.5 34.85C16.3693 34.85 12.6526 33.087 10.0327 30.2826Z" fill="white"/>
</svg>
