<svg width="34" height="41" viewBox="0 0 34 41" fill="none" xmlns="http://www.w3.org/2000/svg">
<path d="M19.2188 23.0625H14.0938C10.5543 23.0625 7.6875 25.9293 7.6875 29.4688C7.6875 30.1734 8.26406 30.75 8.96875 30.75H24.3438C25.0513 30.75 25.625 30.1763 25.625 29.4688C25.625 25.9293 22.7582 23.0625 19.2188 23.0625ZM16.6562 20.5C19.487 20.5 21.7812 18.2058 21.7812 15.375C21.7812 12.5442 19.487 10.25 16.6562 10.25C13.8263 10.25 11.5312 12.5442 11.5312 15.375C11.5312 18.2058 13.8295 20.5 16.6562 20.5ZM28.1875 0H5.125C2.29424 0 0 2.29424 0 5.125V35.875C0 38.7058 2.29424 41 5.125 41H28.1875C31.0183 41 33.3125 38.7058 33.3125 35.875V5.125C33.3125 2.29424 31.0143 0 28.1875 0ZM29.4688 35.875C29.4688 36.5826 28.8951 37.1562 28.1875 37.1562H5.125C4.41743 37.1562 3.84375 36.5826 3.84375 35.875V5.125C3.84375 4.41727 4.41743 3.84375 5.125 3.84375H28.1875C28.8951 3.84375 29.4688 4.41727 29.4688 5.125V35.875Z" fill="white"/>
</svg>
