<svg width="25" height="22" viewBox="0 0 25 22" fill="none" xmlns="http://www.w3.org/2000/svg">
<path d="M0.615009 0.615009C1.00892 0.221219 1.5431 0 2.10009 0C2.65708 0 3.19126 0.221219 3.58517 0.615009L11.0127 8.04252L18.4402 0.615009C18.8364 0.232379 19.367 0.0206566 19.9177 0.0254425C20.4685 0.0302284 20.9953 0.25114 21.3848 0.640597C21.7742 1.03005 21.9951 1.5569 21.9999 2.10765C22.0047 2.65841 21.793 3.18901 21.4104 3.58517L13.9828 11.0127L21.4104 18.4402C21.793 18.8364 22.0047 19.367 21.9999 19.9177C21.9951 20.4685 21.7742 20.9953 21.3848 21.3848C20.9953 21.7742 20.4685 21.9951 19.9177 21.9999C19.367 22.0047 18.8364 21.793 18.4402 21.4104L11.0127 13.9828L3.58517 21.4104C3.18901 21.793 2.65841 22.0047 2.10765 21.9999C1.5569 21.9951 1.03005 21.7742 0.640597 21.3848C0.25114 20.9953 0.0302284 20.4685 0.0254425 19.9177C0.0206566 19.367 0.232379 18.8364 0.615009 18.4402L8.04252 11.0127L0.615009 3.58517C0.221219 3.19126 0 2.65708 0 2.10009C0 1.5431 0.221219 1.00892 0.615009 0.615009Z" fill="#EAEAEA"/>
<path d="M14.0127 8.74962L13.6591 8.39607L6.23167 0.968616C6.23166 0.968598 6.23164 0.968581 6.23162 0.968563C5.93148 0.668541 5.52447 0.5 5.10009 0.5C4.67574 0.5 4.26875 0.668521 3.96862 0.968509C3.96858 0.968545 3.96854 0.968581 3.96851 0.968616M14.0127 8.74962L3.61501 3.58517C3.22122 3.19126 3 2.65708 3 2.10009C3 1.5431 3.22122 1.00892 3.61501 0.615009L3.96851 0.968616M14.0127 8.74962L14.3662 8.39607L21.7905 0.97185C22.092 0.682068 22.4951 0.521789 22.9134 0.525424C23.333 0.52907 23.7345 0.697397 24.0312 0.994151C24.328 1.2909 24.4963 1.69234 24.4999 2.112C24.5036 2.53029 24.3433 2.93333 24.0535 3.23488L16.6293 10.6591L16.2757 11.0127L16.6293 11.3662L24.0536 18.7905C24.3433 19.0921 24.5036 19.4951 24.4999 19.9134C24.4963 20.333 24.328 20.7345 24.0312 21.0312C23.7345 21.328 23.333 21.4963 22.9134 21.4999C22.4951 21.5036 22.0921 21.3433 21.7905 21.0536L14.3662 13.6293L14.0127 13.2757L13.6591 13.6293L6.23488 21.0535C5.93333 21.3433 5.53029 21.5036 5.112 21.4999C4.69234 21.4963 4.2909 21.328 3.99415 21.0312C3.6974 20.7345 3.52907 20.333 3.52542 19.9134C3.52179 19.4951 3.68207 19.092 3.97185 18.7905L11.3961 11.3662L11.7496 11.0127L11.3961 10.6591L3.96862 3.23167M14.0127 8.74962L3.96862 3.23167M3.96851 0.968616C3.66852 1.26875 3.5 1.67574 3.5 2.10009C3.5 2.52447 3.66854 2.93148 3.96856 3.23162M3.96851 0.968616L3.96856 3.23162M3.96862 3.23167C3.9686 3.23166 3.96858 3.23164 3.96856 3.23162M3.96862 3.23167L3.96856 3.23162" stroke="#EAEAEA"/>
</svg>
