<svg width="64" height="64" viewBox="0 0 64 64" fill="none" xmlns="http://www.w3.org/2000/svg">
<circle cx="32" cy="32" r="32" fill="white"/>
<path d="M48.0156 11H43.3468C42.7278 11 42.134 11.2459 41.6961 11.6837C41.2584 12.1215 41.0124 12.7153 41.0124 13.3344V53H50.3499V13.3344C50.3499 12.7153 50.1039 12.1215 49.6663 11.6837C49.2284 11.2459 48.6346 11 48.0156 11ZM34.0093 25.0062H29.3406C28.7215 25.0062 28.1277 25.2522 27.6899 25.6899C27.2522 26.1277 27.0062 26.7216 27.0062 27.3406V53H36.3437V27.3406C36.3437 26.7216 36.0977 26.1277 35.66 25.6899C35.2222 25.2522 34.6284 25.0062 34.0093 25.0062ZM20.0031 39.0125H15.3344C14.7153 39.0125 14.1215 39.2584 13.6837 39.6961C13.2459 40.134 13 40.7278 13 41.3468V53H22.3375V41.3468C22.3375 40.7278 22.0915 40.134 21.6538 39.6961C21.216 39.2584 20.6222 39.0125 20.0031 39.0125Z" fill="#1F9751"/>
</svg>
