<svg width="62" height="64" viewBox="0 0 62 64" fill="none" xmlns="http://www.w3.org/2000/svg">
<circle cx="31" cy="32" r="22" fill="#DB202C"/>
<path d="M51.3066 31.9821C51.3066 29.1949 50.7647 26.5327 49.6807 23.9955C48.5968 21.4584 47.1317 19.2667 45.2854 17.4204C43.4392 15.5742 41.2475 14.1091 38.7103 13.0251C36.1732 11.9412 33.511 11.3992 30.7237 11.3992C27.9365 11.3992 25.2743 11.9412 22.7371 13.0251C20.2 14.1091 18.0083 15.5742 16.162 17.4204C14.3158 19.2667 12.8507 21.4584 11.7667 23.9955C10.6828 26.5327 10.1408 29.1949 10.1408 31.9821C10.1408 34.7694 10.6828 37.4316 11.7667 39.9687C12.8507 42.5059 14.3158 44.6976 16.162 46.5438C18.0083 48.3901 20.2 49.8552 22.7371 50.9391C25.2743 52.0231 27.9365 52.565 30.7237 52.565C33.511 52.565 36.1732 52.0231 38.7103 50.9391C41.2475 49.8552 43.4392 48.3901 45.2854 46.5438C47.1317 44.6976 48.5968 42.5059 49.6807 39.9687C50.7647 37.4316 51.3066 34.7694 51.3066 31.9821ZM61.1693 41.8805C61.074 42.2379 60.8358 42.4761 60.4546 42.5952L50.0202 46.0257V56.9604C50.0202 57.3415 49.8654 57.6512 49.5557 57.8894C49.1983 58.1277 48.8529 58.1753 48.5194 58.0324L38.085 54.6734L31.6528 63.5355C31.4146 63.8451 31.1049 64 30.7237 64C30.3426 64 30.0329 63.8451 29.7946 63.5355L23.3625 54.6734L12.9281 58.0324C12.5946 58.1753 12.2491 58.1277 11.8918 57.8894C11.5821 57.6512 11.4272 57.3415 11.4272 56.9604V46.0257L0.992851 42.5952C0.611686 42.4761 0.373458 42.2379 0.278167 41.8805C0.159052 41.4755 0.206698 41.1301 0.421104 40.8442L6.85326 31.9821L0.421104 23.12C0.206698 22.8103 0.159052 22.4649 0.278167 22.0838C0.373458 21.7264 0.611686 21.4882 0.992851 21.3691L11.4272 17.9386V7.00391C11.4272 6.62274 11.5821 6.31305 11.8918 6.07482C12.2491 5.83659 12.5946 5.78894 12.9281 5.93188L23.3625 9.2909L29.7946 0.428811C30.009 0.142937 30.3187 0 30.7237 0C31.1287 0 31.4384 0.142937 31.6528 0.428811L38.085 9.2909L48.5194 5.93188C48.8529 5.78894 49.1983 5.83659 49.5557 6.07482C49.8654 6.31305 50.0202 6.62274 50.0202 7.00391V17.9386L60.4546 21.3691C60.8358 21.4882 61.074 21.7264 61.1693 22.0838C61.2884 22.4649 61.2408 22.8103 61.0264 23.12L54.5942 31.9821L61.0264 40.8442C61.2408 41.1301 61.2884 41.4755 61.1693 41.8805Z" fill="#DB202C"/>
<path d="M16.959 29V20.2727H20.726C21.3738 20.2727 21.9405 20.3906 22.4263 20.6264C22.9121 20.8622 23.29 21.2017 23.5598 21.6449C23.8297 22.0881 23.9647 22.6193 23.9647 23.2386C23.9647 23.8636 23.8255 24.3906 23.5471 24.8196C23.2715 25.2486 22.8837 25.5724 22.3837 25.7912C21.8865 26.0099 21.3056 26.1193 20.6408 26.1193H18.3908V24.2784H20.1635C20.4419 24.2784 20.6792 24.2443 20.8752 24.1761C21.074 24.1051 21.226 23.9929 21.3311 23.8395C21.4391 23.6861 21.4931 23.4858 21.4931 23.2386C21.4931 22.9886 21.4391 22.7855 21.3311 22.6293C21.226 22.4702 21.074 22.3537 20.8752 22.2798C20.6792 22.2031 20.4419 22.1648 20.1635 22.1648H19.3283V29H16.959ZM22.0726 24.9943L24.2544 29H21.6806L19.5499 24.9943H22.0726ZM28.0044 29.1193C27.3056 29.1193 26.7033 28.9858 26.1976 28.7188C25.6948 28.4489 25.307 28.0625 25.0343 27.5597C24.7644 27.054 24.6294 26.4489 24.6294 25.7443C24.6294 25.0682 24.7658 24.4773 25.0385 23.9716C25.3113 23.4659 25.6962 23.0724 26.1934 22.7912C26.6905 22.5099 27.2772 22.3693 27.9533 22.3693C28.4476 22.3693 28.8951 22.446 29.2956 22.5994C29.6962 22.7528 30.0385 22.9759 30.3226 23.2685C30.6067 23.5582 30.8255 23.9105 30.9789 24.3253C31.1323 24.7401 31.209 25.2074 31.209 25.7273V26.2727H25.3624V24.9773H29.0442C29.0414 24.7898 28.9931 24.625 28.8993 24.483C28.8084 24.3381 28.6848 24.2259 28.5286 24.1463C28.3752 24.0639 28.2005 24.0227 28.0044 24.0227C27.8141 24.0227 27.6394 24.0639 27.4803 24.1463C27.3212 24.2259 27.1934 24.3366 27.0968 24.4787C27.003 24.6207 26.9533 24.7869 26.9476 24.9773V26.375C26.9476 26.5852 26.9917 26.7727 27.0797 26.9375C27.1678 27.1023 27.2942 27.2315 27.459 27.3253C27.6238 27.419 27.8226 27.4659 28.0556 27.4659C28.2175 27.4659 28.3652 27.4432 28.4988 27.3977C28.6351 27.3523 28.7516 27.2869 28.8482 27.2017C28.9448 27.1136 29.0158 27.0085 29.0613 26.8864H31.209C31.1351 27.3409 30.9604 27.7358 30.6848 28.071C30.4093 28.4034 30.0442 28.6619 29.5897 28.8466C29.138 29.0284 28.6096 29.1193 28.0044 29.1193ZM33.9927 29.1023C33.5751 29.1023 33.2058 29.0341 32.8848 28.8977C32.5666 28.7585 32.3166 28.5483 32.1348 28.267C31.9529 27.9858 31.862 27.6278 31.862 27.1932C31.862 26.8352 31.9231 26.5298 32.0453 26.277C32.1674 26.0213 32.3379 25.8125 32.5566 25.6506C32.7754 25.4886 33.0297 25.3651 33.3194 25.2798C33.612 25.1946 33.9274 25.1392 34.2654 25.1136C34.6319 25.0852 34.926 25.0511 35.1475 25.0114C35.372 24.9687 35.5339 24.9105 35.6333 24.8366C35.7328 24.7599 35.7825 24.6591 35.7825 24.5341V24.517C35.7825 24.3466 35.7172 24.2159 35.5865 24.125C35.4558 24.0341 35.2882 23.9886 35.0836 23.9886C34.8592 23.9886 34.676 24.0384 34.5339 24.1378C34.3947 24.2344 34.3109 24.3835 34.2825 24.5852H32.1177C32.1461 24.1875 32.2725 23.821 32.497 23.4858C32.7243 23.1477 33.0552 22.8778 33.4899 22.6761C33.9245 22.4716 34.4672 22.3693 35.1177 22.3693C35.5865 22.3693 36.0069 22.4247 36.3791 22.5355C36.7512 22.6435 37.068 22.7955 37.3294 22.9915C37.5907 23.1847 37.7896 23.4119 37.926 23.6733C38.0652 23.9318 38.1348 24.2131 38.1348 24.517V29H35.9359V28.0795H35.8848C35.7541 28.3239 35.595 28.5213 35.4075 28.6719C35.2228 28.8224 35.0112 28.9318 34.7725 29C34.5368 29.0682 34.2768 29.1023 33.9927 29.1023ZM34.7598 27.6193C34.9387 27.6193 35.1064 27.5824 35.2626 27.5085C35.4217 27.4347 35.551 27.3281 35.6504 27.1889C35.7498 27.0497 35.7995 26.8807 35.7995 26.6818V26.1364C35.737 26.1619 35.6703 26.1861 35.5993 26.2088C35.5311 26.2315 35.4572 26.2528 35.3777 26.2727C35.301 26.2926 35.2186 26.3111 35.1305 26.3281C35.0453 26.3452 34.9558 26.3608 34.862 26.375C34.6802 26.4034 34.5311 26.4503 34.4146 26.5156C34.301 26.5781 34.2157 26.6562 34.1589 26.75C34.1049 26.8409 34.0779 26.9432 34.0779 27.0568C34.0779 27.2386 34.1419 27.3778 34.2697 27.4744C34.3975 27.571 34.5609 27.6193 34.7598 27.6193ZM41.611 20.2727V29H39.2587V20.2727H41.611ZM15.1026 44L12.5288 35.2727H15.1708L16.364 40.642H16.4322L17.8469 35.2727H19.9265L21.3413 40.6591H21.4094L22.6026 35.2727H25.2447L22.6708 44H20.4038L18.9208 39.125H18.8526L17.3697 44H15.1026ZM28.4375 44.1193C27.7273 44.1193 27.1193 43.9787 26.6136 43.6974C26.108 43.4134 25.7202 43.0185 25.4503 42.5128C25.1804 42.0043 25.0455 41.4148 25.0455 40.7443C25.0455 40.0739 25.1804 39.4858 25.4503 38.9801C25.7202 38.4716 26.108 38.0767 26.6136 37.7955C27.1193 37.5114 27.7273 37.3693 28.4375 37.3693C29.1477 37.3693 29.7557 37.5114 30.2614 37.7955C30.767 38.0767 31.1548 38.4716 31.4247 38.9801C31.6946 39.4858 31.8295 40.0739 31.8295 40.7443C31.8295 41.4148 31.6946 42.0043 31.4247 42.5128C31.1548 43.0185 30.767 43.4134 30.2614 43.6974C29.7557 43.9787 29.1477 44.1193 28.4375 44.1193ZM28.4545 42.3807C28.6534 42.3807 28.8253 42.3139 28.9702 42.1804C29.1151 42.0469 29.2273 41.8565 29.3068 41.6094C29.3864 41.3622 29.4261 41.0682 29.4261 40.7273C29.4261 40.3835 29.3864 40.0895 29.3068 39.8452C29.2273 39.598 29.1151 39.4077 28.9702 39.2741C28.8253 39.1406 28.6534 39.0739 28.4545 39.0739C28.2443 39.0739 28.0639 39.1406 27.9134 39.2741C27.7628 39.4077 27.6477 39.598 27.5682 39.8452C27.4886 40.0895 27.4489 40.3835 27.4489 40.7273C27.4489 41.0682 27.4886 41.3622 27.5682 41.6094C27.6477 41.8565 27.7628 42.0469 27.9134 42.1804C28.0639 42.3139 28.2443 42.3807 28.4545 42.3807ZM32.7841 44V37.4545H35.0682V38.6989H35.1364C35.2557 38.2386 35.4446 37.902 35.7031 37.6889C35.9645 37.4759 36.2699 37.3693 36.6193 37.3693C36.7216 37.3693 36.8224 37.3778 36.9219 37.3949C37.0241 37.4091 37.1222 37.4304 37.2159 37.4588V39.4659C37.0994 39.4261 36.956 39.3963 36.7855 39.3764C36.6151 39.3565 36.4688 39.3466 36.3466 39.3466C36.1165 39.3466 35.9091 39.3991 35.7244 39.5043C35.5426 39.6065 35.3991 39.7514 35.294 39.9389C35.1889 40.1236 35.1364 40.3409 35.1364 40.5909V44H32.7841ZM40.3395 35.2727V44H37.9872V35.2727H40.3395ZM43.9073 44.0852C43.4414 44.0852 43.0124 43.9631 42.6204 43.7188C42.2312 43.4744 41.9187 43.1037 41.6829 42.6065C41.4499 42.1094 41.3335 41.483 41.3335 40.7273C41.3335 39.9375 41.4556 39.2955 41.6999 38.8011C41.9471 38.3068 42.2653 37.9446 42.6545 37.7145C43.0465 37.4844 43.4585 37.3693 43.8903 37.3693C44.2141 37.3693 44.4982 37.4261 44.7425 37.5398C44.9869 37.6506 45.1914 37.7997 45.3562 37.9872C45.521 38.1719 45.646 38.375 45.7312 38.5966H45.7653V35.2727H48.1175V44H45.7823V42.9261H45.7312C45.6403 43.1477 45.5096 43.3466 45.3391 43.5227C45.1715 43.696 44.967 43.8338 44.7255 43.9361C44.4869 44.0355 44.2141 44.0852 43.9073 44.0852ZM44.7766 42.2784C44.9925 42.2784 45.1772 42.2159 45.3306 42.0909C45.4869 41.9631 45.6062 41.7841 45.6886 41.554C45.7738 41.321 45.8164 41.0455 45.8164 40.7273C45.8164 40.4034 45.7738 40.1264 45.6886 39.8963C45.6062 39.6634 45.4869 39.4858 45.3306 39.3636C45.1772 39.2386 44.9925 39.1761 44.7766 39.1761C44.5607 39.1761 44.3761 39.2386 44.2227 39.3636C44.0721 39.4858 43.9556 39.6634 43.8732 39.8963C43.7937 40.1264 43.7539 40.4034 43.7539 40.7273C43.7539 41.0511 43.7937 41.3295 43.8732 41.5625C43.9556 41.7926 44.0721 41.9702 44.2227 42.0952C44.3761 42.2173 44.5607 42.2784 44.7766 42.2784Z" fill="white"/>
</svg>
