<svg width="95" height="95" viewBox="0 0 95 95" fill="none" xmlns="http://www.w3.org/2000/svg">
<circle cx="47.5" cy="47.5" r="47.5" fill="white"/>
<path d="M40 42.2073H48C48.8487 42.2073 49.6626 41.8702 50.2628 41.2702C50.8629 40.6702 51.2 39.8565 51.2 39.0079C51.2 38.1594 50.8629 37.3457 50.2628 36.7457C49.6626 36.1457 48.8487 35.8086 48 35.8086H44.8V34.2089C44.8 33.3604 44.4629 32.5466 43.8628 31.9466C43.2626 31.3466 42.4487 31.0095 41.6 31.0095C40.7513 31.0095 39.9374 31.3466 39.3373 31.9466C38.7372 32.5466 38.4 33.3604 38.4 34.2089V35.9686C36.4558 36.3633 34.7276 37.4662 33.5509 39.0632C32.3743 40.6602 31.8331 42.6373 32.0325 44.6108C32.2319 46.5843 33.1576 48.4133 34.6299 49.7428C36.1022 51.0723 38.0161 51.8074 40 51.8054H43.2C43.6244 51.8054 44.0313 51.9739 44.3314 52.2739C44.6314 52.5739 44.8 52.9808 44.8 53.4051C44.8 53.8293 44.6314 54.2362 44.3314 54.5362C44.0313 54.8362 43.6244 55.0048 43.2 55.0048H35.2C34.3513 55.0048 33.5374 55.3418 32.9373 55.9418C32.3372 56.5418 32 57.3556 32 58.2041C32 59.0527 32.3372 59.8664 32.9373 60.4664C33.5374 61.0664 34.3513 61.4035 35.2 61.4035H38.4V63.0032C38.4 63.8517 38.7372 64.6655 39.3373 65.2655C39.9374 65.8655 40.7513 66.2025 41.6 66.2025C42.4487 66.2025 43.2626 65.8655 43.8628 65.2655C44.4629 64.6655 44.8 63.8517 44.8 63.0032V61.2435C46.7443 60.8488 48.4725 59.7459 49.6491 58.1489C50.8258 56.5519 51.3669 54.5747 51.1676 52.6013C50.9682 50.6278 50.0425 48.7987 48.5701 47.4693C47.0978 46.1398 45.1839 45.4047 43.2 45.4067H40C39.5757 45.4067 39.1687 45.2381 38.8686 44.9381C38.5686 44.6381 38.4 44.2313 38.4 43.807C38.4 43.3827 38.5686 42.9758 38.8686 42.6758C39.1687 42.3758 39.5757 42.2073 40 42.2073ZM76.8 47.0064H67.2V18.2121C67.2022 17.6483 67.0554 17.094 66.7745 16.6052C66.4935 16.1164 66.0883 15.7105 65.6 15.4286C65.1135 15.1478 64.5617 15 64 15C63.4383 15 62.8865 15.1478 62.4 15.4286L52.8 20.9315L43.2 15.4286C42.7136 15.1478 42.1617 15 41.6 15C41.0383 15 40.4865 15.1478 40 15.4286L30.4 20.9315L20.8 15.4286C20.3136 15.1478 19.7617 15 19.2 15C18.6383 15 18.0865 15.1478 17.6 15.4286C17.1117 15.7105 16.7065 16.1164 16.4256 16.6052C16.1446 17.094 15.9978 17.6483 16 18.2121V69.4019C16 71.9475 17.0115 74.3888 18.8118 76.1888C20.6121 77.9888 23.0539 79 25.6 79H70.4C72.9461 79 75.3879 77.9888 77.1882 76.1888C78.9886 74.3888 80 71.9475 80 69.4019V50.2057C80 49.3572 79.6629 48.5434 79.0627 47.9434C78.4626 47.3434 77.6487 47.0064 76.8 47.0064ZM25.6 72.6013C24.7513 72.6013 23.9374 72.2642 23.3373 71.6642C22.7372 71.0642 22.4 70.2504 22.4 69.4019V23.747L28.8 27.3943C29.2939 27.6522 29.8428 27.7869 30.4 27.7869C30.9572 27.7869 31.5061 27.6522 32 27.3943L41.6 21.8913L51.2 27.3943C51.6939 27.6522 52.2428 27.7869 52.8 27.7869C53.3572 27.7869 53.9061 27.6522 54.4 27.3943L60.8 23.747V69.4019C60.8087 70.4933 61.0035 71.5753 61.376 72.6013H25.6ZM73.6 69.4019C73.6 70.2504 73.2629 71.0642 72.6627 71.6642C72.0626 72.2642 71.2487 72.6013 70.4 72.6013C69.5513 72.6013 68.7374 72.2642 68.1373 71.6642C67.5371 71.0642 67.2 70.2504 67.2 69.4019V53.4051H73.6V69.4019Z" fill="#1F9751"/>
</svg>
