<svg width="18" height="18" viewBox="0 0 18 18" fill="none" xmlns="http://www.w3.org/2000/svg">
<path d="M2 18C1.45 18 0.979002 17.804 0.587002 17.412C0.195002 17.02 -0.000664969 16.5493 1.69779e-06 16V2C1.69779e-06 1.45 0.196002 0.979003 0.588002 0.587003C0.980002 0.195003 1.45067 -0.000663206 2 3.46021e-06H8C8.28334 3.46021e-06 8.521 0.0960036 8.713 0.288004C8.905 0.480004 9.00067 0.717337 9 1C9 1.28334 8.904 1.521 8.712 1.713C8.52 1.905 8.28267 2.00067 8 2H2V16H16V10C16 9.71667 16.096 9.479 16.288 9.287C16.48 9.095 16.7173 8.99934 17 9C17.2833 9 17.521 9.096 17.713 9.288C17.905 9.48 18.0007 9.71734 18 10V16C18 16.55 17.804 17.021 17.412 17.413C17.02 17.805 16.5493 18.0007 16 18H2ZM6 12C5.81667 11.8167 5.725 11.5833 5.725 11.3C5.725 11.0167 5.81667 10.7833 6 10.6L14.6 2H12C11.7167 2 11.479 1.904 11.287 1.712C11.095 1.52 10.9993 1.28267 11 1C11 0.71667 11.096 0.479003 11.288 0.287003C11.48 0.0950034 11.7173 -0.000663206 12 3.46021e-06H17C17.2833 3.46021e-06 17.521 0.0960036 17.713 0.288004C17.905 0.480004 18.0007 0.717337 18 1V6C18 6.28334 17.904 6.521 17.712 6.713C17.52 6.905 17.2827 7.00067 17 7C16.7167 7 16.479 6.904 16.287 6.712C16.095 6.52 15.9993 6.28267 16 6V3.4L7.375 12.025C7.19167 12.2083 6.96667 12.3 6.7 12.3C6.43334 12.3 6.2 12.2 6 12Z" fill="#7A7A8C"/>
</svg>
