<svg width="72" height="64" viewBox="0 0 72 64" fill="none" xmlns="http://www.w3.org/2000/svg">
<mask id="path-1-inside-1_115_3" fill="white">
<path d="M59.1434 20.7439C58.3779 20.4813 57.6059 20.238 56.8281 20.0142C56.9587 19.4803 57.079 18.9529 57.1858 18.4348C58.9386 9.92614 57.7927 3.07141 53.8788 0.814502C50.1262 -1.34911 43.9891 0.906947 37.7911 6.3011C37.1802 6.83366 36.5829 7.38158 35.9998 7.94432C35.6094 7.57012 35.2121 7.20317 34.8081 6.84369C28.3122 1.0761 21.8011 -1.35473 17.8914 0.908633C14.1422 3.07899 13.032 9.52292 14.61 17.5867C14.767 18.3854 14.9443 19.1799 15.1417 19.9695C14.22 20.2314 13.3307 20.5102 12.4796 20.8069C4.86364 23.4622 0 27.6234 0 31.9397C0 36.3976 5.22134 40.8689 13.1537 43.5802C13.7968 43.7991 14.4452 44.0019 15.0984 44.1885C14.8862 45.039 14.6979 45.8952 14.5336 46.7562C13.0292 54.6801 14.204 60.9717 17.9431 63.1283C21.805 65.3555 28.2869 63.0665 34.5982 57.5493C35.11 57.1008 35.6105 56.6395 36.0992 56.166C36.7308 56.7753 37.3792 57.3669 38.0437 57.9402C44.1574 63.2008 50.1953 65.3251 53.9308 63.1626C57.7891 60.929 59.0431 54.1701 57.4151 45.947C57.2868 45.3028 57.143 44.6617 56.9837 44.0244C57.439 43.8896 57.8857 43.7508 58.3213 43.6063C66.5677 40.8743 71.9332 36.4571 71.9332 31.9397C71.9332 27.6077 66.9125 23.4184 59.1434 20.7439V20.7439ZM57.3549 40.6897C56.9615 40.8198 56.558 40.9454 56.1467 41.0676C55.2363 38.1855 54.0078 35.121 52.5042 31.9546C53.9389 28.8637 55.1202 25.8383 56.0051 22.975C56.741 23.188 57.455 23.4125 58.1434 23.6494C64.8 25.9411 68.8603 29.329 68.8603 31.9397C68.8603 34.7203 64.4752 38.3302 57.3549 40.6897V40.6897ZM54.4006 46.5438C55.1205 50.1798 55.2231 53.4674 54.7462 56.0376C54.318 58.347 53.4565 59.8866 52.391 60.5033C50.1242 61.8156 45.2763 60.11 40.048 55.6108C39.4299 55.0778 38.8268 54.5278 38.2392 53.9613C40.2663 51.7446 42.292 49.1677 44.269 46.3055C47.7465 45.997 51.0318 45.4923 54.0112 44.8036C54.1547 45.3805 54.2845 45.9608 54.4006 46.5438V46.5438ZM24.5236 60.2766C22.3088 61.0586 20.5448 61.081 19.4784 60.4662C17.2095 59.1577 16.2662 54.1058 17.5528 47.3294C17.7058 46.5287 17.8809 45.7323 18.078 44.9413C21.0244 45.5932 24.2859 46.0619 27.7716 46.3446C29.7621 49.1452 31.8462 51.7193 33.9466 53.9734C33.5002 54.4053 33.0433 54.8262 32.5762 55.2356C29.7851 57.6752 26.9884 59.4061 24.5236 60.2766V60.2766ZM14.1478 40.6725C10.6402 39.4735 7.7435 37.9155 5.75803 36.2152C3.97375 34.6875 3.07318 33.1704 3.07318 31.9397C3.07318 29.3203 6.97808 25.9793 13.4911 23.7087C14.2816 23.4333 15.1088 23.1734 15.9672 22.9295C16.8675 25.8574 18.0482 28.9188 19.4731 32.0144C18.0297 35.1559 16.8321 38.2661 15.9231 41.2286C15.3269 41.0578 14.7349 40.8724 14.1478 40.6725V40.6725ZM17.6259 16.9964C16.274 10.0877 17.1718 4.8762 19.4312 3.56819C21.8376 2.17505 27.159 4.16136 32.7678 9.14161C33.1336 9.46711 33.4934 9.7992 33.8471 10.1377C31.7571 12.382 29.6921 14.937 27.7193 17.7211C24.3362 18.0346 21.0978 18.5382 18.1204 19.2128C17.937 18.4784 17.7721 17.7394 17.6259 16.9967V16.9964ZM48.6547 24.6584C47.9514 23.4437 47.2221 22.2442 46.4672 21.0609C48.7623 21.3512 50.9613 21.7364 53.0263 22.2073C52.4064 24.1945 51.6337 26.2718 50.7242 28.4017C50.0593 27.1403 49.3693 25.8923 48.6547 24.6584V24.6584ZM36.0012 12.3339C37.4185 13.8695 38.838 15.5839 40.2343 17.444C37.4019 17.3102 34.5648 17.3097 31.7324 17.4423C33.13 15.5993 34.5617 13.8872 36.0012 12.3339ZM23.2665 24.6795C22.5607 25.9034 21.8836 27.1437 21.2358 28.3992C20.3411 26.2769 19.5754 24.19 18.9502 22.1747C21.0025 21.7156 23.1912 21.3402 25.4717 21.0553C24.7083 22.2458 23.9731 23.4541 23.2665 24.6792V24.6795ZM25.5371 43.0427C23.181 42.7797 20.9595 42.4237 18.9078 41.9769C19.5428 39.9257 20.3253 37.7944 21.2394 35.6265C21.8898 36.883 22.5697 38.124 23.2785 39.3485C24.0074 40.6073 24.7622 41.8403 25.5371 43.0427ZM36.086 51.7618C34.6294 50.1905 33.1767 48.452 31.758 46.5823C33.1354 46.6362 34.5395 46.6638 35.9666 46.6638C37.4328 46.6638 38.8821 46.6309 40.3087 46.5674C38.908 48.4708 37.4938 50.2118 36.086 51.7618ZM50.7531 35.5158C51.7146 37.7075 52.525 39.8276 53.1685 41.8437C51.083 42.3197 48.8311 42.703 46.4585 42.9876C47.2188 41.7823 47.955 40.562 48.6668 39.3274C49.3904 38.0725 50.086 36.8017 50.7531 35.5158V35.5158ZM46.0049 37.7921C44.9153 39.685 43.7644 41.5419 42.5541 43.3599C40.3617 43.5152 38.1645 43.5923 35.9666 43.5912C33.728 43.5912 31.5506 43.5215 29.4538 43.3855C28.2119 41.5716 27.0391 39.7115 25.9378 37.809H25.9381C24.842 35.9165 23.8182 33.9831 22.8689 32.013C23.8158 30.0424 24.8365 28.1081 25.9288 26.2142L25.9286 26.2145C27.0205 24.3201 28.184 22.4679 29.4165 20.6619C31.5556 20.5 33.7493 20.4157 35.9663 20.4157H35.9666C38.1937 20.4157 40.3902 20.5009 42.5288 20.6639C43.7489 22.4672 44.905 24.313 45.9948 26.1979C47.0908 28.0876 48.125 30.0125 49.0958 31.9695C48.135 33.9464 47.104 35.8885 46.0049 37.7921V37.7921ZM52.3441 3.47659C54.7527 4.8658 55.6895 10.4679 54.1761 17.8143C54.0794 18.283 53.971 18.7604 53.853 19.2446C50.8683 18.5556 47.6277 18.0433 44.2347 17.725C42.2582 14.9103 40.2101 12.3514 38.1541 10.136C38.6929 9.61663 39.2446 9.11069 39.8086 8.61869C45.1193 3.99727 50.0827 2.17252 52.3441 3.47659V3.47659ZM35.9666 25.5163C39.5141 25.5163 42.39 28.3922 42.39 31.9397C42.39 35.4872 39.5141 38.3631 35.9666 38.3631C32.4191 38.3631 29.5432 35.4872 29.5432 31.9397C29.5432 28.3922 32.4191 25.5163 35.9666 25.5163V25.5163Z"/>
</mask>
<path d="M59.1434 20.7439C58.3779 20.4813 57.6059 20.238 56.8281 20.0142C56.9587 19.4803 57.079 18.9529 57.1858 18.4348C58.9386 9.92614 57.7927 3.07141 53.8788 0.814502C50.1262 -1.34911 43.9891 0.906947 37.7911 6.3011C37.1802 6.83366 36.5829 7.38158 35.9998 7.94432C35.6094 7.57012 35.2121 7.20317 34.8081 6.84369C28.3122 1.0761 21.8011 -1.35473 17.8914 0.908633C14.1422 3.07899 13.032 9.52292 14.61 17.5867C14.767 18.3854 14.9443 19.1799 15.1417 19.9695C14.22 20.2314 13.3307 20.5102 12.4796 20.8069C4.86364 23.4622 0 27.6234 0 31.9397C0 36.3976 5.22134 40.8689 13.1537 43.5802C13.7968 43.7991 14.4452 44.0019 15.0984 44.1885C14.8862 45.039 14.6979 45.8952 14.5336 46.7562C13.0292 54.6801 14.204 60.9717 17.9431 63.1283C21.805 65.3555 28.2869 63.0665 34.5982 57.5493C35.11 57.1008 35.6105 56.6395 36.0992 56.166C36.7308 56.7753 37.3792 57.3669 38.0437 57.9402C44.1574 63.2008 50.1953 65.3251 53.9308 63.1626C57.7891 60.929 59.0431 54.1701 57.4151 45.947C57.2868 45.3028 57.143 44.6617 56.9837 44.0244C57.439 43.8896 57.8857 43.7508 58.3213 43.6063C66.5677 40.8743 71.9332 36.4571 71.9332 31.9397C71.9332 27.6077 66.9125 23.4184 59.1434 20.7439V20.7439ZM57.3549 40.6897C56.9615 40.8198 56.558 40.9454 56.1467 41.0676C55.2363 38.1855 54.0078 35.121 52.5042 31.9546C53.9389 28.8637 55.1202 25.8383 56.0051 22.975C56.741 23.188 57.455 23.4125 58.1434 23.6494C64.8 25.9411 68.8603 29.329 68.8603 31.9397C68.8603 34.7203 64.4752 38.3302 57.3549 40.6897V40.6897ZM54.4006 46.5438C55.1205 50.1798 55.2231 53.4674 54.7462 56.0376C54.318 58.347 53.4565 59.8866 52.391 60.5033C50.1242 61.8156 45.2763 60.11 40.048 55.6108C39.4299 55.0778 38.8268 54.5278 38.2392 53.9613C40.2663 51.7446 42.292 49.1677 44.269 46.3055C47.7465 45.997 51.0318 45.4923 54.0112 44.8036C54.1547 45.3805 54.2845 45.9608 54.4006 46.5438V46.5438ZM24.5236 60.2766C22.3088 61.0586 20.5448 61.081 19.4784 60.4662C17.2095 59.1577 16.2662 54.1058 17.5528 47.3294C17.7058 46.5287 17.8809 45.7323 18.078 44.9413C21.0244 45.5932 24.2859 46.0619 27.7716 46.3446C29.7621 49.1452 31.8462 51.7193 33.9466 53.9734C33.5002 54.4053 33.0433 54.8262 32.5762 55.2356C29.7851 57.6752 26.9884 59.4061 24.5236 60.2766V60.2766ZM14.1478 40.6725C10.6402 39.4735 7.7435 37.9155 5.75803 36.2152C3.97375 34.6875 3.07318 33.1704 3.07318 31.9397C3.07318 29.3203 6.97808 25.9793 13.4911 23.7087C14.2816 23.4333 15.1088 23.1734 15.9672 22.9295C16.8675 25.8574 18.0482 28.9188 19.4731 32.0144C18.0297 35.1559 16.8321 38.2661 15.9231 41.2286C15.3269 41.0578 14.7349 40.8724 14.1478 40.6725V40.6725ZM17.6259 16.9964C16.274 10.0877 17.1718 4.8762 19.4312 3.56819C21.8376 2.17505 27.159 4.16136 32.7678 9.14161C33.1336 9.46711 33.4934 9.7992 33.8471 10.1377C31.7571 12.382 29.6921 14.937 27.7193 17.7211C24.3362 18.0346 21.0978 18.5382 18.1204 19.2128C17.937 18.4784 17.7721 17.7394 17.6259 16.9967V16.9964ZM48.6547 24.6584C47.9514 23.4437 47.2221 22.2442 46.4672 21.0609C48.7623 21.3512 50.9613 21.7364 53.0263 22.2073C52.4064 24.1945 51.6337 26.2718 50.7242 28.4017C50.0593 27.1403 49.3693 25.8923 48.6547 24.6584V24.6584ZM36.0012 12.3339C37.4185 13.8695 38.838 15.5839 40.2343 17.444C37.4019 17.3102 34.5648 17.3097 31.7324 17.4423C33.13 15.5993 34.5617 13.8872 36.0012 12.3339ZM23.2665 24.6795C22.5607 25.9034 21.8836 27.1437 21.2358 28.3992C20.3411 26.2769 19.5754 24.19 18.9502 22.1747C21.0025 21.7156 23.1912 21.3402 25.4717 21.0553C24.7083 22.2458 23.9731 23.4541 23.2665 24.6792V24.6795ZM25.5371 43.0427C23.181 42.7797 20.9595 42.4237 18.9078 41.9769C19.5428 39.9257 20.3253 37.7944 21.2394 35.6265C21.8898 36.883 22.5697 38.124 23.2785 39.3485C24.0074 40.6073 24.7622 41.8403 25.5371 43.0427ZM36.086 51.7618C34.6294 50.1905 33.1767 48.452 31.758 46.5823C33.1354 46.6362 34.5395 46.6638 35.9666 46.6638C37.4328 46.6638 38.8821 46.6309 40.3087 46.5674C38.908 48.4708 37.4938 50.2118 36.086 51.7618ZM50.7531 35.5158C51.7146 37.7075 52.525 39.8276 53.1685 41.8437C51.083 42.3197 48.8311 42.703 46.4585 42.9876C47.2188 41.7823 47.955 40.562 48.6668 39.3274C49.3904 38.0725 50.086 36.8017 50.7531 35.5158V35.5158ZM46.0049 37.7921C44.9153 39.685 43.7644 41.5419 42.5541 43.3599C40.3617 43.5152 38.1645 43.5923 35.9666 43.5912C33.728 43.5912 31.5506 43.5215 29.4538 43.3855C28.2119 41.5716 27.0391 39.7115 25.9378 37.809H25.9381C24.842 35.9165 23.8182 33.9831 22.8689 32.013C23.8158 30.0424 24.8365 28.1081 25.9288 26.2142L25.9286 26.2145C27.0205 24.3201 28.184 22.4679 29.4165 20.6619C31.5556 20.5 33.7493 20.4157 35.9663 20.4157H35.9666C38.1937 20.4157 40.3902 20.5009 42.5288 20.6639C43.7489 22.4672 44.905 24.313 45.9948 26.1979C47.0908 28.0876 48.125 30.0125 49.0958 31.9695C48.135 33.9464 47.104 35.8885 46.0049 37.7921V37.7921ZM52.3441 3.47659C54.7527 4.8658 55.6895 10.4679 54.1761 17.8143C54.0794 18.283 53.971 18.7604 53.853 19.2446C50.8683 18.5556 47.6277 18.0433 44.2347 17.725C42.2582 14.9103 40.2101 12.3514 38.1541 10.136C38.6929 9.61663 39.2446 9.11069 39.8086 8.61869C45.1193 3.99727 50.0827 2.17252 52.3441 3.47659V3.47659ZM35.9666 25.5163C39.5141 25.5163 42.39 28.3922 42.39 31.9397C42.39 35.4872 39.5141 38.3631 35.9666 38.3631C32.4191 38.3631 29.5432 35.4872 29.5432 31.9397C29.5432 28.3922 32.4191 25.5163 35.9666 25.5163V25.5163Z" fill="#191919" stroke="white" stroke-width="2" mask="url(#path-1-inside-1_115_3)"/>
</svg>
