<svg width="64" height="55" viewBox="0 0 64 55" fill="none" xmlns="http://www.w3.org/2000/svg">
<g clip-path="url(#clip0_57_4)">
<path d="M56.7148 40.04H35.1378C34.8953 40.04 34.4103 40.04 34.1678 40.2823L17.9246 53.1315C17.6821 53.374 17.6821 53.6166 17.9246 53.8591C17.9246 54.1016 18.1671 54.1016 18.4096 54.1016H56.9571C60.8363 54.1016 64.2303 50.707 63.9881 46.5858C63.7456 42.7068 60.3513 40.0398 56.7148 40.0398" fill="#0D55FF"/>
<path d="M39.1113 26.5045C38.8688 24.565 37.899 22.6255 36.4445 21.4133L11.4733 1.53329C8.32154 -0.891207 3.95779 -0.406207 1.53329 2.74554C-0.891207 5.89729 -0.406207 10.261 2.74554 12.6855L20.9283 27.2318L2.74554 41.778C-0.406207 44.2025 -0.891207 48.5665 1.53329 51.718C3.95779 54.8698 8.32154 55.3548 11.4733 52.9305L36.4445 32.5655C38.1415 31.1108 39.1113 29.1713 39.1113 26.9893V26.5043" fill="#0D55FF"/>
<path d="M63.9878 47.0705C63.9878 50.9495 60.836 54.1013 56.957 54.1013C53.078 54.1013 49.9263 50.9495 49.9263 47.0705C49.9263 43.1915 53.078 40.0398 56.957 40.0398C60.836 40.0398 63.9878 43.1915 63.9878 47.0705Z" fill="#0D55FF"/>
</g>
<defs>
<clipPath id="clip0_57_4">
<rect width="64" height="54.5" fill="white"/>
</clipPath>
</defs>
</svg>
