<svg width="32" height="33" viewBox="0 0 32 33" fill="none" xmlns="http://www.w3.org/2000/svg">
<g clip-path="url(#clip0_47_136)">
<path d="M0 0.61853H32V32.6185H0V0.61853Z" fill="#EAEAEA"/>
<path d="M8.41394 27.3601L10.8627 25.8781C11.3352 26.7157 11.7649 27.4244 12.7958 27.4244C13.7839 27.4244 14.4071 27.0379 14.4071 25.5344V15.3097H17.4142V25.5769C17.4142 28.6916 15.5884 30.1093 12.9247 30.1093C10.5191 30.1093 9.12269 28.8634 8.41382 27.3598L8.41394 27.3601ZM19.0476 27.0378L21.4961 25.6202C22.1407 26.6728 22.9784 27.4461 24.4604 27.4461C25.7066 27.4461 26.5011 26.8231 26.5011 25.9638C26.5011 24.9328 25.6848 24.5676 24.3101 23.9663L23.5584 23.6438C21.3888 22.7204 19.9497 21.5604 19.9497 19.1117C19.9497 16.8562 21.6681 15.1377 24.3532 15.1377C26.2649 15.1377 27.6397 15.8037 28.6277 17.5436L26.2862 19.0473C25.7706 18.1237 25.2123 17.7586 24.3531 17.7586C23.4723 17.7586 22.9138 18.3171 22.9138 19.0473C22.9138 19.9494 23.4723 20.3148 24.7611 20.8733L25.5128 21.1954C28.0691 22.2911 29.5082 23.4079 29.5082 25.9209C29.5082 28.6277 27.3817 30.1097 24.5248 30.1097C21.7324 30.1097 19.9281 28.7779 19.0474 27.0379" fill="#191919"/>
</g>
<defs>
<clipPath id="clip0_47_136">
<rect width="32" height="32" fill="white" transform="translate(0 0.61853)"/>
</clipPath>
</defs>
</svg>
