<svg width="32" height="33" viewBox="0 0 32 33" fill="none" xmlns="http://www.w3.org/2000/svg">
<g clip-path="url(#clip0_47_142)">
<path d="M0 0.5H32V32.5H0V0.5Z" fill="#191919"/>
<path d="M8.41394 27.2415L10.8627 25.7595C11.3352 26.5972 11.7649 27.3059 12.7958 27.3059C13.7839 27.3059 14.4071 26.9194 14.4071 25.4159V15.1912H17.4142V25.4584C17.4142 28.573 15.5884 29.9908 12.9247 29.9908C10.5191 29.9908 9.12269 28.7449 8.41382 27.2413L8.41394 27.2415ZM19.0476 26.9193L21.4961 25.5017C22.1407 26.5543 22.9784 27.3275 24.4604 27.3275C25.7066 27.3275 26.5011 26.7045 26.5011 25.8453C26.5011 24.8143 25.6848 24.449 24.3101 23.8478L23.5584 23.5253C21.3888 22.6019 19.9497 21.4419 19.9497 18.9932C19.9497 16.7377 21.6681 15.0192 24.3532 15.0192C26.2649 15.0192 27.6397 15.6852 28.6277 17.425L26.2862 18.9288C25.7706 18.0052 25.2123 17.64 24.3531 17.64C23.4723 17.64 22.9138 18.1985 22.9138 18.9288C22.9138 19.8309 23.4723 20.1963 24.7611 20.7548L25.5128 21.0769C28.0691 22.1725 29.5082 23.2894 29.5082 25.8024C29.5082 28.5092 27.3817 29.9912 24.5248 29.9912C21.7324 29.9912 19.9281 28.6594 19.0474 26.9194" fill="#EAEAEA"/>
</g>
<defs>
<clipPath id="clip0_47_142">
<rect width="32" height="32" fill="white" transform="translate(0 0.5)"/>
</clipPath>
</defs>
</svg>
