<svg width="36" height="33" viewBox="0 0 36 33" fill="none" xmlns="http://www.w3.org/2000/svg">
<path d="M29.5717 10.9904C29.1889 10.8591 28.8029 10.7374 28.414 10.6255C28.4794 10.3586 28.5395 10.0949 28.5929 9.83579C29.4693 5.58148 28.8964 2.15411 26.9394 1.02566C25.0631 -0.056149 21.9946 1.07188 18.8955 3.76896C18.5901 4.03524 18.2915 4.3092 17.9999 4.59057C17.8047 4.40347 17.606 4.22 17.404 4.04025C14.1561 1.15646 10.9006 -0.058959 8.94571 1.07272C7.07109 2.1579 6.516 5.37987 7.30501 9.41178C7.38351 9.8111 7.47215 10.2084 7.57083 10.6032C7.11001 10.7341 6.66534 10.8735 6.23978 11.0218C2.43182 12.3495 0 14.4301 0 16.5882C0 18.8172 2.61067 21.0529 6.57683 22.4085C6.89838 22.518 7.2226 22.6194 7.54919 22.7127C7.44312 23.1379 7.34896 23.566 7.2668 23.9965C6.51459 27.9585 7.102 31.1043 8.97156 32.1826C10.9025 33.2961 14.1434 32.1517 17.2991 29.3931C17.555 29.1688 17.8052 28.9382 18.0496 28.7014C18.3654 29.0061 18.6896 29.3019 19.0218 29.5885C22.0787 32.2188 25.0977 33.281 26.9654 32.1997C28.8945 31.0829 29.5216 27.7035 28.7075 23.5919C28.6434 23.2698 28.5715 22.9493 28.4919 22.6306C28.7195 22.5632 28.9429 22.4938 29.1606 22.4216C33.2839 21.0555 35.9666 18.847 35.9666 16.5882C35.9666 14.4222 33.4562 12.3276 29.5717 10.9904V10.9904ZM28.6775 20.9632C28.4808 21.0283 28.279 21.0911 28.0733 21.1522C27.6181 19.7112 27.0039 18.1789 26.2521 16.5957C26.9695 15.0502 27.5601 13.5375 28.0025 12.1059C28.3705 12.2124 28.7275 12.3247 29.0717 12.4431C32.4 13.589 34.4302 15.2829 34.4302 16.5882C34.4302 17.9786 32.2376 19.7835 28.6775 20.9632V20.9632ZM27.2003 23.8903C27.5603 25.7083 27.6115 27.3521 27.3731 28.6372C27.159 29.7919 26.7282 30.5617 26.1955 30.8701C25.0621 31.5262 22.6382 30.6734 20.024 28.4238C19.7149 28.1573 19.4134 27.8823 19.1196 27.5991C20.1332 26.4907 21.146 25.2022 22.1345 23.7712C23.8733 23.6169 25.5159 23.3646 27.0056 23.0202C27.0773 23.3087 27.1423 23.5988 27.2003 23.8903V23.8903ZM12.2618 30.7567C11.1544 31.1477 10.2724 31.1589 9.73922 30.8515C8.60473 30.1972 8.13309 27.6713 8.77641 24.2831C8.85289 23.8828 8.94045 23.4846 9.039 23.0891C10.5122 23.415 12.1429 23.6494 13.8858 23.7907C14.881 25.191 15.9231 26.4781 16.9733 27.6051C16.7501 27.8211 16.5216 28.0315 16.2881 28.2362C14.8926 29.456 13.4942 30.3214 12.2618 30.7567V30.7567ZM7.0739 20.9547C5.32011 20.3552 3.87175 19.5761 2.87901 18.726C1.98687 17.9621 1.53659 17.2036 1.53659 16.5882C1.53659 15.2786 3.48904 13.6081 6.74557 12.4727C7.14078 12.335 7.55439 12.2051 7.9836 12.0831C8.43375 13.5471 9.02411 15.0778 9.73655 16.6256C9.01483 18.1963 8.41605 19.7515 7.96155 21.2327C7.66343 21.1473 7.36746 21.0546 7.0739 20.9547V20.9547ZM8.81294 9.1166C8.13702 5.66226 8.5859 3.05651 9.71562 2.40251C10.9188 1.70593 13.5795 2.69909 16.3839 5.18922C16.5668 5.35196 16.7467 5.51801 16.9236 5.68727C15.8786 6.8094 14.8461 8.08692 13.8596 9.47894C12.1681 9.63573 10.5489 9.88749 9.06021 10.2248C8.96849 9.8576 8.88604 9.48812 8.81294 9.11674V9.1166ZM24.3273 12.9476C23.9757 12.3402 23.611 11.7405 23.2336 11.1489C24.3811 11.294 25.4807 11.4866 26.5131 11.7221C26.2032 12.7156 25.8169 13.7543 25.3621 14.8193C25.0297 14.1886 24.6847 13.5645 24.3273 12.9476V12.9476ZM18.0006 6.78537C18.7092 7.55318 19.419 8.41033 20.1171 9.34041C18.7009 9.27352 17.2824 9.27324 15.8662 9.33956C16.565 8.41806 17.2808 7.56203 18.0006 6.78537ZM11.6332 12.9581C11.2804 13.5701 10.9418 14.1902 10.6179 14.818C10.1705 13.7569 9.78769 12.7134 9.47509 11.7058C10.5013 11.4762 11.5956 11.2885 12.7358 11.146C12.3542 11.7413 11.9865 12.3455 11.6332 12.958V12.9581ZM12.7686 22.1397C11.5905 22.0082 10.4798 21.8302 9.45388 21.6068C9.7714 20.5812 10.1627 19.5156 10.6197 18.4317C10.9449 19.0599 11.2849 19.6804 11.6393 20.2927C12.0037 20.9221 12.3811 21.5386 12.7686 22.1397ZM18.043 26.4993C17.3147 25.7136 16.5883 24.8444 15.879 23.9096C16.5677 23.9365 17.2697 23.9503 17.9833 23.9503C18.7164 23.9503 19.4411 23.9339 20.1544 23.9021C19.454 24.8538 18.7469 25.7243 18.043 26.4993ZM25.3765 18.3763C25.8573 19.4722 26.2625 20.5322 26.5842 21.5403C25.5415 21.7783 24.4156 21.9699 23.2292 22.1122C23.6094 21.5096 23.9775 20.8994 24.3334 20.2821C24.6952 19.6547 25.043 19.0192 25.3765 18.3763V18.3763ZM23.0025 19.5145C22.4577 20.4609 21.8822 21.3893 21.2771 22.2984C20.1809 22.376 19.0822 22.4146 17.9833 22.414C16.864 22.414 15.7753 22.3791 14.7269 22.3111C14.106 21.4042 13.5195 20.4741 12.9689 19.5229H12.9691C12.421 18.5767 11.9091 17.61 11.4344 16.6249C11.9079 15.6396 12.4182 14.6725 12.9644 13.7255L12.9643 13.7257C13.5102 12.7785 14.092 11.8524 14.7082 10.9494C15.7778 10.8684 16.8747 10.8263 17.9832 10.8263H17.9833C19.0969 10.8263 20.1951 10.8688 21.2644 10.9503C21.8745 11.852 22.4525 12.7749 22.9974 13.7174C23.5454 14.6622 24.0625 15.6247 24.5479 16.6031C24.0675 17.5916 23.552 18.5627 23.0025 19.5145V19.5145ZM26.172 2.3567C27.3763 3.05131 27.8448 5.85235 27.0881 9.52558C27.0397 9.75992 26.9855 9.99862 26.9265 10.2407C25.4342 9.8962 23.8138 9.64008 22.1174 9.4809C21.1291 8.07357 20.1051 6.79408 19.0771 5.68643C19.3465 5.42672 19.6223 5.17375 19.9043 4.92776C22.5596 2.61704 25.0413 1.70467 26.172 2.3567V2.3567ZM17.9833 13.3765C19.757 13.3765 21.195 14.8145 21.195 16.5882C21.195 18.362 19.757 19.7999 17.9833 19.7999C16.2096 19.7999 14.7716 18.362 14.7716 16.5882C14.7716 14.8145 16.2096 13.3765 17.9833 13.3765V13.3765Z" fill="#EAEAEA"/>
</svg>
