<svg width="36" height="33" viewBox="0 0 36 33" fill="none" xmlns="http://www.w3.org/2000/svg">
<path d="M29.5717 10.8718C29.1889 10.7405 28.8029 10.6189 28.414 10.507C28.4794 10.24 28.5395 9.97633 28.5929 9.71726C29.4693 5.46295 28.8964 2.03558 26.9394 0.907129C25.0631 -0.174679 21.9946 0.953351 18.8955 3.65043C18.5901 3.91671 18.2915 4.19067 17.9999 4.47204C17.8047 4.28494 17.606 4.10147 17.404 3.92172C14.1561 1.03793 10.9006 -0.177489 8.94571 0.954194C7.07109 2.03937 6.516 5.26134 7.30501 9.29325C7.38351 9.69257 7.47215 10.0898 7.57083 10.4846C7.11001 10.6156 6.66534 10.755 6.23978 10.9033C2.43182 12.231 0 14.3116 0 16.4697C0 18.6987 2.61067 20.9343 6.57683 22.29C6.89838 22.3994 7.2226 22.5009 7.54919 22.5941C7.44312 23.0194 7.34896 23.4475 7.2668 23.878C6.51459 27.8399 7.102 30.9858 8.97156 32.064C10.9025 33.1776 14.1434 32.0331 17.2991 29.2745C17.555 29.0503 17.8052 28.8196 18.0496 28.5829C18.3654 28.8875 18.6896 29.1833 19.0218 29.47C22.0787 32.1003 25.0977 33.1624 26.9654 32.0812C28.8945 30.9644 29.5216 27.5849 28.7075 23.4734C28.6434 23.1513 28.5715 22.8307 28.4919 22.5121C28.7195 22.4447 28.9429 22.3753 29.1606 22.303C33.2839 20.937 35.9666 18.7284 35.9666 16.4697C35.9666 14.3037 33.4562 12.2091 29.5717 10.8718ZM28.6775 20.8447C28.4808 20.9098 28.279 20.9726 28.0733 21.0337C27.6181 19.5926 27.0039 18.0604 26.2521 16.4772C26.9695 14.9317 27.5601 13.419 28.0025 11.9874C28.3705 12.0939 28.7275 12.2061 29.0717 12.3246C32.4 13.4704 34.4302 15.1644 34.4302 16.4697C34.4302 17.86 32.2376 19.665 28.6775 20.8447ZM27.2003 23.7718C27.5603 25.5898 27.6115 27.2336 27.3731 28.5187C27.159 29.6734 26.7282 30.4432 26.1955 30.7515C25.0621 31.4077 22.6382 30.5549 20.024 28.3053C19.7149 28.0388 19.4134 27.7638 19.1196 27.4806C20.1332 26.3722 21.146 25.0837 22.1345 23.6526C23.8733 23.4984 25.5159 23.246 27.0056 22.9017C27.0773 23.1901 27.1423 23.4803 27.2003 23.7718ZM12.2618 30.6382C11.1544 31.0292 10.2724 31.0404 9.73922 30.733C8.60473 30.0787 8.13309 27.5528 8.77641 24.1646C8.85289 23.7642 8.94045 23.3661 9.039 22.9705C10.5122 23.2965 12.1429 23.5308 13.8858 23.6722C14.881 25.0725 15.9231 26.3595 16.9733 27.4866C16.7501 27.7025 16.5216 27.913 16.2881 28.1177C14.8926 29.3375 13.4942 30.2029 12.2618 30.6382ZM7.0739 20.8361C5.32011 20.2367 3.87175 19.4576 2.87901 18.6075C1.98687 17.8436 1.53659 17.0851 1.53659 16.4697C1.53659 15.16 3.48904 13.4895 6.74556 12.3542C7.14078 12.2165 7.55439 12.0866 7.9836 11.9646C8.43375 13.4286 9.02411 14.9593 9.73655 16.5071C9.01483 18.0778 8.41605 19.6329 7.96155 21.1142C7.66343 21.0288 7.36746 20.9361 7.0739 20.8361ZM8.81294 8.99807C8.13702 5.54373 8.5859 2.93798 9.71562 2.28398C10.9188 1.5874 13.5795 2.58056 16.3839 5.07068C16.5668 5.23343 16.7467 5.39948 16.9236 5.56874C15.8786 6.69087 14.8461 7.96839 13.8596 9.3604C12.1681 9.5172 10.5489 9.76896 9.06021 10.1063C8.96849 9.73907 8.88604 9.36959 8.81294 8.99821V8.99807ZM24.3273 12.8291C23.9757 12.2217 23.611 11.622 23.2336 11.0303C24.3811 11.1755 25.4807 11.3681 26.5131 11.6035C26.2032 12.5971 25.8169 13.6358 25.3621 14.7007C25.0297 14.07 24.6847 13.446 24.3273 12.8291ZM18.0006 6.66684C18.7092 7.43465 19.419 8.2918 20.1171 9.22188C18.7009 9.15499 17.2824 9.15471 15.8662 9.22104C16.565 8.29953 17.2808 7.4435 18.0006 6.66684ZM11.6332 12.8396C11.2804 13.4516 10.9418 14.0717 10.6179 14.6995C10.1705 13.6383 9.78769 12.5949 9.47509 11.5872C10.5013 11.3577 11.5956 11.17 12.7358 11.0275C12.3542 11.6228 11.9865 12.2269 11.6332 12.8395V12.8396ZM12.7686 22.0212C11.5905 21.8897 10.4798 21.7117 9.45388 21.4883C9.7714 20.4627 10.1627 19.3971 10.6197 18.3131C10.9449 18.9414 11.2849 19.5619 11.6393 20.1741C12.0037 20.8035 12.3811 21.42 12.7686 22.0212ZM18.043 26.3808C17.3147 25.5951 16.5883 24.7259 15.879 23.791C16.5677 23.818 17.2697 23.8318 17.9833 23.8318C18.7164 23.8318 19.4411 23.8153 20.1544 23.7836C19.454 24.7353 18.7469 25.6058 18.043 26.3808ZM25.3765 18.2578C25.8573 19.3536 26.2625 20.4137 26.5842 21.4217C25.5415 21.6597 24.4156 21.8514 23.2292 21.9937C23.6094 21.391 23.9775 20.7809 24.3334 20.1636C24.6952 19.5361 25.043 18.9007 25.3765 18.2578ZM23.0025 19.3959C22.4577 20.3424 21.8822 21.2708 21.2771 22.1798C20.1809 22.2575 19.0822 22.296 17.9833 22.2955C16.864 22.2955 15.7753 22.2606 14.7269 22.1926C14.106 21.2857 13.5195 20.3556 12.9689 19.4044H12.9691C12.421 18.4581 11.9091 17.4915 11.4344 16.5064C11.9079 15.5211 12.4182 14.5539 12.9644 13.607L12.9643 13.6071C13.5102 12.66 14.092 11.7338 14.7082 10.8308C15.7778 10.7499 16.8747 10.7077 17.9832 10.7077H17.9833C19.0969 10.7077 20.1951 10.7503 21.2644 10.8318C21.8745 11.7335 22.4525 12.6564 22.9974 13.5988C23.5454 14.5437 24.0625 15.5061 24.5479 16.4846C24.0675 17.4731 23.552 18.4441 23.0025 19.3959ZM26.172 2.23817C27.3763 2.93278 27.8448 5.73382 27.0881 9.40705C27.0397 9.64139 26.9855 9.88009 26.9265 10.1222C25.4342 9.77767 23.8138 9.52155 22.1174 9.36237C21.1291 7.95504 20.1051 6.67555 19.0771 5.56789C19.3465 5.30819 19.6223 5.05522 19.9043 4.80922C22.5596 2.49851 25.0413 1.58614 26.172 2.23817ZM17.9833 13.258C19.757 13.258 21.195 14.696 21.195 16.4697C21.195 18.2435 19.757 19.6814 17.9833 19.6814C16.2096 19.6814 14.7716 18.2435 14.7716 16.4697C14.7716 14.696 16.2096 13.258 17.9833 13.258Z" fill="#191919"/>
</svg>
