<svg width="35" height="33" viewBox="0 0 35 33" fill="none" xmlns="http://www.w3.org/2000/svg">
<path d="M24.1043 22.9671C25.3356 22.8391 26.2705 21.7664 26.2288 20.4794C26.208 19.8608 25.9487 19.2743 25.5053 18.8425C25.0618 18.4107 24.4686 18.1672 23.8497 18.1629H23.7634C22.4459 18.2046 21.426 19.3204 21.4678 20.6505C21.5123 21.2947 21.7669 21.8512 22.1495 22.2366C20.7039 25.1124 18.4946 27.2133 15.1791 28.9719C12.9279 30.174 10.5905 30.6025 8.25455 30.302C6.34151 30.0446 4.8542 29.1862 3.91925 27.7712C2.55994 25.6704 2.43333 23.3956 3.57977 21.1222C4.38672 19.493 5.66255 18.2909 6.46951 17.6912C6.25064 16.9709 6.06631 16.2406 5.91716 15.5027C-0.244928 20.0077 0.393681 26.0989 2.26081 28.9733C3.66325 31.1187 6.50985 32.4488 9.65559 32.4488C10.5144 32.4546 11.3706 32.3537 12.2045 32.1483C17.6445 31.077 21.7655 27.8157 24.1029 22.9684L24.1043 22.9671ZM31.5825 17.6481C28.3533 13.8304 23.5937 11.7281 18.1551 11.7281H17.4747C17.281 11.3419 16.9838 11.0171 16.6163 10.7898C16.2488 10.5626 15.8254 10.4419 15.3933 10.4411H15.3071C13.9909 10.4843 12.9697 11.6001 13.0128 12.9302C13.0546 14.2171 14.1175 15.2453 15.3919 15.2453H15.4782C15.927 15.2221 16.3602 15.073 16.7283 14.8152C17.0964 14.5573 17.3845 14.2011 17.5596 13.7872H18.3248C21.554 13.7872 24.6135 14.7305 27.3752 16.5754C29.4998 17.9917 31.0302 19.8352 31.8789 22.0669C32.6024 23.8672 32.5606 25.6258 31.7954 27.1284C30.6045 29.4018 28.6079 30.6457 25.9728 30.6457C24.274 30.6457 22.6587 30.1309 21.8086 29.7441C21.197 30.2897 20.559 30.8051 19.897 31.2884C21.7238 32.1469 23.5937 32.6185 25.3787 32.6185C29.458 32.6185 32.4744 30.3451 33.6222 28.0717C34.8535 25.5841 34.7686 21.2947 31.5825 17.6481ZM9.99646 23.6961C10.0382 24.9831 11.1012 26.0126 12.3756 26.0126H12.4605C13.778 25.9709 14.7979 24.8551 14.7561 23.525C14.7353 22.9064 14.476 22.3198 14.0326 21.8881C13.5892 21.4563 12.9959 21.2128 12.377 21.2084H12.2907C12.1897 21.2018 12.0883 21.216 11.993 21.2502C10.2511 18.334 9.52898 15.1604 9.78359 11.7281C9.95333 9.15418 10.8034 6.92392 12.2907 5.07905C13.5234 3.49297 15.9026 2.72079 17.5179 2.67766C22.0215 2.5914 23.9332 8.25401 24.0612 10.5274C24.6135 10.6554 25.5485 10.9559 26.1857 11.1702C25.6751 4.22201 21.4274 0.61853 17.3467 0.61853C13.5234 0.61853 9.99646 3.4067 8.59403 7.52497C6.63925 13.0151 7.91368 18.2909 10.2942 22.4523C10.0813 22.7528 9.95333 23.2244 9.99646 23.6961V23.6961Z" fill="#EAEAEA"/>
</svg>
