<svg width="35" height="33" viewBox="0 0 35 33" fill="none" xmlns="http://www.w3.org/2000/svg">
<path d="M24.1043 22.8485C25.3356 22.7205 26.2705 21.6478 26.2288 20.3609C26.208 19.7423 25.9487 19.1557 25.5053 18.724C25.0618 18.2922 24.4686 18.0487 23.8497 18.0443H23.7634C22.4459 18.0861 21.426 19.2019 21.4678 20.532C21.5123 21.1762 21.7669 21.7327 22.1495 22.1181C20.7039 24.9939 18.4946 27.0948 15.1791 28.8534C12.9279 30.0555 10.5906 30.484 8.25455 30.1835C6.34151 29.9261 4.8542 29.0677 3.91925 27.6527C2.55994 25.5518 2.43333 23.277 3.57977 21.0037C4.38672 19.3744 5.66255 18.1723 6.46951 17.5727C6.25064 16.8524 6.06631 16.1221 5.91716 15.3842C-0.244928 19.8892 0.393681 25.9803 2.26081 28.8548C3.66325 31.0002 6.50985 32.3303 9.65559 32.3303C10.5144 32.3361 11.3706 32.2351 12.2045 32.0297C17.6445 30.9584 21.7655 27.6972 24.1029 22.8499L24.1043 22.8485ZM31.5826 17.5296C28.3533 13.7118 23.5937 11.6096 18.1551 11.6096H17.4747C17.281 11.2234 16.9838 10.8986 16.6163 10.6713C16.2488 10.4441 15.8254 10.3234 15.3933 10.3226H15.3071C13.9909 10.3657 12.9697 11.4816 13.0128 12.8117C13.0546 14.0986 14.1175 15.1268 15.3919 15.1268H15.4782C15.927 15.1036 16.3602 14.9545 16.7283 14.6967C17.0964 14.4388 17.3845 14.0826 17.5596 13.6687H18.3248C21.554 13.6687 24.6135 14.612 27.3752 16.4569C29.4998 17.8732 31.0302 19.7167 31.8789 21.9483C32.6024 23.7487 32.5606 25.5073 31.7954 27.0099C30.6045 29.2833 28.6079 30.5271 25.9728 30.5271C24.274 30.5271 22.6587 30.0123 21.8086 29.6256C21.197 30.1712 20.559 30.6866 19.897 31.1699C21.7238 32.0283 23.5937 32.5 25.3787 32.5C29.458 32.5 32.4744 30.2266 33.6222 27.9532C34.8535 25.4656 34.7686 21.1762 31.5826 17.5296ZM9.99646 23.5776C10.0382 24.8645 11.1012 25.8941 12.3756 25.8941H12.4605C13.778 25.8524 14.7979 24.7365 14.7561 23.4064C14.7353 22.7879 14.476 22.2013 14.0326 21.7695C13.5892 21.3378 12.9959 21.0942 12.377 21.0899H12.2907C12.1897 21.0832 12.0883 21.0974 11.993 21.1317C10.2511 18.2155 9.52899 15.0419 9.78359 11.6096C9.95333 9.03565 10.8034 6.80539 12.2907 4.96052C13.5234 3.37443 15.9025 2.60226 17.5179 2.55913C22.0215 2.47287 23.9332 8.13548 24.0612 10.4089C24.6135 10.5369 25.5485 10.8374 26.1857 11.0517C25.6751 4.10348 21.4274 0.5 17.3467 0.5C13.5234 0.5 9.99646 3.28817 8.59403 7.40644C6.63925 12.8965 7.91368 18.1723 10.2942 22.3337C10.0813 22.6343 9.95333 23.1059 9.99646 23.5776Z" fill="#191919"/>
</svg>
