<svg width="36" height="36" viewBox="0 0 36 36" fill="none" xmlns="http://www.w3.org/2000/svg">
<circle cx="18" cy="18" r="18" fill="#840AFA"/>
<path fill-rule="evenodd" clip-rule="evenodd" d="M10.1927 8C8.76562 8 7.71042 9.25425 7.75833 10.6131C7.80312 11.9207 7.74479 13.6122 7.32083 14.992C6.89375 16.3749 6.175 17.2515 5 17.3645V18.6355C6.175 18.7474 6.89479 19.624 7.31979 21.008C7.74479 22.3878 7.80312 24.0793 7.75729 25.3858C7.71042 26.7458 8.76562 28 10.1927 28H24.8094C26.2365 28 27.2917 26.7458 27.2437 25.3858C27.199 24.0793 27.2573 22.3878 27.6812 21.008C28.1073 19.624 28.825 18.7485 30 18.6355V17.3645C28.825 17.2515 28.1073 16.3749 27.6812 14.992C27.2573 13.6112 27.199 11.9197 27.2437 10.6131C27.2917 9.2532 26.2354 8 24.8094 8H10.1927ZM21.9479 20.3113C21.9479 22.1838 20.5573 23.3188 18.25 23.3188H14.3219C14.2094 23.3188 14.1016 23.2739 14.0221 23.1941C13.9426 23.1142 13.8979 23.006 13.8979 22.893V13.1059C13.8982 12.9932 13.943 12.8852 14.0225 12.8055C14.1019 12.7259 14.2096 12.6812 14.3219 12.6812H18.2281C20.1521 12.6812 21.4156 13.7273 21.4156 15.3351C21.4156 16.4628 20.5656 17.4723 19.4833 17.6501V17.7087C20.9573 17.8708 21.949 18.896 21.949 20.3113H21.9479ZM17.8229 14.0296H15.5833V17.2076H17.4698C18.9281 17.2076 19.7323 16.6176 19.7323 15.5632C19.7323 14.5757 19.0406 14.0296 17.8229 14.0296ZM15.5833 18.4681V21.9694H17.9062C19.424 21.9694 20.2292 21.3574 20.2292 20.2078C20.2292 19.0571 19.4021 18.4681 17.8083 18.4681H15.5833Z" fill="white"/>
</svg>
