<svg width="40" height="40" viewBox="0 0 40 40" fill="none" xmlns="http://www.w3.org/2000/svg">
<circle cx="20" cy="20" r="20" fill="white"/>
<path d="M10.246 33.201L8 8H32.688L30.439 33.197L20.329 36L10.246 33.201Z" fill="#1572B6"/>
<path d="M20.344 33.858L28.514 31.593L30.436 10.061H20.344V33.858Z" fill="#33A9DC"/>
<path d="M20.344 19.191H24.434L24.716 16.026H20.344V12.935H28.094L28.02 13.764L27.261 22.282H20.344V19.191V19.191Z" fill="white"/>
<path d="M20.363 27.218L20.349 27.222L16.907 26.292L16.687 23.827H13.584L14.017 28.68L20.348 30.438L20.363 30.434V27.218V27.218Z" fill="#EBEBEB"/>
<path d="M24.1711 22.151L23.7991 26.29L20.3521 27.22V30.436L26.6881 28.68L26.7351 28.158L27.2721 22.151H24.1711V22.151Z" fill="white"/>
<path d="M20.3549 12.935V16.026H12.8889L12.8269 15.331L12.6859 13.764L12.6119 12.935H20.3549V12.935ZM20.3439 19.191V22.282H16.9449L16.8829 21.587L16.7429 20.02L16.6689 19.191H20.3439V19.191Z" fill="#EBEBEB"/>
</svg>
