<svg width="36" height="36" viewBox="0 0 36 36" fill="none" xmlns="http://www.w3.org/2000/svg">
<circle cx="18" cy="18" r="18" fill="white"/>
<g clip-path="url(#clip0_77_297)">
<path d="M13.3333 31C15.7253 31 17.6667 29.0587 17.6667 26.6667V22.3334H13.3333C10.9413 22.3334 9 24.2747 9 26.6667C9 29.0587 10.9413 31 13.3333 31Z" fill="#0ACF83"/>
<path d="M9 18C9 15.608 10.9413 13.6666 13.3333 13.6666H17.6667V22.3333H13.3333C10.9413 22.3333 9 20.392 9 18Z" fill="#A259FF"/>
<path d="M9 9.33333C9 6.94133 10.9413 5 13.3333 5H17.6667V13.6667H13.3333C10.9413 13.6667 9 11.7253 9 9.33333Z" fill="#F24E1E"/>
<path d="M17.6666 5H22C24.392 5 26.3333 6.94133 26.3333 9.33333C26.3333 11.7253 24.392 13.6667 22 13.6667H17.6666V5Z" fill="#FF7262"/>
<path d="M26.3333 18C26.3333 20.392 24.392 22.3333 22 22.3333C19.608 22.3333 17.6666 20.392 17.6666 18C17.6666 15.608 19.608 13.6666 22 13.6666C24.392 13.6666 26.3333 15.608 26.3333 18Z" fill="#1ABCFE"/>
</g>
<defs>
<clipPath id="clip0_77_297">
<rect width="17.3333" height="26" fill="white" transform="translate(9 5)"/>
</clipPath>
</defs>
</svg>
