<svg width="36" height="36" viewBox="0 0 36 36" fill="none" xmlns="http://www.w3.org/2000/svg">
<circle cx="18" cy="18" r="18" fill="white"/>
<path d="M8 26.5995L8.17 26.3625L16.19 11.1485L16.207 10.9875L12.672 4.34745C12.6073 4.22603 12.506 4.12803 12.3826 4.06732C12.2591 4.0066 12.1196 3.98625 11.984 4.00914C11.8483 4.03203 11.7232 4.097 11.6265 4.19486C11.5298 4.29272 11.4663 4.41852 11.445 4.55445L8 26.5995Z" fill="#FFC24A"/>
<path d="M8.10004 26.4195L8.22804 26.1695L16.165 11.1135L12.639 4.44745C12.5809 4.33152 12.4867 4.23756 12.3707 4.17963C12.2547 4.1217 12.123 4.10293 11.9954 4.12613C11.8678 4.14933 11.7511 4.21325 11.6629 4.30832C11.5747 4.40338 11.5197 4.52447 11.506 4.65345L8.10004 26.4195Z" fill="#FFA712"/>
<path d="M18.784 16.0095L21.416 13.3095L18.783 8.28847C18.7251 8.18041 18.6389 8.09009 18.5337 8.02713C18.4285 7.96416 18.3081 7.93091 18.1855 7.93091C18.0629 7.93091 17.9426 7.96416 17.8374 8.02713C17.7322 8.09009 17.646 8.18041 17.588 8.28847L16.181 10.9705V11.1995L18.784 16.0095Z" fill="#F4BD62"/>
<path d="M18.737 15.8994L21.296 13.2794L18.737 8.39943C18.6951 8.29379 18.6236 8.20253 18.531 8.13665C18.4384 8.07076 18.3288 8.03306 18.2153 8.02809C18.1017 8.02312 17.9892 8.0511 17.8912 8.10865C17.7932 8.16619 17.714 8.25086 17.663 8.35243L16.249 11.0814L16.207 11.2204L18.737 15.8994Z" fill="#FFA50E"/>
<path d="M8.00201 26.6004L8.07901 26.5224L8.35801 26.4094L18.618 16.1874L18.748 15.8334L16.189 10.9554L8.00201 26.6004V26.6004Z" fill="#F6820C"/>
<path d="M19.112 31.7555L28.4 26.5765L25.746 10.2455C25.727 10.1303 25.6766 10.0227 25.6004 9.93431C25.5242 9.84594 25.4251 9.78028 25.314 9.74453C25.203 9.70878 25.0842 9.70432 24.9708 9.73165C24.8573 9.75899 24.7536 9.81705 24.671 9.89946L8 26.5995L17.233 31.7545C17.52 31.9146 17.8433 31.9987 18.172 31.9987C18.5007 31.9987 18.824 31.9146 19.111 31.7545" fill="#FDE068"/>
<path d="M28.315 26.5334L25.683 10.3254C25.6784 10.2153 25.6412 10.1091 25.5761 10.0201C25.5111 9.93115 25.4211 9.8635 25.3175 9.8257C25.214 9.78791 25.1016 9.78168 24.9945 9.8078C24.8874 9.83392 24.7905 9.89122 24.716 9.97244L8.10004 26.5684L17.231 31.6684C17.5158 31.8273 17.8365 31.9107 18.1625 31.9107C18.4886 31.9107 18.8093 31.8273 19.094 31.6684L28.315 26.5334Z" fill="#FCCA3F"/>
<path d="M19.112 31.5995C18.825 31.7596 18.5017 31.8437 18.173 31.8437C17.8443 31.8437 17.521 31.7596 17.234 31.5995L8.076 26.5215L8 26.5995L17.233 31.7545C17.52 31.9146 17.8433 31.9987 18.172 31.9987C18.5007 31.9987 18.824 31.9146 19.111 31.7545L28.4 26.5765L28.377 26.4365L19.112 31.5995Z" fill="#EEAB37"/>
</svg>
