<svg width="36" height="36" viewBox="0 0 36 36" fill="none" xmlns="http://www.w3.org/2000/svg">
<circle cx="18" cy="18" r="18" fill="white"/>
<rect x="15" y="9" width="6" height="18" fill="white"/>
<rect x="11.1556" y="10.0752" width="6.39428" height="18.4493" transform="rotate(-45 11.1556 10.0752)" fill="white"/>
<path d="M31.4707 16.7522L19.2447 4.52826C19.0773 4.36079 18.8785 4.22794 18.6598 4.13729C18.441 4.04665 18.2065 4 17.9697 4C17.7329 4 17.4985 4.04665 17.2797 4.13729C17.061 4.22794 16.8622 4.36079 16.6948 4.52826L14.1572 7.06581L17.3773 10.2859C17.7571 10.1562 18.1657 10.1359 18.5564 10.2273C18.9472 10.3187 19.3044 10.5181 19.5872 10.8028C19.8701 11.0875 20.0672 11.4459 20.1561 11.8372C20.245 12.2286 20.2221 12.637 20.09 13.0159L23.1928 16.1205C23.6519 15.9588 24.1523 15.9583 24.6117 16.1191C25.0711 16.2798 25.462 16.5922 25.7202 17.0048C25.9783 17.4173 26.0883 17.9055 26.0319 18.3889C25.9756 18.8723 25.7563 19.3221 25.4102 19.6643C25.0598 20.0168 24.5979 20.2368 24.1033 20.2865C23.6088 20.3363 23.1123 20.2129 22.6986 19.9373C22.285 19.6617 21.9799 19.251 21.8354 18.7754C21.691 18.2998 21.7161 17.7888 21.9065 17.3297L19.0137 14.4352V22.0531C19.4534 22.2707 19.8052 22.6325 20.0105 23.0781C20.2158 23.5237 20.2622 24.0262 20.1419 24.5019C20.0217 24.9776 19.742 25.3976 19.3495 25.6921C18.9571 25.9865 18.4756 26.1376 17.9852 26.1201C17.4949 26.1026 17.0254 25.9176 16.6549 25.5959C16.2845 25.2741 16.0355 24.8352 15.9495 24.3522C15.8634 23.8691 15.9455 23.3712 16.1821 22.9414C16.4187 22.5116 16.7955 22.1758 17.2496 21.9901V14.3022C16.9876 14.1948 16.7494 14.0367 16.5488 13.8368C16.3482 13.637 16.1892 13.3995 16.0808 13.1379C15.9725 12.8763 15.917 12.5958 15.9175 12.3127C15.9181 12.0295 15.9747 11.7493 16.084 11.4881L12.9111 8.31358L4.52828 16.6962C4.3608 16.8636 4.22794 17.0624 4.1373 17.2811C4.04665 17.4999 4 17.7343 4 17.9711C4 18.2079 4.04665 18.4424 4.1373 18.6611C4.22794 18.8799 4.3608 19.0786 4.52828 19.246L16.7543 31.4717C16.9217 31.6392 17.1205 31.7721 17.3392 31.8627C17.558 31.9533 17.7924 32 18.0292 32C18.266 32 18.5005 31.9533 18.7193 31.8627C18.938 31.7721 19.1368 31.6392 19.3042 31.4717L31.4724 19.3038C31.8103 18.9655 32 18.5069 32 18.0289C32 17.5508 31.8103 17.0923 31.4724 16.754" fill="#F1502F"/>
</svg>
