<svg width="40" height="40" viewBox="0 0 40 40" fill="none" xmlns="http://www.w3.org/2000/svg">
<circle cx="20" cy="20" r="20" fill="white"/>
<path d="M10.247 33.201L8 8H32.69L30.44 33.197L20.33 36L10.247 33.201Z" fill="#E44F26"/>
<path d="M20.345 33.858L28.515 31.593L30.437 10.061H20.345V33.858Z" fill="#F1662A"/>
<path d="M20.345 19.407H16.255L15.973 16.242H20.345V13.151H12.595L12.669 13.981L13.428 22.498H20.345V19.407V19.407ZM20.345 27.434L20.331 27.438L16.889 26.509L16.669 24.044H13.566L13.999 28.896L20.331 30.654L20.345 30.65V27.434Z" fill="#EBEBEB"/>
<path d="M20.334 19.407V22.498H24.14L23.782 26.507L20.334 27.437V30.653L26.671 28.896L26.717 28.374L27.443 20.237L27.519 19.407H20.334V19.407ZM20.334 13.151V16.242H27.8L27.862 15.548L28.003 13.981L28.077 13.151H20.334V13.151Z" fill="white"/>
</svg>
