<svg width="36" height="36" viewBox="0 0 36 36" fill="none" xmlns="http://www.w3.org/2000/svg">
<path d="M0 0H36V36H0V0Z" fill="#F0D84F"/>
<path d="M9.46572 30.0843L12.2206 28.417C12.7521 29.3594 13.2356 30.1567 14.3953 30.1567C15.507 30.1567 16.208 29.7219 16.208 28.0305V16.5276H19.591V28.0783C19.591 31.5822 17.537 33.1772 14.5403 33.1772C11.834 33.1772 10.2631 31.7756 9.46558 30.084L9.46572 30.0843ZM21.4285 29.7217L24.1831 28.1269C24.9083 29.3111 25.8508 30.181 27.518 30.181C28.9199 30.181 29.8137 29.4802 29.8137 28.5135C29.8137 27.3536 28.8954 26.9427 27.3489 26.2663L26.5033 25.9035C24.0624 24.8647 22.4434 23.5597 22.4434 20.8049C22.4434 18.2674 24.3766 16.3341 27.3974 16.3341C29.5481 16.3341 31.0947 17.0834 32.2062 19.0407L29.572 20.7324C28.9919 19.6934 28.3639 19.2826 27.3972 19.2826C26.4064 19.2826 25.7781 19.9109 25.7781 20.7324C25.7781 21.7473 26.4064 22.1584 27.8562 22.7867L28.7019 23.1491C31.5777 24.3817 33.1967 25.6381 33.1967 28.4653C33.1967 31.5104 30.8044 33.1776 27.5904 33.1776C24.449 33.1776 22.4191 31.6794 21.4284 29.7219" fill="#191919"/>
</svg>
