<svg width="40" height="40" viewBox="0 0 40 40" fill="none" xmlns="http://www.w3.org/2000/svg">
<circle cx="20" cy="20" r="20" fill="white"/>
<path d="M8 8H32V32H8V8Z" fill="#F5DE19"/>
<path d="M24.122 26.75C24.3265 27.1654 24.6442 27.5145 25.0385 27.7571C25.4328 27.9998 25.8876 28.1261 26.3506 28.1214C27.2848 28.1214 27.8823 27.6543 27.8823 27.0071C27.8823 26.2357 27.2686 25.9597 26.24 25.5097L25.676 25.268C24.0474 24.5746 22.9674 23.7063 22.9674 21.8703C22.9674 20.1791 24.2531 18.8909 26.27 18.8909C26.9229 18.8437 27.5752 18.9898 28.1456 19.311C28.716 19.6322 29.1792 20.1142 29.4774 20.6969L27.7143 21.824C27.5994 21.5351 27.3995 21.2879 27.1409 21.1152C26.8824 20.9425 26.5774 20.8525 26.2666 20.8571C26.1309 20.8436 25.994 20.8584 25.8644 20.9007C25.7348 20.943 25.6154 21.0118 25.5139 21.1027C25.4124 21.1937 25.3309 21.3048 25.2747 21.429C25.2185 21.5532 25.1888 21.6877 25.1874 21.824C25.1874 22.5003 25.6066 22.7746 26.5743 23.1954L27.1383 23.4371C29.0548 24.2591 30.1383 25.0966 30.1383 26.9797C30.1383 29.0103 28.5431 30.1229 26.4011 30.1229C25.5665 30.176 24.7344 29.9866 24.0051 29.5773C23.2758 29.168 22.6805 28.5564 22.2911 27.8163L24.122 26.75ZM16.1548 26.9454C16.5088 27.5737 16.8311 28.1051 17.606 28.1051C18.3466 28.1051 18.8146 27.8154 18.8146 26.6883V19.0194H21.0697V26.7183C21.0697 29.0531 19.6983 30.116 17.702 30.116C16.9963 30.1546 16.2956 29.9787 15.6917 29.6116C15.0879 29.2444 14.6093 28.7031 14.3188 28.0589L16.1548 26.9454Z" fill="black"/>
</svg>
