<svg width="36" height="36" viewBox="0 0 36 36" fill="none" xmlns="http://www.w3.org/2000/svg">
<circle cx="18" cy="18" r="18" fill="black"/>
<path d="M16.8212 0.00967971C16.7438 0.016711 16.4974 0.0413204 16.2757 0.0588985C11.1625 0.519868 6.37299 3.27837 3.33957 7.51822C1.65038 9.87566 0.570095 12.5498 0.16186 15.3823C0.0175782 16.3709 0 16.6629 0 18.0035C0 19.3441 0.0175782 19.6362 0.16186 20.6248C1.14019 27.3839 5.9507 33.0629 12.475 35.167C13.6435 35.5436 14.8751 35.8003 16.2757 35.9552C16.8212 36.0149 19.1789 36.0149 19.7244 35.9552C22.142 35.6877 24.1901 35.0896 26.21 34.0587C26.5197 33.9004 26.5796 33.8582 26.5372 33.8229C26.5091 33.8018 25.1895 32.032 23.6059 29.8927L20.7273 26.0047L17.1203 20.6671C15.1355 17.7325 13.5027 15.3329 13.4886 15.3329C13.4746 15.3294 13.4605 17.701 13.4535 20.5966C13.4428 25.6669 13.4394 25.8709 13.376 25.9906C13.2846 26.163 13.2141 26.2335 13.0663 26.3108C12.9537 26.3671 12.8551 26.3776 12.3238 26.3776H11.7149L11.5532 26.2757C11.4529 26.2128 11.3714 26.124 11.3174 26.0187L11.2434 25.8604L11.2504 18.8058L11.261 11.7475L11.3701 11.6103C11.4264 11.5364 11.546 11.4415 11.6306 11.3957C11.7748 11.3254 11.8311 11.3183 12.4398 11.3183C13.1577 11.3183 13.2774 11.3465 13.4639 11.5505C13.5168 11.6068 15.4698 14.5484 17.8064 18.0916C20.1432 21.6346 23.3386 26.4727 24.908 28.8477L27.7584 33.1649L27.9027 33.07C29.1802 32.2396 30.5314 31.0573 31.6012 29.8257C33.878 27.2115 35.3455 24.0238 35.8382 20.6249C35.9825 19.6362 36.0001 19.3441 36.0001 18.0037C36.0001 16.6629 35.9825 16.371 35.8382 15.3823C34.8599 8.62312 30.0494 2.94411 23.5251 0.840072C22.3742 0.467134 21.1496 0.210211 19.7771 0.0553829C19.4393 0.0202266 17.1132 -0.0184453 16.8212 0.00967971V0.00967971ZM24.1901 10.896C24.359 10.9804 24.4962 11.1424 24.5454 11.3113C24.5736 11.4027 24.5806 13.3591 24.5736 17.7678L24.5632 24.0941L23.4476 22.3841L22.3285 20.6741V16.0754C22.3285 13.1022 22.3425 11.4308 22.3636 11.35C22.4199 11.153 22.5432 10.9981 22.7121 10.9066C22.8564 10.8328 22.9091 10.8257 23.4616 10.8257C23.9825 10.8257 24.0739 10.8328 24.1901 10.896Z" fill="white"/>
</svg>
