<svg width="36" height="36" viewBox="0 0 36 36" fill="none" xmlns="http://www.w3.org/2000/svg">
<circle cx="18" cy="18" r="18" fill="#00CAFF"/>
<path d="M27.0216 13.103C26.7236 13.0004 26.4231 12.9054 26.1203 12.818C26.1712 12.6094 26.218 12.4034 26.2596 12.201C26.9418 8.8773 26.4958 6.19967 24.9723 5.31807C23.5116 4.47291 21.1228 5.35418 18.7102 7.46127C18.4724 7.6693 18.2399 7.88333 18.0129 8.10315C17.8609 7.95698 17.7063 7.81364 17.549 7.67322C15.0205 5.42026 12.4861 4.47071 10.9642 5.35484C9.50484 6.20264 9.0727 8.71979 9.68695 11.8697C9.74806 12.1817 9.81707 12.4921 9.89389 12.8005C9.53514 12.9028 9.18897 13.0117 8.85767 13.1276C5.89317 14.1648 4 15.7903 4 17.4763C4 19.2177 6.03241 20.9643 9.12006 22.0234C9.37038 22.1089 9.62279 22.1882 9.87705 22.2611C9.79447 22.5933 9.72116 22.9277 9.6572 23.2641C9.07161 26.3593 9.52891 28.817 10.9844 29.6594C12.4876 30.5294 15.0107 29.6353 17.4673 27.4801C17.6666 27.3049 17.8614 27.1247 18.0516 26.9397C18.2975 27.1778 18.5498 27.4089 18.8085 27.6328C21.1883 29.6877 23.5385 30.5175 24.9926 29.6728C26.4944 28.8003 26.9825 26.1601 26.3488 22.9479C26.2989 22.6963 26.2429 22.4459 26.1809 22.197C26.3581 22.1443 26.532 22.09 26.7015 22.0336C29.9115 20.9664 32 19.241 32 17.4763C32 15.7841 30.0457 14.1477 27.0216 13.103ZM26.3254 20.8943C26.1723 20.9451 26.0152 20.9942 25.8551 21.0419C25.5007 19.9161 25.0225 18.7191 24.4373 17.4822C24.9957 16.2748 25.4555 15.093 25.8 13.9745C26.0864 14.0577 26.3643 14.1454 26.6323 14.2379C29.2234 15.1332 30.8039 16.4565 30.8039 17.4763C30.8039 18.5625 29.097 19.9726 26.3254 20.8943ZM25.1754 23.1811C25.4557 24.6014 25.4956 25.8856 25.31 26.8896C25.1433 27.7917 24.8079 28.3931 24.3932 28.634C23.5109 29.1466 21.6238 28.4804 19.5887 26.7229C19.3481 26.5147 19.1133 26.2998 18.8846 26.0786C19.6737 25.2126 20.4621 24.206 21.2317 23.088C22.5853 22.9675 23.8641 22.7703 25.0238 22.5013C25.0797 22.7267 25.1303 22.9533 25.1754 23.1811ZM13.5458 28.5454C12.6837 28.8509 11.9971 28.8597 11.582 28.6195C10.6988 28.1084 10.3316 26.135 10.8324 23.488C10.892 23.1752 10.9601 22.8641 11.0369 22.5551C12.1838 22.8098 13.4533 22.9928 14.8101 23.1033C15.5849 24.1972 16.3961 25.2028 17.2137 26.0833C17.04 26.252 16.8621 26.4164 16.6803 26.5763C15.5939 27.5293 14.5052 28.2054 13.5458 28.5454ZM9.50703 20.8876C8.1417 20.4193 7.01416 19.8106 6.24131 19.1465C5.54678 18.5497 5.19623 17.9571 5.19623 17.4763C5.19623 16.4531 6.71622 15.1481 9.25142 14.2611C9.55909 14.1535 9.88109 14.052 10.2152 13.9567C10.5657 15.1004 11.0253 16.2963 11.5799 17.5055C11.018 18.7327 10.5519 19.9476 10.1981 21.1048C9.96598 21.0381 9.73557 20.9657 9.50703 20.8876ZM10.8609 11.6391C10.3347 8.94041 10.6841 6.90467 11.5636 6.39373C12.5003 5.84953 14.5716 6.62544 16.7549 8.57085C16.8972 8.69799 17.0373 8.82772 17.175 8.95995C16.3615 9.83662 15.5577 10.8347 14.7897 11.9222C13.4729 12.0447 12.2123 12.2414 11.0534 12.5049C10.982 12.218 10.9178 11.9294 10.8609 11.6392V11.6391ZM22.9388 14.6321C22.6651 14.1576 22.3812 13.689 22.0873 13.2268C22.9807 13.3402 23.8367 13.4907 24.6405 13.6746C24.3992 14.4509 24.0984 15.2623 23.7444 16.0943C23.4856 15.6016 23.217 15.1141 22.9388 14.6321ZM18.0135 9.81785C18.5651 10.4177 19.1177 11.0873 19.6612 11.814C18.5587 11.7617 17.4543 11.7615 16.3518 11.8133C16.8959 11.0934 17.4531 10.4246 18.0135 9.81785ZM13.0565 14.6403C12.7818 15.1184 12.5182 15.6029 12.266 16.0933C11.9178 15.2643 11.6197 14.4491 11.3764 13.6619C12.1752 13.4826 13.0272 13.3359 13.9148 13.2246C13.6177 13.6897 13.3315 14.1617 13.0565 14.6402V14.6403ZM13.9403 21.8134C13.0232 21.7107 12.1585 21.5716 11.3598 21.3971C11.607 20.5959 11.9116 19.7633 12.2674 18.9165C12.5206 19.4073 12.7853 19.8921 13.0612 20.3704C13.3449 20.8621 13.6387 21.3438 13.9403 21.8134ZM18.0465 25.2193C17.4795 24.6056 16.914 23.9265 16.3618 23.1961C16.8979 23.2172 17.4445 23.2279 18 23.2279C18.5707 23.2279 19.1349 23.2151 19.6902 23.1903C19.1449 23.9338 18.5945 24.6139 18.0465 25.2193ZM23.7556 18.8733C24.1299 19.7294 24.4454 20.5576 24.6958 21.3451C23.884 21.531 23.0075 21.6807 22.084 21.7919C22.3799 21.3211 22.6665 20.8444 22.9435 20.3622C23.2252 19.872 23.496 19.3756 23.7556 18.8733ZM21.9074 19.7624C21.4833 20.5018 21.0353 21.2272 20.5642 21.9374C19.7108 21.998 18.8555 22.0282 18 22.0277C17.1286 22.0277 16.2811 22.0005 15.4649 21.9474C14.9815 21.2388 14.525 20.5122 14.0963 19.769H14.0964C13.6698 19.0298 13.2712 18.2746 12.9017 17.505C13.2703 16.7352 13.6676 15.9796 14.0928 15.2398L14.0927 15.2399C14.5177 14.5 14.9706 13.7764 15.4504 13.071C16.283 13.0077 17.1369 12.9748 17.9999 12.9748H18C18.8669 12.9748 19.7219 13.0081 20.5543 13.0717C21.0293 13.7762 21.4792 14.4972 21.9035 15.2335C22.3301 15.9716 22.7327 16.7235 23.1105 17.488C22.7365 18.2602 22.3352 19.0189 21.9074 19.7624ZM24.3749 6.35795C25.3125 6.90061 25.6771 9.08892 25.088 11.9586C25.0504 12.1417 25.0082 12.3282 24.9623 12.5173C23.8005 12.2482 22.5391 12.0481 21.2184 11.9237C20.449 10.8242 19.6518 9.82465 18.8515 8.95929C19.0612 8.7564 19.276 8.55877 19.4955 8.36658C21.5627 6.56134 23.4947 5.84855 24.3749 6.35795ZM18 14.9672C19.3809 14.9672 20.5003 16.0906 20.5003 17.4763C20.5003 18.8621 19.3809 19.9855 18 19.9855C16.6191 19.9855 15.4997 18.8621 15.4997 17.4763C15.4997 16.0906 16.6191 14.9672 18 14.9672Z" fill="white"/>
</svg>
