<svg width="40" height="40" viewBox="0 0 40 40" fill="none" xmlns="http://www.w3.org/2000/svg">
<circle cx="20" cy="20" r="20" fill="white"/>
<path d="M30.1326 14.7236C29.7814 14.6005 29.4272 14.4864 29.0704 14.3815C29.1303 14.1313 29.1855 13.8841 29.2345 13.6412C30.0386 9.65276 29.5129 6.43961 27.7174 5.38168C25.9958 4.36749 23.1804 5.42502 20.337 7.95352C20.0568 8.20317 19.7827 8.46 19.5152 8.72379C19.3361 8.54838 19.1539 8.37637 18.9685 8.20786C15.9885 5.50431 13.0014 4.36485 11.2078 5.42581C9.48785 6.44316 8.97854 9.46375 9.70248 13.2437C9.7745 13.618 9.85583 13.9905 9.94637 14.3606C9.52356 14.4834 9.11557 14.614 8.72511 14.7531C5.23124 15.9978 3 17.9483 3 19.9716C3 22.0612 5.39534 24.1572 9.03436 25.4281C9.32938 25.5307 9.62686 25.6258 9.92652 25.7133C9.8292 26.1119 9.7428 26.5133 9.66742 26.9169C8.97725 30.6312 9.51621 33.5804 11.2316 34.5913C13.0033 35.6353 15.9769 34.5623 18.8722 31.9761C19.107 31.7659 19.3366 31.5497 19.5608 31.3277C19.8506 31.6133 20.148 31.8906 20.4529 32.1593C23.2576 34.6253 26.0276 35.621 27.7412 34.6074C29.5112 33.5604 30.0866 30.3921 29.3397 26.5375C29.2808 26.2355 29.2149 25.9351 29.1418 25.6363C29.3506 25.5731 29.5556 25.5081 29.7554 25.4404C33.5385 24.1597 36 22.0892 36 19.9716C36 17.941 33.6967 15.9773 30.1326 14.7236V14.7236ZM29.3121 24.0732C29.1316 24.1342 28.9465 24.193 28.7578 24.2503C28.3401 22.8993 27.7766 21.4629 27.0868 19.9786C27.745 18.5297 28.2869 17.1116 28.6928 15.7694C29.0304 15.8693 29.358 15.9745 29.6738 16.0855C32.7276 17.1598 34.5903 18.7479 34.5903 19.9716C34.5903 21.275 32.5786 22.9672 29.3121 24.0732V24.0732ZM27.9568 26.8173C28.287 28.5217 28.3341 30.0627 28.1153 31.2675C27.9189 32.3501 27.5236 33.0717 27.0348 33.3608C25.9949 33.9759 23.7709 33.1764 21.3724 31.0674C21.0888 30.8176 20.8121 30.5598 20.5426 30.2943C21.4725 29.2552 22.4018 28.0472 23.3088 26.7056C24.9041 26.561 26.4113 26.3244 27.7781 26.0016C27.8439 26.272 27.9035 26.544 27.9568 26.8173V26.8173ZM14.2504 33.2545C13.2344 33.6211 12.4251 33.6316 11.9359 33.3434C10.895 32.73 10.4623 30.362 11.0525 27.1856C11.1227 26.8102 11.203 26.4369 11.2934 26.0661C12.6452 26.3717 14.1414 26.5914 15.7404 26.7239C16.6536 28.0367 17.6097 29.2433 18.5733 30.2999C18.3685 30.5024 18.1589 30.6997 17.9446 30.8916C16.6642 32.0351 15.3812 32.8465 14.2504 33.2545V33.2545ZM9.49043 24.0651C7.88129 23.5031 6.5524 22.7728 5.64155 21.9758C4.82299 21.2596 4.40985 20.5485 4.40985 19.9716C4.40985 18.7438 6.20126 17.1777 9.18918 16.1133C9.55179 15.9842 9.93129 15.8624 10.3251 15.7481C10.7381 17.1205 11.2798 18.5555 11.9335 20.0066C11.2713 21.4792 10.7219 22.9371 10.3049 24.3258C10.0313 24.2457 9.75978 24.1588 9.49043 24.0651V24.0651ZM11.086 12.9669C10.4659 9.7285 10.8777 7.2856 11.9143 6.67248C13.0182 6.01944 15.4594 6.95052 18.0325 9.28502C18.2003 9.43759 18.3654 9.59326 18.5277 9.75194C17.5689 10.8039 16.6215 12.0016 15.7165 13.3066C14.1644 13.4536 12.6788 13.6897 11.3129 14.0059C11.2288 13.6616 11.1531 13.3152 11.086 12.9671V12.9669ZM25.3208 16.5585C24.9981 15.9891 24.6636 15.4269 24.3172 14.8722C25.3701 15.0082 26.379 15.1888 27.3263 15.4096C27.0419 16.341 26.6874 17.3148 26.2702 18.3132C25.9652 17.7219 25.6486 17.1369 25.3208 16.5585V16.5585ZM19.5159 10.7814C20.1661 11.5012 20.8173 12.3048 21.4578 13.1768C20.1585 13.1141 18.8569 13.1138 17.5575 13.176C18.1987 12.3121 18.8555 11.5095 19.5159 10.7814ZM13.6737 16.5684C13.3499 17.1421 13.0393 17.7235 12.7421 18.312C12.3317 17.3172 11.9804 16.3389 11.6936 15.3943C12.6351 15.1791 13.6391 15.0031 14.6854 14.8695C14.3352 15.4276 13.9979 15.994 13.6737 16.5683V16.5684ZM14.7154 25.1761C13.6345 25.0529 12.6154 24.886 11.6741 24.6765C11.9654 23.715 12.3244 22.716 12.7438 21.6998C13.0422 22.2888 13.3541 22.8705 13.6792 23.4445C14.0136 24.0346 14.3599 24.6125 14.7154 25.1761ZM19.5548 29.2632C18.8865 28.5267 18.2201 27.7118 17.5692 26.8353C18.2011 26.8606 18.8453 26.8735 19.5 26.8735C20.1726 26.8735 20.8375 26.8581 21.492 26.8284C20.8494 27.7206 20.2006 28.5367 19.5548 29.2632ZM26.2834 21.6479C26.7246 22.6753 27.0963 23.6691 27.3915 24.6141C26.4348 24.8372 25.4017 25.0169 24.3132 25.1503C24.662 24.5853 24.9998 24.0133 25.3263 23.4346C25.6583 22.8464 25.9774 22.2507 26.2834 21.6479V21.6479ZM24.1052 22.7149C23.6053 23.6022 23.0773 24.4726 22.5221 25.3248C21.5163 25.3976 20.5083 25.4338 19.5 25.4332C18.473 25.4332 17.4741 25.4006 16.5122 25.3368C15.9425 24.4866 15.4044 23.6146 14.8992 22.7228H14.8993C14.3965 21.8358 13.9268 20.9295 13.4913 20.006C13.9257 19.0823 14.394 18.1756 14.8951 17.2878L14.895 17.2879C15.3959 16.4 15.9296 15.5317 16.4951 14.6851C17.4764 14.6093 18.4828 14.5698 19.4999 14.5698H19.5C20.5217 14.5698 21.5294 14.6097 22.5105 14.6861C23.0702 15.5314 23.6005 16.3966 24.1005 17.2802C24.6033 18.166 25.0778 19.0682 25.5231 19.9856C25.0824 20.9123 24.6094 21.8226 24.1052 22.7149V22.7149ZM27.0133 6.62954C28.1183 7.28073 28.5481 9.90671 27.8538 13.3504C27.8094 13.5701 27.7597 13.7938 27.7055 14.0208C26.3363 13.6978 24.8496 13.4577 23.2931 13.3085C22.3863 11.9891 21.4467 10.7896 20.5035 9.75115C20.7507 9.50768 21.0038 9.27052 21.2625 9.0399C23.6989 6.8736 25.9759 6.01826 27.0133 6.62954V6.62954ZM19.5 16.9606C21.1274 16.9606 22.4468 18.3087 22.4468 19.9716C22.4468 21.6345 21.1274 22.9826 19.5 22.9826C17.8726 22.9826 16.5532 21.6345 16.5532 19.9716C16.5532 18.3087 17.8726 16.9606 19.5 16.9606V16.9606Z" fill="#00D8FF"/>
</svg>
