<svg width="40" height="40" viewBox="0 0 40 40" fill="none" xmlns="http://www.w3.org/2000/svg">
<circle cx="20" cy="20" r="20" fill="white"/>
<path d="M25.4361 24.555C26.5245 24.4423 27.3502 23.504 27.3126 22.378C27.2752 21.252 26.3368 20.3512 25.2109 20.3512H25.1359C23.9722 20.3887 23.0715 21.3646 23.1091 22.5281C23.1466 23.0911 23.3718 23.579 23.7096 23.9168C22.4335 26.4316 20.4818 28.2707 17.5543 29.8096C15.5651 30.8605 13.5009 31.2359 11.4367 30.9732C9.7477 30.748 8.43407 29.9974 7.60824 28.7587C6.40729 26.9196 6.29473 24.9302 7.30812 22.941C8.02127 21.5147 9.14711 20.4637 9.86026 19.9383C9.71014 19.4504 9.4849 18.6246 9.37234 18.0242C3.93016 21.9652 4.49319 27.2949 6.14461 29.8096C7.38312 31.6864 9.89782 32.8499 12.6752 32.8499C13.4258 32.8499 14.1764 32.7748 14.9271 32.5872C19.7312 31.6488 23.3719 28.7962 25.4361 24.555V24.555ZM32.0418 19.9008C29.1893 16.5603 24.9857 14.7212 20.1816 14.7212H19.5811C19.2433 14.0456 18.5302 13.5951 17.742 13.5951H17.6669C16.5035 13.6327 15.6028 14.6085 15.6402 15.7722C15.6778 16.8981 16.6161 17.7989 17.742 17.7989H17.817C18.6427 17.7614 19.3559 17.2359 19.6561 16.5228H20.3317C23.1842 16.5228 25.8865 17.3485 28.3262 18.9624C30.2027 20.2011 31.5539 21.815 32.3045 23.7667C32.9425 25.3431 32.905 26.882 32.2294 28.1957C31.1785 30.185 29.4145 31.2735 27.0875 31.2735C25.5862 31.2735 24.16 30.823 23.4093 30.4852C22.9965 30.8605 22.2458 31.461 21.7203 31.8365C23.3343 32.5871 24.9857 33 26.5621 33C30.1651 33 32.8299 31.0107 33.8433 29.0214C34.9317 26.8444 34.8566 23.0911 32.0418 19.9008V19.9008ZM12.9754 25.1929C13.013 26.319 13.9513 27.2197 15.0772 27.2197H15.1523C16.3158 27.1822 17.2165 26.2063 17.179 25.0428C17.1415 23.9167 16.2032 23.016 15.0772 23.016H15.0022C14.9271 23.016 14.8144 23.016 14.7395 23.0534C13.2007 20.5012 12.5626 17.7238 12.7879 14.7211C12.9379 12.4691 13.6886 10.5173 15.0022 8.90332C16.0906 7.51458 18.1924 6.83899 19.6187 6.80154C23.597 6.72643 25.2859 11.6808 25.3985 13.6701C25.8865 13.7827 26.7122 14.0455 27.2752 14.2332C26.8247 8.15284 23.0715 5 19.4686 5C16.0906 5 12.9754 7.43969 11.7368 11.0429C10.0104 15.8472 11.1363 20.4637 13.2381 24.1045C13.0505 24.3672 12.9379 24.7801 12.9754 25.193V25.1929Z" fill="#764ABC"/>
</svg>
