<svg width="36" height="36" viewBox="0 0 36 36" fill="none" xmlns="http://www.w3.org/2000/svg">
<circle cx="18" cy="18" r="18" fill="#764ABC"/>
<path d="M22.9072 22.3646C23.7537 22.2766 24.3965 21.5391 24.3678 20.6543C24.3535 20.2291 24.1752 19.8258 23.8704 19.529C23.5655 19.2321 23.1577 19.0647 22.7322 19.0617H22.6728C21.767 19.0904 21.0659 19.8576 21.0946 20.772C21.1252 21.2149 21.3002 21.5975 21.5633 21.8624C20.5695 23.8396 19.0505 25.2839 16.7711 26.493C15.2235 27.3194 13.6165 27.614 12.0105 27.4074C10.6953 27.2304 9.67276 26.6403 9.02998 25.6675C8.09545 24.2231 8.00841 22.6592 8.79659 21.0963C9.35137 19.9762 10.2285 19.1497 10.7833 18.7375C10.6328 18.2423 10.5061 17.7402 10.4035 17.2329C6.16711 20.3301 6.60615 24.5177 7.8898 26.4939C8.85398 27.9689 10.811 28.8833 12.9737 28.8833C13.5641 28.8873 14.1528 28.8179 14.7261 28.6767C18.4661 27.9402 21.2993 25.6981 22.9062 22.3656L22.9072 22.3646ZM28.0485 18.7078C25.8284 16.0831 22.5562 14.6378 18.8171 14.6378H18.3494C18.2162 14.3723 18.0118 14.149 17.7592 13.9928C17.5065 13.8366 17.2155 13.7536 16.9184 13.753H16.8591C15.9542 13.7827 15.2522 14.5498 15.2818 15.4643C15.3105 16.349 16.0413 17.0559 16.9175 17.0559H16.9768C17.2853 17.0399 17.5831 16.9375 17.8362 16.7602C18.0893 16.5829 18.2873 16.338 18.4077 16.0535H18.9338C21.1539 16.0535 23.2573 16.702 25.156 17.9703C26.6166 18.9441 27.6688 20.2115 28.2522 21.7457C28.7496 22.9835 28.7209 24.1925 28.1948 25.2256C27.3761 26.7885 26.0035 27.6437 24.1918 27.6437C23.0239 27.6437 21.9134 27.2897 21.3289 27.0238C20.9084 27.399 20.4698 27.7533 20.0147 28.0856C21.2706 28.6757 22.5561 29 23.7834 29C26.5879 29 28.6616 27.437 29.4508 25.8741C30.2973 24.1638 30.2389 21.2149 28.0485 18.7078ZM13.2081 22.8658C13.2368 23.7506 13.9675 24.4584 14.8437 24.4584H14.9021C15.8079 24.4297 16.509 23.6626 16.4803 22.7482C16.466 22.3229 16.2878 21.9196 15.9829 21.6228C15.678 21.326 15.2702 21.1585 14.8447 21.1556H14.7854C14.7159 21.151 14.6462 21.1607 14.5807 21.1843C13.3831 19.1794 12.8867 16.9976 13.0617 14.6378C13.1784 12.8683 13.7628 11.335 14.7854 10.0666C15.6328 8.97617 17.2685 8.4453 18.379 8.41565C21.4753 8.35635 22.7895 12.2494 22.8775 13.8123C23.2573 13.9003 23.9001 14.107 24.3382 14.2543C23.9871 9.47739 21.0668 7 18.2614 7C15.6328 7 13.2081 8.91687 12.2439 11.7482C10.9 15.5226 11.7762 19.1497 13.4128 22.0107C13.2664 22.2173 13.1784 22.5416 13.2081 22.8658Z" fill="white"/>
</svg>
