<svg width="36" height="36" viewBox="0 0 36 36" fill="none" xmlns="http://www.w3.org/2000/svg">
<rect x="1" y="1" width="34" height="34" rx="17" fill="white"/>
<path d="M18 0C27.9 0 36 8.1 36 18C36 27.9 27.9 36 18 36C8.1 36 0 27.9 0 18C0 8.1 8.1 0 18 0ZM14.4 23.9625C14.625 24.975 14.625 25.875 14.4 26.6625L14.2875 27C14.2875 27.1125 14.175 27.225 14.175 27.225C13.95 27.675 13.725 28.0125 13.3875 28.4625C12.375 29.5875 10.9125 30.0375 10.2375 29.7C9.5625 29.3625 9.9 27.675 11.1375 26.4375C12.4875 25.0875 14.2875 24.1875 14.2875 24.1875L14.4 23.9625ZM29.25 7.65C28.4625 4.5 23.175 3.375 18.1125 5.175C15.1875 6.3 11.925 7.9875 9.5625 10.125C6.75 12.7125 6.4125 14.9625 6.525 15.8625C7.2 19.125 11.7 21.375 13.6125 22.95C13.05 23.175 9 25.2 8.1 27.3375C7.0875 29.5875 8.2125 31.1625 9 31.275C11.3625 31.95 13.8375 30.7125 15.075 28.8C16.3125 26.8875 16.2 24.525 15.6375 23.2875C16.5126 23.0172 17.4429 22.9785 18.3375 23.175C21.4875 23.5125 22.1625 25.5375 21.9375 26.325C21.7125 27.1125 21.15 27.5625 20.925 27.7875C20.7 27.9 20.5875 28.0125 20.7 28.0125C20.7 28.125 20.8125 28.125 21.0375 28.125C21.2625 28.125 22.725 27.45 22.725 25.875C22.8375 23.9625 20.925 21.825 17.6625 21.825C16.3125 21.825 15.4125 21.9375 14.85 22.1625C14.85 22.05 14.7375 22.05 14.7375 22.05C12.7125 19.9125 9 18.3375 9.1125 15.4125C9.1125 14.4 9.5625 11.5875 16.3125 8.2125C21.825 5.4 26.325 6.1875 27.1125 7.875C28.2375 10.2375 24.75 14.7375 19.0125 15.4125C16.7625 15.6375 15.6375 14.85 15.4125 14.5125C15.075 14.175 15.075 14.175 14.9625 14.175C14.7375 14.2875 14.85 14.5125 14.9625 14.7375C15.1875 15.1875 15.8625 15.975 17.1 16.425C18.1125 16.7625 20.7 16.9875 23.85 15.75C27.3375 14.4 30.0375 10.6875 29.25 7.5375V7.65Z" fill="#CC6699"/>
</svg>
