<svg width="40" height="40" viewBox="0 0 40 40" fill="none" xmlns="http://www.w3.org/2000/svg">
<circle cx="20" cy="20" r="20" fill="white"/>
<path d="M20 10C15.7334 10 13.0666 12.1112 12 16.3333C13.6 14.2222 15.4666 13.4305 17.6 13.9583C18.8171 14.2594 19.6871 15.1333 20.6501 16.1005C22.2189 17.6763 24.0344 19.5 28 19.5C32.2666 19.5 34.9334 17.3888 36 13.1667C34.4 15.2778 32.5334 16.0695 30.4 15.5417C29.1829 15.2406 28.3129 14.3667 27.3499 13.3995C25.7811 11.8237 23.9656 10 20 10ZM12 19.5C7.73338 19.5 5.06662 21.6112 4 25.8333C5.6 23.7222 7.46662 22.9305 9.6 23.4583C10.8171 23.7594 11.6871 24.6333 12.6501 25.6005C14.2189 27.1763 16.0344 29 20 29C24.2666 29 26.9334 26.8888 28 22.6667C26.4 24.7778 24.5334 25.5695 22.4 25.0417C21.1829 24.7406 20.3129 23.8667 19.3499 22.8995C17.7811 21.3237 15.9656 19.5 12 19.5Z" fill="url(#paint0_linear_169_13)"/>
<defs>
<linearGradient id="paint0_linear_169_13" x1="3.11104" y1="16.08" x2="30.6031" y2="32.0983" gradientUnits="userSpaceOnUse">
<stop stop-color="#2298BD"/>
<stop offset="1" stop-color="#0ED7B5"/>
</linearGradient>
</defs>
</svg>
