<svg width="36" height="36" viewBox="0 0 36 36" fill="none" xmlns="http://www.w3.org/2000/svg">
<circle cx="18" cy="18" r="18" fill="url(#paint0_linear_50_22)"/>
<path d="M18.1667 9C14.3889 9 12.0277 10.8889 11.0833 14.6667C12.5 12.7777 14.1527 12.0694 16.0417 12.5417C17.1193 12.8111 17.8896 13.593 18.7423 14.4584C20.1313 15.8683 21.7388 17.5 25.25 17.5C29.0277 17.5 31.3889 15.6111 32.3333 11.8333C30.9167 13.7223 29.2639 14.4306 27.375 13.9583C26.2973 13.6889 25.527 12.907 24.6744 12.0416C23.2854 10.6317 21.6779 9 18.1667 9ZM11.0833 17.5C7.30559 17.5 4.94441 19.3889 4 23.1667C5.41667 21.2777 7.06941 20.5694 8.95833 21.0417C10.036 21.3111 10.8063 22.093 11.659 22.9584C13.048 24.3683 14.6554 26 18.1667 26C21.9444 26 24.3056 24.1111 25.25 20.3333C23.8333 22.2223 22.1806 22.9306 20.2917 22.4583C19.214 22.1889 18.4437 21.407 17.591 20.5416C16.202 19.1317 14.5946 17.5 11.0833 17.5Z" fill="white"/>
<defs>
<linearGradient id="paint0_linear_50_22" x1="8.19885" y1="13.3815" x2="28.6989" y2="18.3815" gradientUnits="userSpaceOnUse">
<stop stop-color="#2298BD"/>
<stop offset="1" stop-color="#0ED7B5"/>
</linearGradient>
</defs>
</svg>
