<svg width="30" height="30" viewBox="0 0 30 30" fill="none" xmlns="http://www.w3.org/2000/svg">
<rect width="30" height="30" rx="15" fill="#191919"/>
<path d="M14 7.27732C14.0976 7.39593 14.1574 7.54109 14.1717 7.69404C14.1859 7.847 14.154 8.00071 14.08 8.13532C13.5019 9.1968 13.1999 10.3866 13.202 11.5953C13.202 15.6163 16.48 18.8723 20.52 18.8723C21.047 18.8723 21.56 18.8173 22.053 18.7123C22.2041 18.6796 22.3615 18.6921 22.5056 18.7483C22.6497 18.8045 22.774 18.9019 22.863 19.0283C22.957 19.1598 23.0049 19.3186 22.9993 19.4801C22.9937 19.6416 22.9349 19.7967 22.832 19.9213C22.0477 20.8848 21.0582 21.661 19.9358 22.1935C18.8134 22.726 17.5863 23.0013 16.344 22.9993C11.734 22.9993 8 19.2853 8 14.7093C8 11.2653 10.114 8.31132 13.124 7.05932C13.2739 6.99595 13.4404 6.98295 13.5983 7.02226C13.7563 7.06157 13.8973 7.15107 14 7.27732Z" fill="#EAEAEA"/>
</svg>
