<svg width="30" height="30" viewBox="0 0 30 30" fill="none" xmlns="http://www.w3.org/2000/svg">
<rect width="30" height="30" rx="15" fill="#EAEAEA"/>
<path d="M15.0002 10.8333C13.8951 10.8333 12.8353 11.2723 12.0539 12.0537C11.2725 12.8351 10.8335 13.8949 10.8335 15C10.8335 16.105 11.2725 17.1649 12.0539 17.9463C12.8353 18.7277 13.8951 19.1666 15.0002 19.1666C16.1052 19.1666 17.165 18.7277 17.9464 17.9463C18.7278 17.1649 19.1668 16.105 19.1668 15C19.1668 13.8949 18.7278 12.8351 17.9464 12.0537C17.165 11.2723 16.1052 10.8333 15.0002 10.8333V10.8333Z" fill="#191919"/>
<path fill-rule="evenodd" clip-rule="evenodd" d="M15.0002 5.83331C15.2212 5.83331 15.4331 5.92111 15.5894 6.07739C15.7457 6.23367 15.8335 6.44563 15.8335 6.66665V7.49998C15.8335 7.72099 15.7457 7.93295 15.5894 8.08924C15.4331 8.24552 15.2212 8.33331 15.0002 8.33331C14.7791 8.33331 14.5672 8.24552 14.4109 8.08924C14.2546 7.93295 14.1668 7.72099 14.1668 7.49998V6.66665C14.1668 6.44563 14.2546 6.23367 14.4109 6.07739C14.5672 5.92111 14.7791 5.83331 15.0002 5.83331V5.83331ZM7.74433 7.74415C7.9006 7.58792 8.11253 7.50016 8.3335 7.50016C8.55447 7.50016 8.76639 7.58792 8.92266 7.74415L10.1727 8.99415C10.3245 9.15131 10.4085 9.36182 10.4066 9.58031C10.4047 9.79881 10.317 10.0078 10.1625 10.1623C10.008 10.3168 9.79899 10.4045 9.5805 10.4064C9.362 10.4083 9.1515 10.3243 8.99433 10.1725L7.74433 8.92248C7.5881 8.76621 7.50034 8.55428 7.50034 8.33331C7.50034 8.11234 7.5881 7.90042 7.74433 7.74415V7.74415ZM22.256 7.74415C22.4122 7.90042 22.5 8.11234 22.5 8.33331C22.5 8.55428 22.4122 8.76621 22.256 8.92248L21.006 10.1725C20.9291 10.2521 20.8372 10.3156 20.7355 10.3592C20.6338 10.4029 20.5245 10.4259 20.4138 10.4269C20.3032 10.4278 20.1934 10.4067 20.091 10.3648C19.9886 10.3229 19.8956 10.2611 19.8173 10.1828C19.7391 10.1046 19.6772 10.0115 19.6353 9.90911C19.5934 9.80669 19.5723 9.69696 19.5733 9.58631C19.5742 9.47566 19.5972 9.36631 19.6409 9.26464C19.6846 9.16297 19.7481 9.07102 19.8277 8.99415L21.0777 7.74415C21.2339 7.58792 21.4459 7.50016 21.6668 7.50016C21.8878 7.50016 22.0997 7.58792 22.256 7.74415ZM5.8335 15C5.8335 14.779 5.92129 14.567 6.07757 14.4107C6.23385 14.2544 6.44582 14.1666 6.66683 14.1666H7.50016C7.72118 14.1666 7.93314 14.2544 8.08942 14.4107C8.2457 14.567 8.3335 14.779 8.3335 15C8.3335 15.221 8.2457 15.433 8.08942 15.5892C7.93314 15.7455 7.72118 15.8333 7.50016 15.8333H6.66683C6.44582 15.8333 6.23385 15.7455 6.07757 15.5892C5.92129 15.433 5.8335 15.221 5.8335 15ZM21.6668 15C21.6668 14.779 21.7546 14.567 21.9109 14.4107C22.0672 14.2544 22.2791 14.1666 22.5002 14.1666H23.3335C23.5545 14.1666 23.7665 14.2544 23.9228 14.4107C24.079 14.567 24.1668 14.779 24.1668 15C24.1668 15.221 24.079 15.433 23.9228 15.5892C23.7665 15.7455 23.5545 15.8333 23.3335 15.8333H22.5002C22.2791 15.8333 22.0672 15.7455 21.9109 15.5892C21.7546 15.433 21.6668 15.221 21.6668 15ZM10.1727 19.8275C10.3289 19.9838 10.4167 20.1957 10.4167 20.4166C10.4167 20.6376 10.3289 20.8495 10.1727 21.0058L8.92266 22.2558C8.76549 22.4076 8.55499 22.4916 8.33649 22.4897C8.118 22.4878 7.90899 22.4002 7.75448 22.2457C7.59997 22.0912 7.51233 21.8821 7.51043 21.6636C7.50854 21.4451 7.59253 21.2346 7.74433 21.0775L8.99433 19.8275C9.1506 19.6713 9.36253 19.5835 9.5835 19.5835C9.80447 19.5835 10.0164 19.6713 10.1727 19.8275V19.8275ZM19.8277 19.8275C19.9839 19.6713 20.1959 19.5835 20.4168 19.5835C20.6378 19.5835 20.8497 19.6713 21.006 19.8275L22.256 21.0775C22.4078 21.2346 22.4918 21.4451 22.4899 21.6636C22.488 21.8821 22.4004 22.0912 22.2458 22.2457C22.0913 22.4002 21.8823 22.4878 21.6638 22.4897C21.4453 22.4916 21.2348 22.4076 21.0777 22.2558L19.8277 21.0058C19.6714 20.8495 19.5837 20.6376 19.5837 20.4166C19.5837 20.1957 19.6714 19.9838 19.8277 19.8275ZM15.0002 21.6666C15.2212 21.6666 15.4331 21.7544 15.5894 21.9107C15.7457 22.067 15.8335 22.279 15.8335 22.5V23.3333C15.8335 23.5543 15.7457 23.7663 15.5894 23.9226C15.4331 24.0788 15.2212 24.1666 15.0002 24.1666C14.7791 24.1666 14.5672 24.0788 14.4109 23.9226C14.2546 23.7663 14.1668 23.5543 14.1668 23.3333V22.5C14.1668 22.279 14.2546 22.067 14.4109 21.9107C14.5672 21.7544 14.7791 21.6666 15.0002 21.6666V21.6666Z" fill="#191919"/>
</svg>
